<?xml version="1.0" encoding="utf-8" standalone="no"?>
<!DOCTYPE svg PUBLIC "-//W3C//DTD SVG 1.1//EN"
  "http://www.w3.org/Graphics/SVG/1.1/DTD/svg11.dtd">
<svg xmlns:xlink="http://www.w3.org/1999/xlink" width="414.438438pt" height="250.77525pt" viewBox="0 0 414.438438 250.77525" xmlns="http://www.w3.org/2000/svg" version="1.1">
 <metadata>
  <rdf:RDF xmlns:dc="http://purl.org/dc/elements/1.1/" xmlns:cc="http://creativecommons.org/ns#" xmlns:rdf="http://www.w3.org/1999/02/22-rdf-syntax-ns#">
   <cc:Work>
    <dc:creator>
     <cc:Agent>
      <dc:title>tools/gen_figures.py</dc:title>
     </cc:Agent>
    </dc:creator>
   </cc:Work>
  </rdf:RDF>
 </metadata>
 <defs>
  <style type="text/css">*{stroke-linejoin: round; stroke-linecap: butt}</style>
 </defs>
 <g id="figure_1">
  <g id="patch_1">
   <path d="M 0 250.77525 
L 414.438438 250.77525 
L 414.438438 0 
L 0 0 
L 0 250.77525 
z
" style="fill: none"/>
  </g>
  <g id="axes_1">
   <g id="patch_2">
    <path d="M 4.32 219.502437 
L 394.92 219.502437 
L 394.92 19.918437 
L 4.32 19.918437 
L 4.32 219.502437 
z
" style="fill: none"/>
   </g>
   <g id="matplotlib.axis_1">
    <g id="xtick_1">
     <g id="line2d_1">
      <path d="M 38.583158 219.502437 
L 38.583158 19.918437 
" clip-path="url(#p480ff9623d)" style="fill: none; stroke: #e1e0d9; stroke-width: 0.7; stroke-linecap: round"/>
     </g>
     <g id="line2d_2">
      <defs>
       <path id="m0cade8e575" d="M 0 0 
L 0 3 
" style="stroke: #898781; stroke-width: 0.8"/>
      </defs>
      <g>
       <use xlink:href="#m0cade8e575" x="38.583158" y="219.502437" style="fill: #898781; stroke: #898781; stroke-width: 0.8"/>
      </g>
     </g>
     <g id="text_1">
      <!-- −1.5 -->
      <g style="fill: #898781" transform="translate(28.870033 232.081187) scale(0.08 -0.08)">
       <defs>
        <path id="DejaVuSans-2212" d="M 678 2272 
L 4684 2272 
L 4684 1741 
L 678 1741 
L 678 2272 
z
" transform="scale(0.015625)"/>
        <path id="DejaVuSans-31" d="M 794 531 
L 1825 531 
L 1825 4091 
L 703 3866 
L 703 4441 
L 1819 4666 
L 2450 4666 
L 2450 531 
L 3481 531 
L 3481 0 
L 794 0 
L 794 531 
z
" transform="scale(0.015625)"/>
        <path id="DejaVuSans-2e" d="M 684 794 
L 1344 794 
L 1344 0 
L 684 0 
L 684 794 
z
" transform="scale(0.015625)"/>
        <path id="DejaVuSans-35" d="M 691 4666 
L 3169 4666 
L 3169 4134 
L 1269 4134 
L 1269 2991 
Q 1406 3038 1543 3061 
Q 1681 3084 1819 3084 
Q 2600 3084 3056 2656 
Q 3513 2228 3513 1497 
Q 3513 744 3044 326 
Q 2575 -91 1722 -91 
Q 1428 -91 1123 -41 
Q 819 9 494 109 
L 494 744 
Q 775 591 1075 516 
Q 1375 441 1709 441 
Q 2250 441 2565 725 
Q 2881 1009 2881 1497 
Q 2881 1984 2565 2268 
Q 2250 2553 1709 2553 
Q 1456 2553 1204 2497 
Q 953 2441 691 2322 
L 691 4666 
z
" transform="scale(0.015625)"/>
       </defs>
       <use xlink:href="#DejaVuSans-2212"/>
       <use xlink:href="#DejaVuSans-31" transform="translate(83.789062 0)"/>
       <use xlink:href="#DejaVuSans-2e" transform="translate(147.412109 0)"/>
       <use xlink:href="#DejaVuSans-35" transform="translate(179.199219 0)"/>
      </g>
     </g>
    </g>
    <g id="xtick_2">
     <g id="line2d_3">
      <path d="M 107.109474 219.502437 
L 107.109474 19.918437 
" clip-path="url(#p480ff9623d)" style="fill: none; stroke: #e1e0d9; stroke-width: 0.7; stroke-linecap: round"/>
     </g>
     <g id="line2d_4">
      <g>
       <use xlink:href="#m0cade8e575" x="107.109474" y="219.502437" style="fill: #898781; stroke: #898781; stroke-width: 0.8"/>
      </g>
     </g>
     <g id="text_2">
      <!-- −1.0 -->
      <g style="fill: #898781" transform="translate(97.396349 232.081187) scale(0.08 -0.08)">
       <defs>
        <path id="DejaVuSans-30" d="M 2034 4250 
Q 1547 4250 1301 3770 
Q 1056 3291 1056 2328 
Q 1056 1369 1301 889 
Q 1547 409 2034 409 
Q 2525 409 2770 889 
Q 3016 1369 3016 2328 
Q 3016 3291 2770 3770 
Q 2525 4250 2034 4250 
z
M 2034 4750 
Q 2819 4750 3233 4129 
Q 3647 3509 3647 2328 
Q 3647 1150 3233 529 
Q 2819 -91 2034 -91 
Q 1250 -91 836 529 
Q 422 1150 422 2328 
Q 422 3509 836 4129 
Q 1250 4750 2034 4750 
z
" transform="scale(0.015625)"/>
       </defs>
       <use xlink:href="#DejaVuSans-2212"/>
       <use xlink:href="#DejaVuSans-31" transform="translate(83.789062 0)"/>
       <use xlink:href="#DejaVuSans-2e" transform="translate(147.412109 0)"/>
       <use xlink:href="#DejaVuSans-30" transform="translate(179.199219 0)"/>
      </g>
     </g>
    </g>
    <g id="xtick_3">
     <g id="line2d_5">
      <path d="M 175.635789 219.502437 
L 175.635789 19.918437 
" clip-path="url(#p480ff9623d)" style="fill: none; stroke: #e1e0d9; stroke-width: 0.7; stroke-linecap: round"/>
     </g>
     <g id="line2d_6">
      <g>
       <use xlink:href="#m0cade8e575" x="175.635789" y="219.502437" style="fill: #898781; stroke: #898781; stroke-width: 0.8"/>
      </g>
     </g>
     <g id="text_3">
      <!-- −0.5 -->
      <g style="fill: #898781" transform="translate(165.922664 232.081187) scale(0.08 -0.08)">
       <use xlink:href="#DejaVuSans-2212"/>
       <use xlink:href="#DejaVuSans-30" transform="translate(83.789062 0)"/>
       <use xlink:href="#DejaVuSans-2e" transform="translate(147.412109 0)"/>
       <use xlink:href="#DejaVuSans-35" transform="translate(179.199219 0)"/>
      </g>
     </g>
    </g>
    <g id="xtick_4">
     <g id="line2d_7">
      <path d="M 244.162105 219.502437 
L 244.162105 19.918437 
" clip-path="url(#p480ff9623d)" style="fill: none; stroke: #e1e0d9; stroke-width: 0.7; stroke-linecap: round"/>
     </g>
     <g id="line2d_8">
      <g>
       <use xlink:href="#m0cade8e575" x="244.162105" y="219.502437" style="fill: #898781; stroke: #898781; stroke-width: 0.8"/>
      </g>
     </g>
     <g id="text_4">
      <!-- 0.0 -->
      <g style="fill: #898781" transform="translate(237.800855 232.081187) scale(0.08 -0.08)">
       <use xlink:href="#DejaVuSans-30"/>
       <use xlink:href="#DejaVuSans-2e" transform="translate(63.623047 0)"/>
       <use xlink:href="#DejaVuSans-30" transform="translate(95.410156 0)"/>
      </g>
     </g>
    </g>
    <g id="xtick_5">
     <g id="line2d_9">
      <path d="M 312.688421 219.502437 
L 312.688421 19.918437 
" clip-path="url(#p480ff9623d)" style="fill: none; stroke: #e1e0d9; stroke-width: 0.7; stroke-linecap: round"/>
     </g>
     <g id="line2d_10">
      <g>
       <use xlink:href="#m0cade8e575" x="312.688421" y="219.502437" style="fill: #898781; stroke: #898781; stroke-width: 0.8"/>
      </g>
     </g>
     <g id="text_5">
      <!-- 0.5 -->
      <g style="fill: #898781" transform="translate(306.327171 232.081187) scale(0.08 -0.08)">
       <use xlink:href="#DejaVuSans-30"/>
       <use xlink:href="#DejaVuSans-2e" transform="translate(63.623047 0)"/>
       <use xlink:href="#DejaVuSans-35" transform="translate(95.410156 0)"/>
      </g>
     </g>
    </g>
    <g id="xtick_6">
     <g id="line2d_11">
      <path d="M 381.214737 219.502437 
L 381.214737 19.918437 
" clip-path="url(#p480ff9623d)" style="fill: none; stroke: #e1e0d9; stroke-width: 0.7; stroke-linecap: round"/>
     </g>
     <g id="line2d_12">
      <g>
       <use xlink:href="#m0cade8e575" x="381.214737" y="219.502437" style="fill: #898781; stroke: #898781; stroke-width: 0.8"/>
      </g>
     </g>
     <g id="text_6">
      <!-- 1.0 -->
      <g style="fill: #898781" transform="translate(374.853487 232.081187) scale(0.08 -0.08)">
       <use xlink:href="#DejaVuSans-31"/>
       <use xlink:href="#DejaVuSans-2e" transform="translate(63.623047 0)"/>
       <use xlink:href="#DejaVuSans-30" transform="translate(95.410156 0)"/>
      </g>
     </g>
    </g>
    <g id="text_7">
     <!-- node position on [-1, 1] -->
     <g style="fill: #52514e" transform="translate(146.9475 244.583531) scale(0.09 -0.09)">
      <defs>
       <path id="DejaVuSans-6e" d="M 3513 2113 
L 3513 0 
L 2938 0 
L 2938 2094 
Q 2938 2591 2744 2837 
Q 2550 3084 2163 3084 
Q 1697 3084 1428 2787 
Q 1159 2491 1159 1978 
L 1159 0 
L 581 0 
L 581 3500 
L 1159 3500 
L 1159 2956 
Q 1366 3272 1645 3428 
Q 1925 3584 2291 3584 
Q 2894 3584 3203 3211 
Q 3513 2838 3513 2113 
z
" transform="scale(0.015625)"/>
       <path id="DejaVuSans-6f" d="M 1959 3097 
Q 1497 3097 1228 2736 
Q 959 2375 959 1747 
Q 959 1119 1226 758 
Q 1494 397 1959 397 
Q 2419 397 2687 759 
Q 2956 1122 2956 1747 
Q 2956 2369 2687 2733 
Q 2419 3097 1959 3097 
z
M 1959 3584 
Q 2709 3584 3137 3096 
Q 3566 2609 3566 1747 
Q 3566 888 3137 398 
Q 2709 -91 1959 -91 
Q 1206 -91 779 398 
Q 353 888 353 1747 
Q 353 2609 779 3096 
Q 1206 3584 1959 3584 
z
" transform="scale(0.015625)"/>
       <path id="DejaVuSans-64" d="M 2906 2969 
L 2906 4863 
L 3481 4863 
L 3481 0 
L 2906 0 
L 2906 525 
Q 2725 213 2448 61 
Q 2172 -91 1784 -91 
Q 1150 -91 751 415 
Q 353 922 353 1747 
Q 353 2572 751 3078 
Q 1150 3584 1784 3584 
Q 2172 3584 2448 3432 
Q 2725 3281 2906 2969 
z
M 947 1747 
Q 947 1113 1208 752 
Q 1469 391 1925 391 
Q 2381 391 2643 752 
Q 2906 1113 2906 1747 
Q 2906 2381 2643 2742 
Q 2381 3103 1925 3103 
Q 1469 3103 1208 2742 
Q 947 2381 947 1747 
z
" transform="scale(0.015625)"/>
       <path id="DejaVuSans-65" d="M 3597 1894 
L 3597 1613 
L 953 1613 
Q 991 1019 1311 708 
Q 1631 397 2203 397 
Q 2534 397 2845 478 
Q 3156 559 3463 722 
L 3463 178 
Q 3153 47 2828 -22 
Q 2503 -91 2169 -91 
Q 1331 -91 842 396 
Q 353 884 353 1716 
Q 353 2575 817 3079 
Q 1281 3584 2069 3584 
Q 2775 3584 3186 3129 
Q 3597 2675 3597 1894 
z
M 3022 2063 
Q 3016 2534 2758 2815 
Q 2500 3097 2075 3097 
Q 1594 3097 1305 2825 
Q 1016 2553 972 2059 
L 3022 2063 
z
" transform="scale(0.015625)"/>
       <path id="DejaVuSans-20" transform="scale(0.015625)"/>
       <path id="DejaVuSans-70" d="M 1159 525 
L 1159 -1331 
L 581 -1331 
L 581 3500 
L 1159 3500 
L 1159 2969 
Q 1341 3281 1617 3432 
Q 1894 3584 2278 3584 
Q 2916 3584 3314 3078 
Q 3713 2572 3713 1747 
Q 3713 922 3314 415 
Q 2916 -91 2278 -91 
Q 1894 -91 1617 61 
Q 1341 213 1159 525 
z
M 3116 1747 
Q 3116 2381 2855 2742 
Q 2594 3103 2138 3103 
Q 1681 3103 1420 2742 
Q 1159 2381 1159 1747 
Q 1159 1113 1420 752 
Q 1681 391 2138 391 
Q 2594 391 2855 752 
Q 3116 1113 3116 1747 
z
" transform="scale(0.015625)"/>
       <path id="DejaVuSans-73" d="M 2834 3397 
L 2834 2853 
Q 2591 2978 2328 3040 
Q 2066 3103 1784 3103 
Q 1356 3103 1142 2972 
Q 928 2841 928 2578 
Q 928 2378 1081 2264 
Q 1234 2150 1697 2047 
L 1894 2003 
Q 2506 1872 2764 1633 
Q 3022 1394 3022 966 
Q 3022 478 2636 193 
Q 2250 -91 1575 -91 
Q 1294 -91 989 -36 
Q 684 19 347 128 
L 347 722 
Q 666 556 975 473 
Q 1284 391 1588 391 
Q 1994 391 2212 530 
Q 2431 669 2431 922 
Q 2431 1156 2273 1281 
Q 2116 1406 1581 1522 
L 1381 1569 
Q 847 1681 609 1914 
Q 372 2147 372 2553 
Q 372 3047 722 3315 
Q 1072 3584 1716 3584 
Q 2034 3584 2315 3537 
Q 2597 3491 2834 3397 
z
" transform="scale(0.015625)"/>
       <path id="DejaVuSans-69" d="M 603 3500 
L 1178 3500 
L 1178 0 
L 603 0 
L 603 3500 
z
M 603 4863 
L 1178 4863 
L 1178 4134 
L 603 4134 
L 603 4863 
z
" transform="scale(0.015625)"/>
       <path id="DejaVuSans-74" d="M 1172 4494 
L 1172 3500 
L 2356 3500 
L 2356 3053 
L 1172 3053 
L 1172 1153 
Q 1172 725 1289 603 
Q 1406 481 1766 481 
L 2356 481 
L 2356 0 
L 1766 0 
Q 1100 0 847 248 
Q 594 497 594 1153 
L 594 3053 
L 172 3053 
L 172 3500 
L 594 3500 
L 594 4494 
L 1172 4494 
z
" transform="scale(0.015625)"/>
       <path id="DejaVuSans-5b" d="M 550 4863 
L 1875 4863 
L 1875 4416 
L 1125 4416 
L 1125 -397 
L 1875 -397 
L 1875 -844 
L 550 -844 
L 550 4863 
z
" transform="scale(0.015625)"/>
       <path id="DejaVuSans-2d" d="M 313 2009 
L 1997 2009 
L 1997 1497 
L 313 1497 
L 313 2009 
z
" transform="scale(0.015625)"/>
       <path id="DejaVuSans-2c" d="M 750 794 
L 1409 794 
L 1409 256 
L 897 -744 
L 494 -744 
L 750 256 
L 750 794 
z
" transform="scale(0.015625)"/>
       <path id="DejaVuSans-5d" d="M 1947 4863 
L 1947 -844 
L 622 -844 
L 622 -397 
L 1369 -397 
L 1369 4416 
L 622 4416 
L 622 4863 
L 1947 4863 
z
" transform="scale(0.015625)"/>
      </defs>
      <use xlink:href="#DejaVuSans-6e"/>
      <use xlink:href="#DejaVuSans-6f" transform="translate(63.378906 0)"/>
      <use xlink:href="#DejaVuSans-64" transform="translate(124.560547 0)"/>
      <use xlink:href="#DejaVuSans-65" transform="translate(188.037109 0)"/>
      <use xlink:href="#DejaVuSans-20" transform="translate(249.560547 0)"/>
      <use xlink:href="#DejaVuSans-70" transform="translate(281.347656 0)"/>
      <use xlink:href="#DejaVuSans-6f" transform="translate(344.824219 0)"/>
      <use xlink:href="#DejaVuSans-73" transform="translate(406.005859 0)"/>
      <use xlink:href="#DejaVuSans-69" transform="translate(458.105469 0)"/>
      <use xlink:href="#DejaVuSans-74" transform="translate(485.888672 0)"/>
      <use xlink:href="#DejaVuSans-69" transform="translate(525.097656 0)"/>
      <use xlink:href="#DejaVuSans-6f" transform="translate(552.880859 0)"/>
      <use xlink:href="#DejaVuSans-6e" transform="translate(614.0625 0)"/>
      <use xlink:href="#DejaVuSans-20" transform="translate(677.441406 0)"/>
      <use xlink:href="#DejaVuSans-6f" transform="translate(709.228516 0)"/>
      <use xlink:href="#DejaVuSans-6e" transform="translate(770.410156 0)"/>
      <use xlink:href="#DejaVuSans-20" transform="translate(833.789062 0)"/>
      <use xlink:href="#DejaVuSans-5b" transform="translate(865.576172 0)"/>
      <use xlink:href="#DejaVuSans-2d" transform="translate(904.589844 0)"/>
      <use xlink:href="#DejaVuSans-31" transform="translate(940.673828 0)"/>
      <use xlink:href="#DejaVuSans-2c" transform="translate(1004.296875 0)"/>
      <use xlink:href="#DejaVuSans-20" transform="translate(1036.083984 0)"/>
      <use xlink:href="#DejaVuSans-31" transform="translate(1067.871094 0)"/>
      <use xlink:href="#DejaVuSans-5d" transform="translate(1131.494141 0)"/>
     </g>
    </g>
   </g>
   <g id="matplotlib.axis_2"/>
   <g id="PathCollection_1">
    <path d="M 109.636637 74.847664 
C 110.761424 74.847664 111.840293 74.400781 112.635637 73.605437 
C 113.430981 72.810093 113.877863 71.731224 113.877863 70.606437 
C 113.877863 69.481651 113.430981 68.402782 112.635637 67.607438 
C 111.840293 66.812094 110.761424 66.365211 109.636637 66.365211 
C 108.511851 66.365211 107.432982 66.812094 106.637637 67.607438 
C 105.842293 68.402782 105.395411 69.481651 105.395411 70.606437 
C 105.395411 71.731224 105.842293 72.810093 106.637637 73.605437 
C 107.432982 74.400781 108.511851 74.847664 109.636637 74.847664 
z
" clip-path="url(#p480ff9623d)" style="fill: #2a78d6; fill-opacity: 0.85; stroke: #ffffff; stroke-opacity: 0.85; stroke-width: 0.8"/>
    <path d="M 120.250456 76.992051 
C 121.943941 76.992051 123.568292 76.319223 124.765767 75.121748 
C 125.963241 73.924274 126.63607 72.299922 126.63607 70.606437 
C 126.63607 68.912953 125.963241 67.288601 124.765767 66.091127 
C 123.568292 64.893652 121.943941 64.220824 120.250456 64.220824 
C 118.556971 64.220824 116.93262 64.893652 115.735145 66.091127 
C 114.537671 67.288601 113.864842 68.912953 113.864842 70.606437 
C 113.864842 72.299922 114.537671 73.924274 115.735145 75.121748 
C 116.93262 76.319223 118.556971 76.992051 120.250456 76.992051 
z
" clip-path="url(#p480ff9623d)" style="fill: #2a78d6; fill-opacity: 0.85; stroke: #ffffff; stroke-opacity: 0.85; stroke-width: 0.8"/>
    <path d="M 138.644918 78.41912 
C 140.716865 78.41912 142.704231 77.595927 144.169319 76.130839 
C 145.634407 74.66575 146.457601 72.678385 146.457601 70.606437 
C 146.457601 68.53449 145.634407 66.547125 144.169319 65.082036 
C 142.704231 63.616948 140.716865 62.793755 138.644918 62.793755 
C 136.57297 62.793755 134.585605 63.616948 133.120517 65.082036 
C 131.655428 66.547125 130.832235 68.53449 130.832235 70.606437 
C 130.832235 72.678385 131.655428 74.66575 133.120517 76.130839 
C 134.585605 77.595927 136.57297 78.41912 138.644918 78.41912 
z
" clip-path="url(#p480ff9623d)" style="fill: #2a78d6; fill-opacity: 0.85; stroke: #ffffff; stroke-opacity: 0.85; stroke-width: 0.8"/>
    <path d="M 163.668634 79.408024 
C 166.002842 79.408024 168.241761 78.480634 169.892296 76.830099 
C 171.54283 75.179565 172.470221 72.940646 172.470221 70.606437 
C 172.470221 68.272229 171.54283 66.03331 169.892296 64.382776 
C 168.241761 62.732241 166.002842 61.804851 163.668634 61.804851 
C 161.334426 61.804851 159.095507 62.732241 157.444972 64.382776 
C 155.794438 66.03331 154.867047 68.272229 154.867047 70.606437 
C 154.867047 72.940646 155.794438 75.179565 157.444972 76.830099 
C 159.095507 78.480634 161.334426 79.408024 163.668634 79.408024 
z
" clip-path="url(#p480ff9623d)" style="fill: #2a78d6; fill-opacity: 0.85; stroke: #ffffff; stroke-opacity: 0.85; stroke-width: 0.8"/>
    <path d="M 193.74983 80.042057 
C 196.252186 80.042057 198.652388 79.047861 200.421821 77.278428 
C 202.191254 75.508996 203.18545 73.108793 203.18545 70.606437 
C 203.18545 68.104082 202.191254 65.703879 200.421821 63.934447 
C 198.652388 62.165014 196.252186 61.170818 193.74983 61.170818 
C 191.247475 61.170818 188.847272 62.165014 187.07784 63.934447 
C 185.308407 65.703879 184.314211 68.104082 184.314211 70.606437 
C 184.314211 73.108793 185.308407 75.508996 187.07784 77.278428 
C 188.847272 79.047861 191.247475 80.042057 193.74983 80.042057 
z
" clip-path="url(#p480ff9623d)" style="fill: #2a78d6; fill-opacity: 0.85; stroke: #ffffff; stroke-opacity: 0.85; stroke-width: 0.8"/>
    <path d="M 226.998537 80.353232 
C 229.583417 80.353232 232.062775 79.326248 233.890561 77.498462 
C 235.718348 75.670676 236.745331 73.191318 236.745331 70.606437 
C 236.745331 68.021557 235.718348 65.542199 233.890561 63.714413 
C 232.062775 61.886627 229.583417 60.859643 226.998537 60.859643 
C 224.413657 60.859643 221.934299 61.886627 220.106513 63.714413 
C 218.278726 65.542199 217.251743 68.021557 217.251743 70.606437 
C 217.251743 73.191318 218.278726 75.670676 220.106513 77.498462 
C 221.934299 79.326248 224.413657 80.353232 226.998537 80.353232 
z
" clip-path="url(#p480ff9623d)" style="fill: #2a78d6; fill-opacity: 0.85; stroke: #ffffff; stroke-opacity: 0.85; stroke-width: 0.8"/>
    <path d="M 261.325673 80.353232 
C 263.910554 80.353232 266.389912 79.326248 268.217698 77.498462 
C 270.045484 75.670676 271.072468 73.191318 271.072468 70.606437 
C 271.072468 68.021557 270.045484 65.542199 268.217698 63.714413 
C 266.389912 61.886627 263.910554 60.859643 261.325673 60.859643 
C 258.740793 60.859643 256.261435 61.886627 254.433649 63.714413 
C 252.605863 65.542199 251.578879 68.021557 251.578879 70.606437 
C 251.578879 73.191318 252.605863 75.670676 254.433649 77.498462 
C 256.261435 79.326248 258.740793 80.353232 261.325673 80.353232 
z
" clip-path="url(#p480ff9623d)" style="fill: #2a78d6; fill-opacity: 0.85; stroke: #ffffff; stroke-opacity: 0.85; stroke-width: 0.8"/>
    <path d="M 294.57438 80.042057 
C 297.076736 80.042057 299.476938 79.047861 301.246371 77.278428 
C 303.015804 75.508996 304.01 73.108793 304.01 70.606437 
C 304.01 68.104082 303.015804 65.703879 301.246371 63.934447 
C 299.476938 62.165014 297.076736 61.170818 294.57438 61.170818 
C 292.072025 61.170818 289.671822 62.165014 287.902389 63.934447 
C 286.132957 65.703879 285.13876 68.104082 285.13876 70.606437 
C 285.13876 73.108793 286.132957 75.508996 287.902389 77.278428 
C 289.671822 79.047861 292.072025 80.042057 294.57438 80.042057 
z
" clip-path="url(#p480ff9623d)" style="fill: #2a78d6; fill-opacity: 0.85; stroke: #ffffff; stroke-opacity: 0.85; stroke-width: 0.8"/>
    <path d="M 324.655576 79.408024 
C 326.989785 79.408024 329.228704 78.480634 330.879238 76.830099 
C 332.529772 75.179565 333.457163 72.940646 333.457163 70.606437 
C 333.457163 68.272229 332.529772 66.03331 330.879238 64.382776 
C 329.228704 62.732241 326.989785 61.804851 324.655576 61.804851 
C 322.321368 61.804851 320.082449 62.732241 318.431915 64.382776 
C 316.78138 66.03331 315.85399 68.272229 315.85399 70.606437 
C 315.85399 72.940646 316.78138 75.179565 318.431915 76.830099 
C 320.082449 78.480634 322.321368 79.408024 324.655576 79.408024 
z
" clip-path="url(#p480ff9623d)" style="fill: #2a78d6; fill-opacity: 0.85; stroke: #ffffff; stroke-opacity: 0.85; stroke-width: 0.8"/>
    <path d="M 349.679293 78.41912 
C 351.751241 78.41912 353.738606 77.595927 355.203694 76.130839 
C 356.668782 74.66575 357.491976 72.678385 357.491976 70.606437 
C 357.491976 68.53449 356.668782 66.547125 355.203694 65.082036 
C 353.738606 63.616948 351.751241 62.793755 349.679293 62.793755 
C 347.607345 62.793755 345.61998 63.616948 344.154892 65.082036 
C 342.689803 66.547125 341.86661 68.53449 341.86661 70.606437 
C 341.86661 72.678385 342.689803 74.66575 344.154892 76.130839 
C 345.61998 77.595927 347.607345 78.41912 349.679293 78.41912 
z
" clip-path="url(#p480ff9623d)" style="fill: #2a78d6; fill-opacity: 0.85; stroke: #ffffff; stroke-opacity: 0.85; stroke-width: 0.8"/>
    <path d="M 368.073755 76.992051 
C 369.767239 76.992051 371.391591 76.319223 372.589065 75.121748 
C 373.78654 73.924274 374.459368 72.299922 374.459368 70.606437 
C 374.459368 68.912953 373.78654 67.288601 372.589065 66.091127 
C 371.391591 64.893652 369.767239 64.220824 368.073755 64.220824 
C 366.38027 64.220824 364.755918 64.893652 363.558444 66.091127 
C 362.360969 67.288601 361.688141 68.912953 361.688141 70.606437 
C 361.688141 72.299922 362.360969 73.924274 363.558444 75.121748 
C 364.755918 76.319223 366.38027 76.992051 368.073755 76.992051 
z
" clip-path="url(#p480ff9623d)" style="fill: #2a78d6; fill-opacity: 0.85; stroke: #ffffff; stroke-opacity: 0.85; stroke-width: 0.8"/>
    <path d="M 378.687573 74.847664 
C 379.81236 74.847664 380.891229 74.400781 381.686573 73.605437 
C 382.481917 72.810093 382.928799 71.731224 382.928799 70.606437 
C 382.928799 69.481651 382.481917 68.402782 381.686573 67.607438 
C 380.891229 66.812094 379.81236 66.365211 378.687573 66.365211 
C 377.562787 66.365211 376.483917 66.812094 375.688573 67.607438 
C 374.893229 68.402782 374.446347 69.481651 374.446347 70.606437 
C 374.446347 71.731224 374.893229 72.810093 375.688573 73.605437 
C 376.483917 74.400781 377.562787 74.847664 378.687573 74.847664 
z
" clip-path="url(#p480ff9623d)" style="fill: #2a78d6; fill-opacity: 0.85; stroke: #ffffff; stroke-opacity: 0.85; stroke-width: 0.8"/>
   </g>
   <g id="PathCollection_2">
    <path d="M 108.281978 112.033232 
C 110.866858 112.033232 113.346216 111.006248 115.174002 109.178462 
C 117.001789 107.350676 118.028772 104.871318 118.028772 102.286437 
C 118.028772 99.701557 117.001789 97.222199 115.174002 95.394413 
C 113.346216 93.566627 110.866858 92.539643 108.281978 92.539643 
C 105.697098 92.539643 103.21774 93.566627 101.389954 95.394413 
C 99.562167 97.222199 98.535184 99.701557 98.535184 102.286437 
C 98.535184 104.871318 99.562167 107.350676 101.389954 109.178462 
C 103.21774 111.006248 105.697098 112.033232 108.281978 112.033232 
z
" clip-path="url(#p480ff9623d)" style="fill: #2a78d6; fill-opacity: 0.85; stroke: #ffffff; stroke-opacity: 0.85; stroke-width: 0.8"/>
    <path d="M 117.541984 112.033232 
C 120.126864 112.033232 122.606222 111.006248 124.434008 109.178462 
C 126.261795 107.350676 127.288778 104.871318 127.288778 102.286437 
C 127.288778 99.701557 126.261795 97.222199 124.434008 95.394413 
C 122.606222 93.566627 120.126864 92.539643 117.541984 92.539643 
C 114.957104 92.539643 112.477746 93.566627 110.64996 95.394413 
C 108.822173 97.222199 107.79519 99.701557 107.79519 102.286437 
C 107.79519 104.871318 108.822173 107.350676 110.64996 109.178462 
C 112.477746 111.006248 114.957104 112.033232 117.541984 112.033232 
z
" clip-path="url(#p480ff9623d)" style="fill: #2a78d6; fill-opacity: 0.85; stroke: #ffffff; stroke-opacity: 0.85; stroke-width: 0.8"/>
    <path d="M 135.430942 112.033232 
C 138.015822 112.033232 140.49518 111.006248 142.322967 109.178462 
C 144.150753 107.350676 145.177737 104.871318 145.177737 102.286437 
C 145.177737 99.701557 144.150753 97.222199 142.322967 95.394413 
C 140.49518 93.566627 138.015822 92.539643 135.430942 92.539643 
C 132.846062 92.539643 130.366704 93.566627 128.538918 95.394413 
C 126.711132 97.222199 125.684148 99.701557 125.684148 102.286437 
C 125.684148 104.871318 126.711132 107.350676 128.538918 109.178462 
C 130.366704 111.006248 132.846062 112.033232 135.430942 112.033232 
z
" clip-path="url(#p480ff9623d)" style="fill: #2a78d6; fill-opacity: 0.85; stroke: #ffffff; stroke-opacity: 0.85; stroke-width: 0.8"/>
    <path d="M 160.729749 112.033232 
C 163.314629 112.033232 165.793988 111.006248 167.621774 109.178462 
C 169.44956 107.350676 170.476544 104.871318 170.476544 102.286437 
C 170.476544 99.701557 169.44956 97.222199 167.621774 95.394413 
C 165.793988 93.566627 163.314629 92.539643 160.729749 92.539643 
C 158.144869 92.539643 155.665511 93.566627 153.837725 95.394413 
C 152.009939 97.222199 150.982955 99.701557 150.982955 102.286437 
C 150.982955 104.871318 152.009939 107.350676 153.837725 109.178462 
C 155.665511 111.006248 158.144869 112.033232 160.729749 112.033232 
z
" clip-path="url(#p480ff9623d)" style="fill: #2a78d6; fill-opacity: 0.85; stroke: #ffffff; stroke-opacity: 0.85; stroke-width: 0.8"/>
    <path d="M 191.714334 112.033232 
C 194.299214 112.033232 196.778572 111.006248 198.606358 109.178462 
C 200.434144 107.350676 201.461128 104.871318 201.461128 102.286437 
C 201.461128 99.701557 200.434144 97.222199 198.606358 95.394413 
C 196.778572 93.566627 194.299214 92.539643 191.714334 92.539643 
C 189.129454 92.539643 186.650096 93.566627 184.822309 95.394413 
C 182.994523 97.222199 181.967539 99.701557 181.967539 102.286437 
C 181.967539 104.871318 182.994523 107.350676 184.822309 109.178462 
C 186.650096 111.006248 189.129454 112.033232 191.714334 112.033232 
z
" clip-path="url(#p480ff9623d)" style="fill: #2a78d6; fill-opacity: 0.85; stroke: #ffffff; stroke-opacity: 0.85; stroke-width: 0.8"/>
    <path d="M 226.273147 112.033232 
C 228.858027 112.033232 231.337385 111.006248 233.165172 109.178462 
C 234.992958 107.350676 236.019941 104.871318 236.019941 102.286437 
C 236.019941 99.701557 234.992958 97.222199 233.165172 95.394413 
C 231.337385 93.566627 228.858027 92.539643 226.273147 92.539643 
C 223.688267 92.539643 221.208909 93.566627 219.381123 95.394413 
C 217.553337 97.222199 216.526353 99.701557 216.526353 102.286437 
C 216.526353 104.871318 217.553337 107.350676 219.381123 109.178462 
C 221.208909 111.006248 223.688267 112.033232 226.273147 112.033232 
z
" clip-path="url(#p480ff9623d)" style="fill: #2a78d6; fill-opacity: 0.85; stroke: #ffffff; stroke-opacity: 0.85; stroke-width: 0.8"/>
    <path d="M 262.051063 112.033232 
C 264.635943 112.033232 267.115302 111.006248 268.943088 109.178462 
C 270.770874 107.350676 271.797858 104.871318 271.797858 102.286437 
C 271.797858 99.701557 270.770874 97.222199 268.943088 95.394413 
C 267.115302 93.566627 264.635943 92.539643 262.051063 92.539643 
C 259.466183 92.539643 256.986825 93.566627 255.159039 95.394413 
C 253.331253 97.222199 252.304269 99.701557 252.304269 102.286437 
C 252.304269 104.871318 253.331253 107.350676 255.159039 109.178462 
C 256.986825 111.006248 259.466183 112.033232 262.051063 112.033232 
z
" clip-path="url(#p480ff9623d)" style="fill: #2a78d6; fill-opacity: 0.85; stroke: #ffffff; stroke-opacity: 0.85; stroke-width: 0.8"/>
    <path d="M 296.609877 112.033232 
C 299.194757 112.033232 301.674115 111.006248 303.501901 109.178462 
C 305.329687 107.350676 306.356671 104.871318 306.356671 102.286437 
C 306.356671 99.701557 305.329687 97.222199 303.501901 95.394413 
C 301.674115 93.566627 299.194757 92.539643 296.609877 92.539643 
C 294.024997 92.539643 291.545639 93.566627 289.717852 95.394413 
C 287.890066 97.222199 286.863082 99.701557 286.863082 102.286437 
C 286.863082 104.871318 287.890066 107.350676 289.717852 109.178462 
C 291.545639 111.006248 294.024997 112.033232 296.609877 112.033232 
z
" clip-path="url(#p480ff9623d)" style="fill: #2a78d6; fill-opacity: 0.85; stroke: #ffffff; stroke-opacity: 0.85; stroke-width: 0.8"/>
    <path d="M 327.594461 112.033232 
C 330.179341 112.033232 332.658699 111.006248 334.486485 109.178462 
C 336.314272 107.350676 337.341255 104.871318 337.341255 102.286437 
C 337.341255 99.701557 336.314272 97.222199 334.486485 95.394413 
C 332.658699 93.566627 330.179341 92.539643 327.594461 92.539643 
C 325.009581 92.539643 322.530223 93.566627 320.702437 95.394413 
C 318.874651 97.222199 317.847667 99.701557 317.847667 102.286437 
C 317.847667 104.871318 318.874651 107.350676 320.702437 109.178462 
C 322.530223 111.006248 325.009581 112.033232 327.594461 112.033232 
z
" clip-path="url(#p480ff9623d)" style="fill: #2a78d6; fill-opacity: 0.85; stroke: #ffffff; stroke-opacity: 0.85; stroke-width: 0.8"/>
    <path d="M 352.893268 112.033232 
C 355.478148 112.033232 357.957506 111.006248 359.785293 109.178462 
C 361.613079 107.350676 362.640063 104.871318 362.640063 102.286437 
C 362.640063 99.701557 361.613079 97.222199 359.785293 95.394413 
C 357.957506 93.566627 355.478148 92.539643 352.893268 92.539643 
C 350.308388 92.539643 347.82903 93.566627 346.001244 95.394413 
C 344.173458 97.222199 343.146474 99.701557 343.146474 102.286437 
C 343.146474 104.871318 344.173458 107.350676 346.001244 109.178462 
C 347.82903 111.006248 350.308388 112.033232 352.893268 112.033232 
z
" clip-path="url(#p480ff9623d)" style="fill: #2a78d6; fill-opacity: 0.85; stroke: #ffffff; stroke-opacity: 0.85; stroke-width: 0.8"/>
    <path d="M 370.782226 112.033232 
C 373.367107 112.033232 375.846465 111.006248 377.674251 109.178462 
C 379.502037 107.350676 380.529021 104.871318 380.529021 102.286437 
C 380.529021 99.701557 379.502037 97.222199 377.674251 95.394413 
C 375.846465 93.566627 373.367107 92.539643 370.782226 92.539643 
C 368.197346 92.539643 365.717988 93.566627 363.890202 95.394413 
C 362.062416 97.222199 361.035432 99.701557 361.035432 102.286437 
C 361.035432 104.871318 362.062416 107.350676 363.890202 109.178462 
C 365.717988 111.006248 368.197346 112.033232 370.782226 112.033232 
z
" clip-path="url(#p480ff9623d)" style="fill: #2a78d6; fill-opacity: 0.85; stroke: #ffffff; stroke-opacity: 0.85; stroke-width: 0.8"/>
    <path d="M 380.042233 112.033232 
C 382.627113 112.033232 385.106471 111.006248 386.934257 109.178462 
C 388.762043 107.350676 389.789027 104.871318 389.789027 102.286437 
C 389.789027 99.701557 388.762043 97.222199 386.934257 95.394413 
C 385.106471 93.566627 382.627113 92.539643 380.042233 92.539643 
C 377.457353 92.539643 374.977994 93.566627 373.150208 95.394413 
C 371.322422 97.222199 370.295438 99.701557 370.295438 102.286437 
C 370.295438 104.871318 371.322422 107.350676 373.150208 109.178462 
C 374.977994 111.006248 377.457353 112.033232 380.042233 112.033232 
z
" clip-path="url(#p480ff9623d)" style="fill: #2a78d6; fill-opacity: 0.85; stroke: #ffffff; stroke-opacity: 0.85; stroke-width: 0.8"/>
   </g>
   <g id="PathCollection_3">
    <path d="M 107.109474 136.269367 
C 107.720218 136.269367 108.30603 136.026716 108.737891 135.594855 
C 109.169752 135.162994 109.412404 134.577182 109.412404 133.966437 
C 109.412404 133.355693 109.169752 132.769881 108.737891 132.33802 
C 108.30603 131.906159 107.720218 131.663508 107.109474 131.663508 
C 106.49873 131.663508 105.912918 131.906159 105.481056 132.33802 
C 105.049195 132.769881 104.806544 133.355693 104.806544 133.966437 
C 104.806544 134.577182 105.049195 135.162994 105.481056 135.594855 
C 105.912918 136.026716 106.49873 136.269367 107.109474 136.269367 
z
" clip-path="url(#p480ff9623d)" style="fill: #2a78d6; fill-opacity: 0.85; stroke: #ffffff; stroke-opacity: 0.85; stroke-width: 0.8"/>
    <path d="M 114.661173 139.631448 
C 116.163552 139.631448 117.604599 139.034546 118.66694 137.972205 
C 119.729282 136.909863 120.326184 135.468816 120.326184 133.966437 
C 120.326184 132.464059 119.729282 131.023012 118.66694 129.96067 
C 117.604599 128.898329 116.163552 128.301427 114.661173 128.301427 
C 113.158795 128.301427 111.717748 128.898329 110.655406 129.96067 
C 109.593065 131.023012 108.996163 132.464059 108.996163 133.966437 
C 108.996163 135.468816 109.593065 136.909863 110.655406 137.972205 
C 111.717748 139.034546 113.158795 139.631448 114.661173 139.631448 
z
" clip-path="url(#p480ff9623d)" style="fill: #2a78d6; fill-opacity: 0.85; stroke: #ffffff; stroke-opacity: 0.85; stroke-width: 0.8"/>
    <path d="M 131.877718 141.402559 
C 133.849801 141.402559 135.741377 140.619042 137.13585 139.224569 
C 138.530323 137.830096 139.31384 135.93852 139.31384 133.966437 
C 139.31384 131.994355 138.530323 130.102779 137.13585 128.708306 
C 135.741377 127.313833 133.849801 126.530316 131.877718 126.530316 
C 129.905636 126.530316 128.014059 127.313833 126.619586 128.708306 
C 125.225114 130.102779 124.441597 131.994355 124.441597 133.966437 
C 124.441597 135.93852 125.225114 137.830096 126.619586 139.224569 
C 128.014059 140.619042 129.905636 141.402559 131.877718 141.402559 
z
" clip-path="url(#p480ff9623d)" style="fill: #2a78d6; fill-opacity: 0.85; stroke: #ffffff; stroke-opacity: 0.85; stroke-width: 0.8"/>
    <path d="M 157.424763 142.591073 
C 159.712043 142.591073 161.90595 141.682327 163.523301 140.064976 
C 165.140653 138.447625 166.049399 136.253718 166.049399 133.966437 
C 166.049399 131.679157 165.140653 129.48525 163.523301 127.867899 
C 161.90595 126.250548 159.712043 125.341802 157.424763 125.341802 
C 155.137483 125.341802 152.943576 126.250548 151.326225 127.867899 
C 149.708873 129.48525 148.800127 131.679157 148.800127 133.966437 
C 148.800127 136.253718 149.708873 138.447625 151.326225 140.064976 
C 152.943576 141.682327 155.137483 142.591073 157.424763 142.591073 
z
" clip-path="url(#p480ff9623d)" style="fill: #2a78d6; fill-opacity: 0.85; stroke: #ffffff; stroke-opacity: 0.85; stroke-width: 0.8"/>
    <path d="M 189.405338 143.344818 
C 191.892514 143.344818 194.278156 142.356653 196.036855 140.597954 
C 197.795554 138.839255 198.783719 136.453613 198.783719 133.966437 
C 198.783719 131.479262 197.795554 129.09362 196.036855 127.334921 
C 194.278156 125.576222 191.892514 124.588057 189.405338 124.588057 
C 186.918163 124.588057 184.532521 125.576222 182.773822 127.334921 
C 181.015123 129.09362 180.026958 131.479262 180.026958 133.966437 
C 180.026958 136.453613 181.015123 138.839255 182.773822 140.597954 
C 184.532521 142.356653 186.918163 143.344818 189.405338 143.344818 
z
" clip-path="url(#p480ff9623d)" style="fill: #2a78d6; fill-opacity: 0.85; stroke: #ffffff; stroke-opacity: 0.85; stroke-width: 0.8"/>
    <path d="M 225.447166 143.713232 
C 228.032047 143.713232 230.511405 142.686248 232.339191 140.858462 
C 234.166977 139.030676 235.193961 136.551318 235.193961 133.966437 
C 235.193961 131.381557 234.166977 128.902199 232.339191 127.074413 
C 230.511405 125.246627 228.032047 124.219643 225.447166 124.219643 
C 222.862286 124.219643 220.382928 125.246627 218.555142 127.074413 
C 216.727356 128.902199 215.700372 131.381557 215.700372 133.966437 
C 215.700372 136.551318 216.727356 139.030676 218.555142 140.858462 
C 220.382928 142.686248 222.862286 143.713232 225.447166 143.713232 
z
" clip-path="url(#p480ff9623d)" style="fill: #2a78d6; fill-opacity: 0.85; stroke: #ffffff; stroke-opacity: 0.85; stroke-width: 0.8"/>
    <path d="M 262.877044 143.713232 
C 265.461924 143.713232 267.941282 142.686248 269.769068 140.858462 
C 271.596855 139.030676 272.623838 136.551318 272.623838 133.966437 
C 272.623838 131.381557 271.596855 128.902199 269.769068 127.074413 
C 267.941282 125.246627 265.461924 124.219643 262.877044 124.219643 
C 260.292164 124.219643 257.812806 125.246627 255.98502 127.074413 
C 254.157233 128.902199 253.13025 131.381557 253.13025 133.966437 
C 253.13025 136.551318 254.157233 139.030676 255.98502 140.858462 
C 257.812806 142.686248 260.292164 143.713232 262.877044 143.713232 
z
" clip-path="url(#p480ff9623d)" style="fill: #2a78d6; fill-opacity: 0.85; stroke: #ffffff; stroke-opacity: 0.85; stroke-width: 0.8"/>
    <path d="M 298.918872 143.344818 
C 301.406048 143.344818 303.79169 142.356653 305.550389 140.597954 
C 307.309087 138.839255 308.297253 136.453613 308.297253 133.966437 
C 308.297253 131.479262 307.309087 129.09362 305.550389 127.334921 
C 303.79169 125.576222 301.406048 124.588057 298.918872 124.588057 
C 296.431697 124.588057 294.046054 125.576222 292.287356 127.334921 
C 290.528657 129.09362 289.540492 131.479262 289.540492 133.966437 
C 289.540492 136.453613 290.528657 138.839255 292.287356 140.597954 
C 294.046054 142.356653 296.431697 143.344818 298.918872 143.344818 
z
" clip-path="url(#p480ff9623d)" style="fill: #2a78d6; fill-opacity: 0.85; stroke: #ffffff; stroke-opacity: 0.85; stroke-width: 0.8"/>
    <path d="M 330.899447 142.591073 
C 333.186728 142.591073 335.380635 141.682327 336.997986 140.064976 
C 338.615337 138.447625 339.524083 136.253718 339.524083 133.966437 
C 339.524083 131.679157 338.615337 129.48525 336.997986 127.867899 
C 335.380635 126.250548 333.186728 125.341802 330.899447 125.341802 
C 328.612167 125.341802 326.41826 126.250548 324.800909 127.867899 
C 323.183558 129.48525 322.274812 131.679157 322.274812 133.966437 
C 322.274812 136.253718 323.183558 138.447625 324.800909 140.064976 
C 326.41826 141.682327 328.612167 142.591073 330.899447 142.591073 
z
" clip-path="url(#p480ff9623d)" style="fill: #2a78d6; fill-opacity: 0.85; stroke: #ffffff; stroke-opacity: 0.85; stroke-width: 0.8"/>
    <path d="M 356.446492 141.402559 
C 358.418575 141.402559 360.310151 140.619042 361.704624 139.224569 
C 363.099097 137.830096 363.882614 135.93852 363.882614 133.966437 
C 363.882614 131.994355 363.099097 130.102779 361.704624 128.708306 
C 360.310151 127.313833 358.418575 126.530316 356.446492 126.530316 
C 354.47441 126.530316 352.582833 127.313833 351.188361 128.708306 
C 349.793888 130.102779 349.010371 131.994355 349.010371 133.966437 
C 349.010371 135.93852 349.793888 137.830096 351.188361 139.224569 
C 352.582833 140.619042 354.47441 141.402559 356.446492 141.402559 
z
" clip-path="url(#p480ff9623d)" style="fill: #2a78d6; fill-opacity: 0.85; stroke: #ffffff; stroke-opacity: 0.85; stroke-width: 0.8"/>
    <path d="M 373.663037 139.631448 
C 375.165415 139.631448 376.606462 139.034546 377.668804 137.972205 
C 378.731146 136.909863 379.328047 135.468816 379.328047 133.966437 
C 379.328047 132.464059 378.731146 131.023012 377.668804 129.96067 
C 376.606462 128.898329 375.165415 128.301427 373.663037 128.301427 
C 372.160659 128.301427 370.719612 128.898329 369.65727 129.96067 
C 368.594928 131.023012 367.998027 132.464059 367.998027 133.966437 
C 367.998027 135.468816 368.594928 136.909863 369.65727 137.972205 
C 370.719612 139.034546 372.160659 139.631448 373.663037 139.631448 
z
" clip-path="url(#p480ff9623d)" style="fill: #2a78d6; fill-opacity: 0.85; stroke: #ffffff; stroke-opacity: 0.85; stroke-width: 0.8"/>
    <path d="M 381.214737 136.269367 
C 381.825481 136.269367 382.411293 136.026716 382.843154 135.594855 
C 383.275016 135.162994 383.517667 134.577182 383.517667 133.966437 
C 383.517667 133.355693 383.275016 132.769881 382.843154 132.33802 
C 382.411293 131.906159 381.825481 131.663508 381.214737 131.663508 
C 380.603993 131.663508 380.018181 131.906159 379.586319 132.33802 
C 379.154458 132.769881 378.911807 133.355693 378.911807 133.966437 
C 378.911807 134.577182 379.154458 135.162994 379.586319 135.594855 
C 380.018181 136.026716 380.603993 136.269367 381.214737 136.269367 
z
" clip-path="url(#p480ff9623d)" style="fill: #2a78d6; fill-opacity: 0.85; stroke: #ffffff; stroke-opacity: 0.85; stroke-width: 0.8"/>
   </g>
   <g id="PathCollection_4">
    <path d="M 107.109474 167.892843 
C 107.705227 167.892843 108.276661 167.656148 108.697923 167.234886 
C 109.119184 166.813625 109.35588 166.242191 109.35588 165.646437 
C 109.35588 165.050684 109.119184 164.47925 108.697923 164.057989 
C 108.276661 163.636727 107.705227 163.400032 107.109474 163.400032 
C 106.51372 163.400032 105.942286 163.636727 105.521025 164.057989 
C 105.099763 164.47925 104.863068 165.050684 104.863068 165.646437 
C 104.863068 166.242191 105.099763 166.813625 105.521025 167.234886 
C 105.942286 167.656148 106.51372 167.892843 107.109474 167.892843 
z
" clip-path="url(#p480ff9623d)" style="fill: #2a78d6; fill-opacity: 0.85; stroke: #ffffff; stroke-opacity: 0.85; stroke-width: 0.8"/>
    <path d="M 114.037106 171.17661 
C 115.503725 171.17661 116.910472 170.593916 117.947528 169.55686 
C 118.984584 168.519804 119.567278 167.113056 119.567278 165.646437 
C 119.567278 164.179819 118.984584 162.773071 117.947528 161.736015 
C 116.910472 160.698959 115.503725 160.116265 114.037106 160.116265 
C 112.570487 160.116265 111.16374 160.698959 110.126684 161.736015 
C 109.089628 162.773071 108.506934 164.179819 108.506934 165.646437 
C 108.506934 167.113056 109.089628 168.519804 110.126684 169.55686 
C 111.16374 170.593916 112.570487 171.17661 114.037106 171.17661 
z
" clip-path="url(#p480ff9623d)" style="fill: #2a78d6; fill-opacity: 0.85; stroke: #ffffff; stroke-opacity: 0.85; stroke-width: 0.8"/>
    <path d="M 129.871617 172.918891 
C 131.800294 172.918891 133.650238 172.15262 135.014018 170.788839 
C 136.377799 169.425058 137.144071 167.575115 137.144071 165.646437 
C 137.144071 163.71776 136.377799 161.867817 135.014018 160.504036 
C 133.650238 159.140255 131.800294 158.373984 129.871617 158.373984 
C 127.94294 158.373984 126.092996 159.140255 124.729216 160.504036 
C 123.365435 161.867817 122.599163 163.71776 122.599163 165.646437 
C 122.599163 167.575115 123.365435 169.425058 124.729216 170.788839 
C 126.092996 172.15262 127.94294 172.918891 129.871617 172.918891 
z
" clip-path="url(#p480ff9623d)" style="fill: #2a78d6; fill-opacity: 0.85; stroke: #ffffff; stroke-opacity: 0.85; stroke-width: 0.8"/>
    <path d="M 153.481259 174.106742 
C 155.724958 174.106742 157.877063 173.215311 159.463597 171.628776 
C 161.050132 170.042241 161.941563 167.890136 161.941563 165.646437 
C 161.941563 163.402739 161.050132 161.250634 159.463597 159.664099 
C 157.877063 158.077564 155.724958 157.186133 153.481259 157.186133 
C 151.23756 157.186133 149.085455 158.077564 147.498921 159.664099 
C 145.912386 161.250634 145.020955 163.402739 145.020955 165.646437 
C 145.020955 167.890136 145.912386 170.042241 147.498921 171.628776 
C 149.085455 173.215311 151.23756 174.106742 153.481259 174.106742 
z
" clip-path="url(#p480ff9623d)" style="fill: #2a78d6; fill-opacity: 0.85; stroke: #ffffff; stroke-opacity: 0.85; stroke-width: 0.8"/>
    <path d="M 183.255015 174.886848 
C 185.705601 174.886848 188.056147 173.91322 189.788973 172.180395 
C 191.521798 170.447569 192.495426 168.097023 192.495426 165.646437 
C 192.495426 163.195852 191.521798 160.845306 189.788973 159.11248 
C 188.056147 157.379655 185.705601 156.406027 183.255015 156.406027 
C 180.80443 156.406027 178.453884 157.379655 176.721058 159.11248 
C 174.988232 160.845306 174.014605 163.195852 174.014605 165.646437 
C 174.014605 168.097023 174.988232 170.447569 176.721058 172.180395 
C 178.453884 173.91322 180.80443 174.886848 183.255015 174.886848 
z
" clip-path="url(#p480ff9623d)" style="fill: #2a78d6; fill-opacity: 0.85; stroke: #ffffff; stroke-opacity: 0.85; stroke-width: 0.8"/>
    <path d="M 217.163482 175.309476 
C 219.72615 175.309476 222.184203 174.291317 223.996283 172.479238 
C 225.808362 170.667158 226.826521 168.209105 226.826521 165.646437 
C 226.826521 163.08377 225.808362 160.625717 223.996283 158.813637 
C 222.184203 157.001558 219.72615 155.983399 217.163482 155.983399 
C 214.600815 155.983399 212.142762 157.001558 210.330682 158.813637 
C 208.518603 160.625717 207.500444 163.08377 207.500444 165.646437 
C 207.500444 168.209105 208.518603 170.667158 210.330682 172.479238 
C 212.142762 174.291317 214.600815 175.309476 217.163482 175.309476 
z
" clip-path="url(#p480ff9623d)" style="fill: #2a78d6; fill-opacity: 0.85; stroke: #ffffff; stroke-opacity: 0.85; stroke-width: 0.8"/>
    <path d="M 252.895753 175.393232 
C 255.480633 175.393232 257.959991 174.366248 259.787778 172.538462 
C 261.615564 170.710676 262.642548 168.231318 262.642548 165.646437 
C 262.642548 163.061557 261.615564 160.582199 259.787778 158.754413 
C 257.959991 156.926627 255.480633 155.899643 252.895753 155.899643 
C 250.310873 155.899643 247.831515 156.926627 246.003729 158.754413 
C 244.175943 160.582199 243.148959 163.061557 243.148959 165.646437 
C 243.148959 168.231318 244.175943 170.710676 246.003729 172.538462 
C 247.831515 174.366248 250.310873 175.393232 252.895753 175.393232 
z
" clip-path="url(#p480ff9623d)" style="fill: #2a78d6; fill-opacity: 0.85; stroke: #ffffff; stroke-opacity: 0.85; stroke-width: 0.8"/>
    <path d="M 288.016711 175.141257 
C 290.534767 175.141257 292.950028 174.140823 294.730563 172.360289 
C 296.511097 170.579755 297.511531 168.164493 297.511531 165.646437 
C 297.511531 163.128382 296.511097 160.71312 294.730563 158.932586 
C 292.950028 157.152052 290.534767 156.151618 288.016711 156.151618 
C 285.498656 156.151618 283.083394 157.152052 281.30286 158.932586 
C 279.522326 160.71312 278.521891 163.128382 278.521891 165.646437 
C 278.521891 168.164493 279.522326 170.579755 281.30286 172.360289 
C 283.083394 174.140823 285.498656 175.141257 288.016711 175.141257 
z
" clip-path="url(#p480ff9623d)" style="fill: #2a78d6; fill-opacity: 0.85; stroke: #ffffff; stroke-opacity: 0.85; stroke-width: 0.8"/>
    <path d="M 320.132954 174.543611 
C 322.492512 174.543611 324.755746 173.606149 326.424206 171.937689 
C 328.092665 170.26923 329.030127 168.005996 329.030127 165.646437 
C 329.030127 163.286879 328.092665 161.023645 326.424206 159.355186 
C 324.755746 157.686726 322.492512 156.749264 320.132954 156.749264 
C 317.773396 156.749264 315.510161 157.686726 313.841702 159.355186 
C 312.173242 161.023645 311.23578 163.286879 311.23578 165.646437 
C 311.23578 168.005996 312.173242 170.26923 313.841702 171.937689 
C 315.510161 173.606149 317.773396 174.543611 320.132954 174.543611 
z
" clip-path="url(#p480ff9623d)" style="fill: #2a78d6; fill-opacity: 0.85; stroke: #ffffff; stroke-opacity: 0.85; stroke-width: 0.8"/>
    <path d="M 347.055951 173.569434 
C 349.157154 173.569434 351.172581 172.734617 352.658356 171.248842 
C 354.144131 169.763067 354.978947 167.747641 354.978947 165.646437 
C 354.978947 163.545234 354.144131 161.529808 352.658356 160.044033 
C 351.172581 158.558258 349.157154 157.723441 347.055951 157.723441 
C 344.954748 157.723441 342.939322 158.558258 341.453547 160.044033 
C 339.967772 161.529808 339.132955 163.545234 339.132955 165.646437 
C 339.132955 167.747641 339.967772 169.763067 341.453547 171.248842 
C 342.939322 172.734617 344.954748 173.569434 347.055951 173.569434 
z
" clip-path="url(#p480ff9623d)" style="fill: #2a78d6; fill-opacity: 0.85; stroke: #ffffff; stroke-opacity: 0.85; stroke-width: 0.8"/>
    <path d="M 366.951546 172.135922 
C 368.672577 172.135922 370.323351 171.452149 371.540304 170.235196 
C 372.757257 169.018243 373.44103 167.367469 373.44103 165.646437 
C 373.44103 163.925406 372.757257 162.274632 371.540304 161.057679 
C 370.323351 159.840726 368.672577 159.156953 366.951546 159.156953 
C 365.230514 159.156953 363.57974 159.840726 362.362787 161.057679 
C 361.145834 162.274632 360.462061 163.925406 360.462061 165.646437 
C 360.462061 167.367469 361.145834 169.018243 362.362787 170.235196 
C 363.57974 171.452149 365.230514 172.135922 366.951546 172.135922 
z
" clip-path="url(#p480ff9623d)" style="fill: #2a78d6; fill-opacity: 0.85; stroke: #ffffff; stroke-opacity: 0.85; stroke-width: 0.8"/>
    <path d="M 378.468673 169.961562 
C 379.613058 169.961562 380.710725 169.506893 381.519927 168.697691 
C 382.329129 167.888489 382.783798 166.790822 382.783798 165.646437 
C 382.783798 164.502053 382.329129 163.404386 381.519927 162.595184 
C 380.710725 161.785982 379.613058 161.331313 378.468673 161.331313 
C 377.324289 161.331313 376.226621 161.785982 375.417419 162.595184 
C 374.608217 163.404386 374.153549 164.502053 374.153549 165.646437 
C 374.153549 166.790822 374.608217 167.888489 375.417419 168.697691 
C 376.226621 169.506893 377.324289 169.961562 378.468673 169.961562 
z
" clip-path="url(#p480ff9623d)" style="fill: #2a78d6; fill-opacity: 0.85; stroke: #ffffff; stroke-opacity: 0.85; stroke-width: 0.8"/>
   </g>
   <g id="PathCollection_5">
    <path d="M 107.109474 207.073232 
C 109.694354 207.073232 112.173712 206.046248 114.001498 204.218462 
C 115.829284 202.390676 116.856268 199.911318 116.856268 197.326437 
C 116.856268 194.741557 115.829284 192.262199 114.001498 190.434413 
C 112.173712 188.606627 109.694354 187.579643 107.109474 187.579643 
C 104.524594 187.579643 102.045236 188.606627 100.217449 190.434413 
C 98.389663 192.262199 97.362679 194.741557 97.362679 197.326437 
C 97.362679 199.911318 98.389663 202.390676 100.217449 204.218462 
C 102.045236 206.046248 104.524594 207.073232 107.109474 207.073232 
z
" clip-path="url(#p480ff9623d)" style="fill: #898781; fill-opacity: 0.85; stroke: #ffffff; stroke-opacity: 0.85; stroke-width: 0.8"/>
    <path d="M 132.028134 207.073232 
C 134.613014 207.073232 137.092372 206.046248 138.920158 204.218462 
C 140.747945 202.390676 141.774928 199.911318 141.774928 197.326437 
C 141.774928 194.741557 140.747945 192.262199 138.920158 190.434413 
C 137.092372 188.606627 134.613014 187.579643 132.028134 187.579643 
C 129.443254 187.579643 126.963896 188.606627 125.13611 190.434413 
C 123.308323 192.262199 122.28134 194.741557 122.28134 197.326437 
C 122.28134 199.911318 123.308323 202.390676 125.13611 204.218462 
C 126.963896 206.046248 129.443254 207.073232 132.028134 207.073232 
z
" clip-path="url(#p480ff9623d)" style="fill: #898781; fill-opacity: 0.85; stroke: #ffffff; stroke-opacity: 0.85; stroke-width: 0.8"/>
    <path d="M 156.946794 207.073232 
C 159.531674 207.073232 162.011032 206.046248 163.838819 204.218462 
C 165.666605 202.390676 166.693589 199.911318 166.693589 197.326437 
C 166.693589 194.741557 165.666605 192.262199 163.838819 190.434413 
C 162.011032 188.606627 159.531674 187.579643 156.946794 187.579643 
C 154.361914 187.579643 151.882556 188.606627 150.05477 190.434413 
C 148.226984 192.262199 147.2 194.741557 147.2 197.326437 
C 147.2 199.911318 148.226984 202.390676 150.05477 204.218462 
C 151.882556 206.046248 154.361914 207.073232 156.946794 207.073232 
z
" clip-path="url(#p480ff9623d)" style="fill: #898781; fill-opacity: 0.85; stroke: #ffffff; stroke-opacity: 0.85; stroke-width: 0.8"/>
    <path d="M 181.865455 207.073232 
C 184.450335 207.073232 186.929693 206.046248 188.757479 204.218462 
C 190.585265 202.390676 191.612249 199.911318 191.612249 197.326437 
C 191.612249 194.741557 190.585265 192.262199 188.757479 190.434413 
C 186.929693 188.606627 184.450335 187.579643 181.865455 187.579643 
C 179.280574 187.579643 176.801216 188.606627 174.97343 190.434413 
C 173.145644 192.262199 172.11866 194.741557 172.11866 197.326437 
C 172.11866 199.911318 173.145644 202.390676 174.97343 204.218462 
C 176.801216 206.046248 179.280574 207.073232 181.865455 207.073232 
z
" clip-path="url(#p480ff9623d)" style="fill: #898781; fill-opacity: 0.85; stroke: #ffffff; stroke-opacity: 0.85; stroke-width: 0.8"/>
    <path d="M 206.784115 207.073232 
C 209.368995 207.073232 211.848353 206.046248 213.676139 204.218462 
C 215.503925 202.390676 216.530909 199.911318 216.530909 197.326437 
C 216.530909 194.741557 215.503925 192.262199 213.676139 190.434413 
C 211.848353 188.606627 209.368995 187.579643 206.784115 187.579643 
C 204.199235 187.579643 201.719877 188.606627 199.89209 190.434413 
C 198.064304 192.262199 197.03732 194.741557 197.03732 197.326437 
C 197.03732 199.911318 198.064304 202.390676 199.89209 204.218462 
C 201.719877 206.046248 204.199235 207.073232 206.784115 207.073232 
z
" clip-path="url(#p480ff9623d)" style="fill: #898781; fill-opacity: 0.85; stroke: #ffffff; stroke-opacity: 0.85; stroke-width: 0.8"/>
    <path d="M 231.702775 207.073232 
C 234.287655 207.073232 236.767013 206.046248 238.594799 204.218462 
C 240.422586 202.390676 241.449569 199.911318 241.449569 197.326437 
C 241.449569 194.741557 240.422586 192.262199 238.594799 190.434413 
C 236.767013 188.606627 234.287655 187.579643 231.702775 187.579643 
C 229.117895 187.579643 226.638537 188.606627 224.810751 190.434413 
C 222.982965 192.262199 221.955981 194.741557 221.955981 197.326437 
C 221.955981 199.911318 222.982965 202.390676 224.810751 204.218462 
C 226.638537 206.046248 229.117895 207.073232 231.702775 207.073232 
z
" clip-path="url(#p480ff9623d)" style="fill: #898781; fill-opacity: 0.85; stroke: #ffffff; stroke-opacity: 0.85; stroke-width: 0.8"/>
    <path d="M 256.621435 207.073232 
C 259.206315 207.073232 261.685674 206.046248 263.51346 204.218462 
C 265.341246 202.390676 266.36823 199.911318 266.36823 197.326437 
C 266.36823 194.741557 265.341246 192.262199 263.51346 190.434413 
C 261.685674 188.606627 259.206315 187.579643 256.621435 187.579643 
C 254.036555 187.579643 251.557197 188.606627 249.729411 190.434413 
C 247.901625 192.262199 246.874641 194.741557 246.874641 197.326437 
C 246.874641 199.911318 247.901625 202.390676 249.729411 204.218462 
C 251.557197 206.046248 254.036555 207.073232 256.621435 207.073232 
z
" clip-path="url(#p480ff9623d)" style="fill: #898781; fill-opacity: 0.85; stroke: #ffffff; stroke-opacity: 0.85; stroke-width: 0.8"/>
    <path d="M 281.540096 207.073232 
C 284.124976 207.073232 286.604334 206.046248 288.43212 204.218462 
C 290.259906 202.390676 291.28689 199.911318 291.28689 197.326437 
C 291.28689 194.741557 290.259906 192.262199 288.43212 190.434413 
C 286.604334 188.606627 284.124976 187.579643 281.540096 187.579643 
C 278.955216 187.579643 276.475858 188.606627 274.648071 190.434413 
C 272.820285 192.262199 271.793301 194.741557 271.793301 197.326437 
C 271.793301 199.911318 272.820285 202.390676 274.648071 204.218462 
C 276.475858 206.046248 278.955216 207.073232 281.540096 207.073232 
z
" clip-path="url(#p480ff9623d)" style="fill: #898781; fill-opacity: 0.85; stroke: #ffffff; stroke-opacity: 0.85; stroke-width: 0.8"/>
    <path d="M 306.458756 207.073232 
C 309.043636 207.073232 311.522994 206.046248 313.35078 204.218462 
C 315.178567 202.390676 316.20555 199.911318 316.20555 197.326437 
C 316.20555 194.741557 315.178567 192.262199 313.35078 190.434413 
C 311.522994 188.606627 309.043636 187.579643 306.458756 187.579643 
C 303.873876 187.579643 301.394518 188.606627 299.566732 190.434413 
C 297.738945 192.262199 296.711962 194.741557 296.711962 197.326437 
C 296.711962 199.911318 297.738945 202.390676 299.566732 204.218462 
C 301.394518 206.046248 303.873876 207.073232 306.458756 207.073232 
z
" clip-path="url(#p480ff9623d)" style="fill: #898781; fill-opacity: 0.85; stroke: #ffffff; stroke-opacity: 0.85; stroke-width: 0.8"/>
    <path d="M 331.377416 207.073232 
C 333.962296 207.073232 336.441654 206.046248 338.269441 204.218462 
C 340.097227 202.390676 341.124211 199.911318 341.124211 197.326437 
C 341.124211 194.741557 340.097227 192.262199 338.269441 190.434413 
C 336.441654 188.606627 333.962296 187.579643 331.377416 187.579643 
C 328.792536 187.579643 326.313178 188.606627 324.485392 190.434413 
C 322.657606 192.262199 321.630622 194.741557 321.630622 197.326437 
C 321.630622 199.911318 322.657606 202.390676 324.485392 204.218462 
C 326.313178 206.046248 328.792536 207.073232 331.377416 207.073232 
z
" clip-path="url(#p480ff9623d)" style="fill: #898781; fill-opacity: 0.85; stroke: #ffffff; stroke-opacity: 0.85; stroke-width: 0.8"/>
    <path d="M 356.296077 207.073232 
C 358.880957 207.073232 361.360315 206.046248 363.188101 204.218462 
C 365.015887 202.390676 366.042871 199.911318 366.042871 197.326437 
C 366.042871 194.741557 365.015887 192.262199 363.188101 190.434413 
C 361.360315 188.606627 358.880957 187.579643 356.296077 187.579643 
C 353.711196 187.579643 351.231838 188.606627 349.404052 190.434413 
C 347.576266 192.262199 346.549282 194.741557 346.549282 197.326437 
C 346.549282 199.911318 347.576266 202.390676 349.404052 204.218462 
C 351.231838 206.046248 353.711196 207.073232 356.296077 207.073232 
z
" clip-path="url(#p480ff9623d)" style="fill: #898781; fill-opacity: 0.85; stroke: #ffffff; stroke-opacity: 0.85; stroke-width: 0.8"/>
    <path d="M 381.214737 207.073232 
C 383.799617 207.073232 386.278975 206.046248 388.106761 204.218462 
C 389.934547 202.390676 390.961531 199.911318 390.961531 197.326437 
C 390.961531 194.741557 389.934547 192.262199 388.106761 190.434413 
C 386.278975 188.606627 383.799617 187.579643 381.214737 187.579643 
C 378.629857 187.579643 376.150499 188.606627 374.322712 190.434413 
C 372.494926 192.262199 371.467942 194.741557 371.467942 197.326437 
C 371.467942 199.911318 372.494926 202.390676 374.322712 204.218462 
C 376.150499 206.046248 378.629857 207.073232 381.214737 207.073232 
z
" clip-path="url(#p480ff9623d)" style="fill: #898781; fill-opacity: 0.85; stroke: #ffffff; stroke-opacity: 0.85; stroke-width: 0.8"/>
   </g>
   <g id="patch_3">
    <path d="M 4.32 219.502437 
L 394.92 219.502437 
" style="fill: none; stroke: #c3c2b7; stroke-width: 0.8; stroke-linejoin: miter; stroke-linecap: square"/>
   </g>
   <g id="text_8">
    <!-- Gauss-Legendre -->
    <g style="fill: #52514e" transform="translate(27.280654 72.951906) scale(0.085 -0.085)">
     <defs>
      <path id="DejaVuSans-47" d="M 3809 666 
L 3809 1919 
L 2778 1919 
L 2778 2438 
L 4434 2438 
L 4434 434 
Q 4069 175 3628 42 
Q 3188 -91 2688 -91 
Q 1594 -91 976 548 
Q 359 1188 359 2328 
Q 359 3472 976 4111 
Q 1594 4750 2688 4750 
Q 3144 4750 3555 4637 
Q 3966 4525 4313 4306 
L 4313 3634 
Q 3963 3931 3569 4081 
Q 3175 4231 2741 4231 
Q 1884 4231 1454 3753 
Q 1025 3275 1025 2328 
Q 1025 1384 1454 906 
Q 1884 428 2741 428 
Q 3075 428 3337 486 
Q 3600 544 3809 666 
z
" transform="scale(0.015625)"/>
      <path id="DejaVuSans-61" d="M 2194 1759 
Q 1497 1759 1228 1600 
Q 959 1441 959 1056 
Q 959 750 1161 570 
Q 1363 391 1709 391 
Q 2188 391 2477 730 
Q 2766 1069 2766 1631 
L 2766 1759 
L 2194 1759 
z
M 3341 1997 
L 3341 0 
L 2766 0 
L 2766 531 
Q 2569 213 2275 61 
Q 1981 -91 1556 -91 
Q 1019 -91 701 211 
Q 384 513 384 1019 
Q 384 1609 779 1909 
Q 1175 2209 1959 2209 
L 2766 2209 
L 2766 2266 
Q 2766 2663 2505 2880 
Q 2244 3097 1772 3097 
Q 1472 3097 1187 3025 
Q 903 2953 641 2809 
L 641 3341 
Q 956 3463 1253 3523 
Q 1550 3584 1831 3584 
Q 2591 3584 2966 3190 
Q 3341 2797 3341 1997 
z
" transform="scale(0.015625)"/>
      <path id="DejaVuSans-75" d="M 544 1381 
L 544 3500 
L 1119 3500 
L 1119 1403 
Q 1119 906 1312 657 
Q 1506 409 1894 409 
Q 2359 409 2629 706 
Q 2900 1003 2900 1516 
L 2900 3500 
L 3475 3500 
L 3475 0 
L 2900 0 
L 2900 538 
Q 2691 219 2414 64 
Q 2138 -91 1772 -91 
Q 1169 -91 856 284 
Q 544 659 544 1381 
z
M 1991 3584 
L 1991 3584 
z
" transform="scale(0.015625)"/>
      <path id="DejaVuSans-4c" d="M 628 4666 
L 1259 4666 
L 1259 531 
L 3531 531 
L 3531 0 
L 628 0 
L 628 4666 
z
" transform="scale(0.015625)"/>
      <path id="DejaVuSans-67" d="M 2906 1791 
Q 2906 2416 2648 2759 
Q 2391 3103 1925 3103 
Q 1463 3103 1205 2759 
Q 947 2416 947 1791 
Q 947 1169 1205 825 
Q 1463 481 1925 481 
Q 2391 481 2648 825 
Q 2906 1169 2906 1791 
z
M 3481 434 
Q 3481 -459 3084 -895 
Q 2688 -1331 1869 -1331 
Q 1566 -1331 1297 -1286 
Q 1028 -1241 775 -1147 
L 775 -588 
Q 1028 -725 1275 -790 
Q 1522 -856 1778 -856 
Q 2344 -856 2625 -561 
Q 2906 -266 2906 331 
L 2906 616 
Q 2728 306 2450 153 
Q 2172 0 1784 0 
Q 1141 0 747 490 
Q 353 981 353 1791 
Q 353 2603 747 3093 
Q 1141 3584 1784 3584 
Q 2172 3584 2450 3431 
Q 2728 3278 2906 2969 
L 2906 3500 
L 3481 3500 
L 3481 434 
z
" transform="scale(0.015625)"/>
      <path id="DejaVuSans-72" d="M 2631 2963 
Q 2534 3019 2420 3045 
Q 2306 3072 2169 3072 
Q 1681 3072 1420 2755 
Q 1159 2438 1159 1844 
L 1159 0 
L 581 0 
L 581 3500 
L 1159 3500 
L 1159 2956 
Q 1341 3275 1631 3429 
Q 1922 3584 2338 3584 
Q 2397 3584 2469 3576 
Q 2541 3569 2628 3553 
L 2631 2963 
z
" transform="scale(0.015625)"/>
     </defs>
     <use xlink:href="#DejaVuSans-47"/>
     <use xlink:href="#DejaVuSans-61" transform="translate(77.490234 0)"/>
     <use xlink:href="#DejaVuSans-75" transform="translate(138.769531 0)"/>
     <use xlink:href="#DejaVuSans-73" transform="translate(202.148438 0)"/>
     <use xlink:href="#DejaVuSans-73" transform="translate(254.248047 0)"/>
     <use xlink:href="#DejaVuSans-2d" transform="translate(306.347656 0)"/>
     <use xlink:href="#DejaVuSans-4c" transform="translate(342.431641 0)"/>
     <use xlink:href="#DejaVuSans-65" transform="translate(396.394531 0)"/>
     <use xlink:href="#DejaVuSans-67" transform="translate(457.917969 0)"/>
     <use xlink:href="#DejaVuSans-65" transform="translate(521.394531 0)"/>
     <use xlink:href="#DejaVuSans-6e" transform="translate(582.917969 0)"/>
     <use xlink:href="#DejaVuSans-64" transform="translate(646.296875 0)"/>
     <use xlink:href="#DejaVuSans-72" transform="translate(709.773438 0)"/>
     <use xlink:href="#DejaVuSans-65" transform="translate(748.636719 0)"/>
    </g>
   </g>
   <g id="text_9">
    <!-- Gauss-Chebyshev -->
    <g style="fill: #52514e" transform="translate(19.985263 104.631906) scale(0.085 -0.085)">
     <defs>
      <path id="DejaVuSans-43" d="M 4122 4306 
L 4122 3641 
Q 3803 3938 3442 4084 
Q 3081 4231 2675 4231 
Q 1875 4231 1450 3742 
Q 1025 3253 1025 2328 
Q 1025 1406 1450 917 
Q 1875 428 2675 428 
Q 3081 428 3442 575 
Q 3803 722 4122 1019 
L 4122 359 
Q 3791 134 3420 21 
Q 3050 -91 2638 -91 
Q 1578 -91 968 557 
Q 359 1206 359 2328 
Q 359 3453 968 4101 
Q 1578 4750 2638 4750 
Q 3056 4750 3426 4639 
Q 3797 4528 4122 4306 
z
" transform="scale(0.015625)"/>
      <path id="DejaVuSans-68" d="M 3513 2113 
L 3513 0 
L 2938 0 
L 2938 2094 
Q 2938 2591 2744 2837 
Q 2550 3084 2163 3084 
Q 1697 3084 1428 2787 
Q 1159 2491 1159 1978 
L 1159 0 
L 581 0 
L 581 4863 
L 1159 4863 
L 1159 2956 
Q 1366 3272 1645 3428 
Q 1925 3584 2291 3584 
Q 2894 3584 3203 3211 
Q 3513 2838 3513 2113 
z
" transform="scale(0.015625)"/>
      <path id="DejaVuSans-62" d="M 3116 1747 
Q 3116 2381 2855 2742 
Q 2594 3103 2138 3103 
Q 1681 3103 1420 2742 
Q 1159 2381 1159 1747 
Q 1159 1113 1420 752 
Q 1681 391 2138 391 
Q 2594 391 2855 752 
Q 3116 1113 3116 1747 
z
M 1159 2969 
Q 1341 3281 1617 3432 
Q 1894 3584 2278 3584 
Q 2916 3584 3314 3078 
Q 3713 2572 3713 1747 
Q 3713 922 3314 415 
Q 2916 -91 2278 -91 
Q 1894 -91 1617 61 
Q 1341 213 1159 525 
L 1159 0 
L 581 0 
L 581 4863 
L 1159 4863 
L 1159 2969 
z
" transform="scale(0.015625)"/>
      <path id="DejaVuSans-79" d="M 2059 -325 
Q 1816 -950 1584 -1140 
Q 1353 -1331 966 -1331 
L 506 -1331 
L 506 -850 
L 844 -850 
Q 1081 -850 1212 -737 
Q 1344 -625 1503 -206 
L 1606 56 
L 191 3500 
L 800 3500 
L 1894 763 
L 2988 3500 
L 3597 3500 
L 2059 -325 
z
" transform="scale(0.015625)"/>
      <path id="DejaVuSans-76" d="M 191 3500 
L 800 3500 
L 1894 563 
L 2988 3500 
L 3597 3500 
L 2284 0 
L 1503 0 
L 191 3500 
z
" transform="scale(0.015625)"/>
     </defs>
     <use xlink:href="#DejaVuSans-47"/>
     <use xlink:href="#DejaVuSans-61" transform="translate(77.490234 0)"/>
     <use xlink:href="#DejaVuSans-75" transform="translate(138.769531 0)"/>
     <use xlink:href="#DejaVuSans-73" transform="translate(202.148438 0)"/>
     <use xlink:href="#DejaVuSans-73" transform="translate(254.248047 0)"/>
     <use xlink:href="#DejaVuSans-2d" transform="translate(306.347656 0)"/>
     <use xlink:href="#DejaVuSans-43" transform="translate(342.431641 0)"/>
     <use xlink:href="#DejaVuSans-68" transform="translate(412.255859 0)"/>
     <use xlink:href="#DejaVuSans-65" transform="translate(475.634766 0)"/>
     <use xlink:href="#DejaVuSans-62" transform="translate(537.158203 0)"/>
     <use xlink:href="#DejaVuSans-79" transform="translate(600.634766 0)"/>
     <use xlink:href="#DejaVuSans-73" transform="translate(659.814453 0)"/>
     <use xlink:href="#DejaVuSans-68" transform="translate(711.914062 0)"/>
     <use xlink:href="#DejaVuSans-65" transform="translate(775.292969 0)"/>
     <use xlink:href="#DejaVuSans-76" transform="translate(836.816406 0)"/>
    </g>
   </g>
   <g id="text_10">
    <!-- Gauss-Lobatto -->
    <g style="fill: #52514e" transform="translate(34.781904 136.311906) scale(0.085 -0.085)">
     <use xlink:href="#DejaVuSans-47"/>
     <use xlink:href="#DejaVuSans-61" transform="translate(77.490234 0)"/>
     <use xlink:href="#DejaVuSans-75" transform="translate(138.769531 0)"/>
     <use xlink:href="#DejaVuSans-73" transform="translate(202.148438 0)"/>
     <use xlink:href="#DejaVuSans-73" transform="translate(254.248047 0)"/>
     <use xlink:href="#DejaVuSans-2d" transform="translate(306.347656 0)"/>
     <use xlink:href="#DejaVuSans-4c" transform="translate(342.431641 0)"/>
     <use xlink:href="#DejaVuSans-6f" transform="translate(396.394531 0)"/>
     <use xlink:href="#DejaVuSans-62" transform="translate(457.576172 0)"/>
     <use xlink:href="#DejaVuSans-61" transform="translate(521.052734 0)"/>
     <use xlink:href="#DejaVuSans-74" transform="translate(582.332031 0)"/>
     <use xlink:href="#DejaVuSans-74" transform="translate(621.541016 0)"/>
     <use xlink:href="#DejaVuSans-6f" transform="translate(660.75 0)"/>
    </g>
   </g>
   <g id="text_11">
    <!-- Gauss-Radau -->
    <g style="fill: #52514e" transform="translate(40.124951 167.991906) scale(0.085 -0.085)">
     <defs>
      <path id="DejaVuSans-52" d="M 2841 2188 
Q 3044 2119 3236 1894 
Q 3428 1669 3622 1275 
L 4263 0 
L 3584 0 
L 2988 1197 
Q 2756 1666 2539 1819 
Q 2322 1972 1947 1972 
L 1259 1972 
L 1259 0 
L 628 0 
L 628 4666 
L 2053 4666 
Q 2853 4666 3247 4331 
Q 3641 3997 3641 3322 
Q 3641 2881 3436 2590 
Q 3231 2300 2841 2188 
z
M 1259 4147 
L 1259 2491 
L 2053 2491 
Q 2509 2491 2742 2702 
Q 2975 2913 2975 3322 
Q 2975 3731 2742 3939 
Q 2509 4147 2053 4147 
L 1259 4147 
z
" transform="scale(0.015625)"/>
     </defs>
     <use xlink:href="#DejaVuSans-47"/>
     <use xlink:href="#DejaVuSans-61" transform="translate(77.490234 0)"/>
     <use xlink:href="#DejaVuSans-75" transform="translate(138.769531 0)"/>
     <use xlink:href="#DejaVuSans-73" transform="translate(202.148438 0)"/>
     <use xlink:href="#DejaVuSans-73" transform="translate(254.248047 0)"/>
     <use xlink:href="#DejaVuSans-2d" transform="translate(306.347656 0)"/>
     <use xlink:href="#DejaVuSans-52" transform="translate(342.431641 0)"/>
     <use xlink:href="#DejaVuSans-61" transform="translate(409.664062 0)"/>
     <use xlink:href="#DejaVuSans-64" transform="translate(470.943359 0)"/>
     <use xlink:href="#DejaVuSans-61" transform="translate(534.419922 0)"/>
     <use xlink:href="#DejaVuSans-75" transform="translate(595.699219 0)"/>
    </g>
   </g>
   <g id="text_12">
    <!-- equally spaced -->
    <g style="fill: #52514e" transform="translate(32.134951 199.671906) scale(0.085 -0.085)">
     <defs>
      <path id="DejaVuSans-71" d="M 947 1747 
Q 947 1113 1208 752 
Q 1469 391 1925 391 
Q 2381 391 2643 752 
Q 2906 1113 2906 1747 
Q 2906 2381 2643 2742 
Q 2381 3103 1925 3103 
Q 1469 3103 1208 2742 
Q 947 2381 947 1747 
z
M 2906 525 
Q 2725 213 2448 61 
Q 2172 -91 1784 -91 
Q 1150 -91 751 415 
Q 353 922 353 1747 
Q 353 2572 751 3078 
Q 1150 3584 1784 3584 
Q 2172 3584 2448 3432 
Q 2725 3281 2906 2969 
L 2906 3500 
L 3481 3500 
L 3481 -1331 
L 2906 -1331 
L 2906 525 
z
" transform="scale(0.015625)"/>
      <path id="DejaVuSans-6c" d="M 603 4863 
L 1178 4863 
L 1178 0 
L 603 0 
L 603 4863 
z
" transform="scale(0.015625)"/>
      <path id="DejaVuSans-63" d="M 3122 3366 
L 3122 2828 
Q 2878 2963 2633 3030 
Q 2388 3097 2138 3097 
Q 1578 3097 1268 2742 
Q 959 2388 959 1747 
Q 959 1106 1268 751 
Q 1578 397 2138 397 
Q 2388 397 2633 464 
Q 2878 531 3122 666 
L 3122 134 
Q 2881 22 2623 -34 
Q 2366 -91 2075 -91 
Q 1284 -91 818 406 
Q 353 903 353 1747 
Q 353 2603 823 3093 
Q 1294 3584 2113 3584 
Q 2378 3584 2631 3529 
Q 2884 3475 3122 3366 
z
" transform="scale(0.015625)"/>
     </defs>
     <use xlink:href="#DejaVuSans-65"/>
     <use xlink:href="#DejaVuSans-71" transform="translate(61.523438 0)"/>
     <use xlink:href="#DejaVuSans-75" transform="translate(125 0)"/>
     <use xlink:href="#DejaVuSans-61" transform="translate(188.378906 0)"/>
     <use xlink:href="#DejaVuSans-6c" transform="translate(249.658203 0)"/>
     <use xlink:href="#DejaVuSans-6c" transform="translate(277.441406 0)"/>
     <use xlink:href="#DejaVuSans-79" transform="translate(305.224609 0)"/>
     <use xlink:href="#DejaVuSans-20" transform="translate(364.404297 0)"/>
     <use xlink:href="#DejaVuSans-73" transform="translate(396.191406 0)"/>
     <use xlink:href="#DejaVuSans-70" transform="translate(448.291016 0)"/>
     <use xlink:href="#DejaVuSans-61" transform="translate(511.767578 0)"/>
     <use xlink:href="#DejaVuSans-63" transform="translate(573.046875 0)"/>
     <use xlink:href="#DejaVuSans-65" transform="translate(628.027344 0)"/>
     <use xlink:href="#DejaVuSans-64" transform="translate(689.550781 0)"/>
    </g>
   </g>
   <g id="text_13">
    <!-- Lobatto keeps both endpoints; Radau keeps one; the interior families keep neither -->
    <g style="fill: #52514e" transform="translate(79.177105 38.926437) scale(0.08 -0.08)">
     <defs>
      <path id="DejaVuSans-6b" d="M 581 4863 
L 1159 4863 
L 1159 1991 
L 2875 3500 
L 3609 3500 
L 1753 1863 
L 3688 0 
L 2938 0 
L 1159 1709 
L 1159 0 
L 581 0 
L 581 4863 
z
" transform="scale(0.015625)"/>
      <path id="DejaVuSans-3b" d="M 750 3309 
L 1409 3309 
L 1409 2516 
L 750 2516 
L 750 3309 
z
M 750 794 
L 1409 794 
L 1409 256 
L 897 -744 
L 494 -744 
L 750 256 
L 750 794 
z
" transform="scale(0.015625)"/>
      <path id="DejaVuSans-66" d="M 2375 4863 
L 2375 4384 
L 1825 4384 
Q 1516 4384 1395 4259 
Q 1275 4134 1275 3809 
L 1275 3500 
L 2222 3500 
L 2222 3053 
L 1275 3053 
L 1275 0 
L 697 0 
L 697 3053 
L 147 3053 
L 147 3500 
L 697 3500 
L 697 3744 
Q 697 4328 969 4595 
Q 1241 4863 1831 4863 
L 2375 4863 
z
" transform="scale(0.015625)"/>
      <path id="DejaVuSans-6d" d="M 3328 2828 
Q 3544 3216 3844 3400 
Q 4144 3584 4550 3584 
Q 5097 3584 5394 3201 
Q 5691 2819 5691 2113 
L 5691 0 
L 5113 0 
L 5113 2094 
Q 5113 2597 4934 2840 
Q 4756 3084 4391 3084 
Q 3944 3084 3684 2787 
Q 3425 2491 3425 1978 
L 3425 0 
L 2847 0 
L 2847 2094 
Q 2847 2600 2669 2842 
Q 2491 3084 2119 3084 
Q 1678 3084 1418 2786 
Q 1159 2488 1159 1978 
L 1159 0 
L 581 0 
L 581 3500 
L 1159 3500 
L 1159 2956 
Q 1356 3278 1631 3431 
Q 1906 3584 2284 3584 
Q 2666 3584 2933 3390 
Q 3200 3197 3328 2828 
z
" transform="scale(0.015625)"/>
     </defs>
     <use xlink:href="#DejaVuSans-4c"/>
     <use xlink:href="#DejaVuSans-6f" transform="translate(53.962891 0)"/>
     <use xlink:href="#DejaVuSans-62" transform="translate(115.144531 0)"/>
     <use xlink:href="#DejaVuSans-61" transform="translate(178.621094 0)"/>
     <use xlink:href="#DejaVuSans-74" transform="translate(239.900391 0)"/>
     <use xlink:href="#DejaVuSans-74" transform="translate(279.109375 0)"/>
     <use xlink:href="#DejaVuSans-6f" transform="translate(318.318359 0)"/>
     <use xlink:href="#DejaVuSans-20" transform="translate(379.5 0)"/>
     <use xlink:href="#DejaVuSans-6b" transform="translate(411.287109 0)"/>
     <use xlink:href="#DejaVuSans-65" transform="translate(465.572266 0)"/>
     <use xlink:href="#DejaVuSans-65" transform="translate(527.095703 0)"/>
     <use xlink:href="#DejaVuSans-70" transform="translate(588.619141 0)"/>
     <use xlink:href="#DejaVuSans-73" transform="translate(652.095703 0)"/>
     <use xlink:href="#DejaVuSans-20" transform="translate(704.195312 0)"/>
     <use xlink:href="#DejaVuSans-62" transform="translate(735.982422 0)"/>
     <use xlink:href="#DejaVuSans-6f" transform="translate(799.458984 0)"/>
     <use xlink:href="#DejaVuSans-74" transform="translate(860.640625 0)"/>
     <use xlink:href="#DejaVuSans-68" transform="translate(899.849609 0)"/>
     <use xlink:href="#DejaVuSans-20" transform="translate(963.228516 0)"/>
     <use xlink:href="#DejaVuSans-65" transform="translate(995.015625 0)"/>
     <use xlink:href="#DejaVuSans-6e" transform="translate(1056.539062 0)"/>
     <use xlink:href="#DejaVuSans-64" transform="translate(1119.917969 0)"/>
     <use xlink:href="#DejaVuSans-70" transform="translate(1183.394531 0)"/>
     <use xlink:href="#DejaVuSans-6f" transform="translate(1246.871094 0)"/>
     <use xlink:href="#DejaVuSans-69" transform="translate(1308.052734 0)"/>
     <use xlink:href="#DejaVuSans-6e" transform="translate(1335.835938 0)"/>
     <use xlink:href="#DejaVuSans-74" transform="translate(1399.214844 0)"/>
     <use xlink:href="#DejaVuSans-73" transform="translate(1438.423828 0)"/>
     <use xlink:href="#DejaVuSans-3b" transform="translate(1490.523438 0)"/>
     <use xlink:href="#DejaVuSans-20" transform="translate(1524.214844 0)"/>
     <use xlink:href="#DejaVuSans-52" transform="translate(1556.001953 0)"/>
     <use xlink:href="#DejaVuSans-61" transform="translate(1623.234375 0)"/>
     <use xlink:href="#DejaVuSans-64" transform="translate(1684.513672 0)"/>
     <use xlink:href="#DejaVuSans-61" transform="translate(1747.990234 0)"/>
     <use xlink:href="#DejaVuSans-75" transform="translate(1809.269531 0)"/>
     <use xlink:href="#DejaVuSans-20" transform="translate(1872.648438 0)"/>
     <use xlink:href="#DejaVuSans-6b" transform="translate(1904.435547 0)"/>
     <use xlink:href="#DejaVuSans-65" transform="translate(1958.720703 0)"/>
     <use xlink:href="#DejaVuSans-65" transform="translate(2020.244141 0)"/>
     <use xlink:href="#DejaVuSans-70" transform="translate(2081.767578 0)"/>
     <use xlink:href="#DejaVuSans-73" transform="translate(2145.244141 0)"/>
     <use xlink:href="#DejaVuSans-20" transform="translate(2197.34375 0)"/>
     <use xlink:href="#DejaVuSans-6f" transform="translate(2229.130859 0)"/>
     <use xlink:href="#DejaVuSans-6e" transform="translate(2290.3125 0)"/>
     <use xlink:href="#DejaVuSans-65" transform="translate(2353.691406 0)"/>
     <use xlink:href="#DejaVuSans-3b" transform="translate(2415.214844 0)"/>
     <use xlink:href="#DejaVuSans-20" transform="translate(2448.90625 0)"/>
     <use xlink:href="#DejaVuSans-74" transform="translate(2480.693359 0)"/>
     <use xlink:href="#DejaVuSans-68" transform="translate(2519.902344 0)"/>
     <use xlink:href="#DejaVuSans-65" transform="translate(2583.28125 0)"/>
     <use xlink:href="#DejaVuSans-20" transform="translate(2644.804688 0)"/>
     <use xlink:href="#DejaVuSans-69" transform="translate(2676.591797 0)"/>
     <use xlink:href="#DejaVuSans-6e" transform="translate(2704.375 0)"/>
     <use xlink:href="#DejaVuSans-74" transform="translate(2767.753906 0)"/>
     <use xlink:href="#DejaVuSans-65" transform="translate(2806.962891 0)"/>
     <use xlink:href="#DejaVuSans-72" transform="translate(2868.486328 0)"/>
     <use xlink:href="#DejaVuSans-69" transform="translate(2909.599609 0)"/>
     <use xlink:href="#DejaVuSans-6f" transform="translate(2937.382812 0)"/>
     <use xlink:href="#DejaVuSans-72" transform="translate(2998.564453 0)"/>
     <use xlink:href="#DejaVuSans-20" transform="translate(3039.677734 0)"/>
     <use xlink:href="#DejaVuSans-66" transform="translate(3071.464844 0)"/>
     <use xlink:href="#DejaVuSans-61" transform="translate(3106.669922 0)"/>
     <use xlink:href="#DejaVuSans-6d" transform="translate(3167.949219 0)"/>
     <use xlink:href="#DejaVuSans-69" transform="translate(3265.361328 0)"/>
     <use xlink:href="#DejaVuSans-6c" transform="translate(3293.144531 0)"/>
     <use xlink:href="#DejaVuSans-69" transform="translate(3320.927734 0)"/>
     <use xlink:href="#DejaVuSans-65" transform="translate(3348.710938 0)"/>
     <use xlink:href="#DejaVuSans-73" transform="translate(3410.234375 0)"/>
     <use xlink:href="#DejaVuSans-20" transform="translate(3462.333984 0)"/>
     <use xlink:href="#DejaVuSans-6b" transform="translate(3494.121094 0)"/>
     <use xlink:href="#DejaVuSans-65" transform="translate(3548.40625 0)"/>
     <use xlink:href="#DejaVuSans-65" transform="translate(3609.929688 0)"/>
     <use xlink:href="#DejaVuSans-70" transform="translate(3671.453125 0)"/>
     <use xlink:href="#DejaVuSans-20" transform="translate(3734.929688 0)"/>
     <use xlink:href="#DejaVuSans-6e" transform="translate(3766.716797 0)"/>
     <use xlink:href="#DejaVuSans-65" transform="translate(3830.095703 0)"/>
     <use xlink:href="#DejaVuSans-69" transform="translate(3891.619141 0)"/>
     <use xlink:href="#DejaVuSans-74" transform="translate(3919.402344 0)"/>
     <use xlink:href="#DejaVuSans-68" transform="translate(3958.611328 0)"/>
     <use xlink:href="#DejaVuSans-65" transform="translate(4021.990234 0)"/>
     <use xlink:href="#DejaVuSans-72" transform="translate(4083.513672 0)"/>
    </g>
   </g>
   <g id="text_14">
    <!-- Marker area is the quadrature weight; every family clusters at the ends -->
    <g style="fill: #0b0b0b" transform="translate(4.32 11.918437) scale(0.1 -0.1)">
     <defs>
      <path id="DejaVuSans-Bold-4d" d="M 588 4666 
L 2119 4666 
L 3181 2169 
L 4250 4666 
L 5778 4666 
L 5778 0 
L 4641 0 
L 4641 3413 
L 3566 897 
L 2803 897 
L 1728 3413 
L 1728 0 
L 588 0 
L 588 4666 
z
" transform="scale(0.015625)"/>
      <path id="DejaVuSans-Bold-61" d="M 2106 1575 
Q 1756 1575 1579 1456 
Q 1403 1338 1403 1106 
Q 1403 894 1545 773 
Q 1688 653 1941 653 
Q 2256 653 2472 879 
Q 2688 1106 2688 1447 
L 2688 1575 
L 2106 1575 
z
M 3816 1997 
L 3816 0 
L 2688 0 
L 2688 519 
Q 2463 200 2181 54 
Q 1900 -91 1497 -91 
Q 953 -91 614 226 
Q 275 544 275 1050 
Q 275 1666 698 1953 
Q 1122 2241 2028 2241 
L 2688 2241 
L 2688 2328 
Q 2688 2594 2478 2717 
Q 2269 2841 1825 2841 
Q 1466 2841 1156 2769 
Q 847 2697 581 2553 
L 581 3406 
Q 941 3494 1303 3539 
Q 1666 3584 2028 3584 
Q 2975 3584 3395 3211 
Q 3816 2838 3816 1997 
z
" transform="scale(0.015625)"/>
      <path id="DejaVuSans-Bold-72" d="M 3138 2547 
Q 2991 2616 2845 2648 
Q 2700 2681 2553 2681 
Q 2122 2681 1889 2404 
Q 1656 2128 1656 1613 
L 1656 0 
L 538 0 
L 538 3500 
L 1656 3500 
L 1656 2925 
Q 1872 3269 2151 3426 
Q 2431 3584 2822 3584 
Q 2878 3584 2943 3579 
Q 3009 3575 3134 3559 
L 3138 2547 
z
" transform="scale(0.015625)"/>
      <path id="DejaVuSans-Bold-6b" d="M 538 4863 
L 1656 4863 
L 1656 2216 
L 2944 3500 
L 4244 3500 
L 2534 1894 
L 4378 0 
L 3022 0 
L 1656 1459 
L 1656 0 
L 538 0 
L 538 4863 
z
" transform="scale(0.015625)"/>
      <path id="DejaVuSans-Bold-65" d="M 4031 1759 
L 4031 1441 
L 1416 1441 
Q 1456 1047 1700 850 
Q 1944 653 2381 653 
Q 2734 653 3104 758 
Q 3475 863 3866 1075 
L 3866 213 
Q 3469 63 3072 -14 
Q 2675 -91 2278 -91 
Q 1328 -91 801 392 
Q 275 875 275 1747 
Q 275 2603 792 3093 
Q 1309 3584 2216 3584 
Q 3041 3584 3536 3087 
Q 4031 2591 4031 1759 
z
M 2881 2131 
Q 2881 2450 2695 2645 
Q 2509 2841 2209 2841 
Q 1884 2841 1681 2658 
Q 1478 2475 1428 2131 
L 2881 2131 
z
" transform="scale(0.015625)"/>
      <path id="DejaVuSans-Bold-20" transform="scale(0.015625)"/>
      <path id="DejaVuSans-Bold-69" d="M 538 3500 
L 1656 3500 
L 1656 0 
L 538 0 
L 538 3500 
z
M 538 4863 
L 1656 4863 
L 1656 3950 
L 538 3950 
L 538 4863 
z
" transform="scale(0.015625)"/>
      <path id="DejaVuSans-Bold-73" d="M 3272 3391 
L 3272 2541 
Q 2913 2691 2578 2766 
Q 2244 2841 1947 2841 
Q 1628 2841 1473 2761 
Q 1319 2681 1319 2516 
Q 1319 2381 1436 2309 
Q 1553 2238 1856 2203 
L 2053 2175 
Q 2913 2066 3209 1816 
Q 3506 1566 3506 1031 
Q 3506 472 3093 190 
Q 2681 -91 1863 -91 
Q 1516 -91 1145 -36 
Q 775 19 384 128 
L 384 978 
Q 719 816 1070 734 
Q 1422 653 1784 653 
Q 2113 653 2278 743 
Q 2444 834 2444 1013 
Q 2444 1163 2330 1236 
Q 2216 1309 1875 1350 
L 1678 1375 
Q 931 1469 631 1722 
Q 331 1975 331 2491 
Q 331 3047 712 3315 
Q 1094 3584 1881 3584 
Q 2191 3584 2531 3537 
Q 2872 3491 3272 3391 
z
" transform="scale(0.015625)"/>
      <path id="DejaVuSans-Bold-74" d="M 1759 4494 
L 1759 3500 
L 2913 3500 
L 2913 2700 
L 1759 2700 
L 1759 1216 
Q 1759 972 1856 886 
Q 1953 800 2241 800 
L 2816 800 
L 2816 0 
L 1856 0 
Q 1194 0 917 276 
Q 641 553 641 1216 
L 641 2700 
L 84 2700 
L 84 3500 
L 641 3500 
L 641 4494 
L 1759 4494 
z
" transform="scale(0.015625)"/>
      <path id="DejaVuSans-Bold-68" d="M 4056 2131 
L 4056 0 
L 2931 0 
L 2931 347 
L 2931 1625 
Q 2931 2084 2911 2256 
Q 2891 2428 2841 2509 
Q 2775 2619 2662 2680 
Q 2550 2741 2406 2741 
Q 2056 2741 1856 2470 
Q 1656 2200 1656 1722 
L 1656 0 
L 538 0 
L 538 4863 
L 1656 4863 
L 1656 2988 
Q 1909 3294 2193 3439 
Q 2478 3584 2822 3584 
Q 3428 3584 3742 3212 
Q 4056 2841 4056 2131 
z
" transform="scale(0.015625)"/>
      <path id="DejaVuSans-Bold-71" d="M 2181 2772 
Q 1825 2772 1636 2509 
Q 1447 2247 1447 1747 
Q 1447 1247 1636 984 
Q 1825 722 2181 722 
Q 2541 722 2730 984 
Q 2919 1247 2919 1747 
Q 2919 2247 2730 2509 
Q 2541 2772 2181 2772 
z
M 2919 506 
Q 2688 197 2409 53 
Q 2131 -91 1766 -91 
Q 1119 -91 703 423 
Q 288 938 288 1747 
Q 288 2556 703 3067 
Q 1119 3578 1766 3578 
Q 2131 3578 2409 3434 
Q 2688 3291 2919 2981 
L 2919 3500 
L 4044 3500 
L 4044 -1331 
L 2919 -1331 
L 2919 506 
z
" transform="scale(0.015625)"/>
      <path id="DejaVuSans-Bold-75" d="M 500 1363 
L 500 3500 
L 1625 3500 
L 1625 3150 
Q 1625 2866 1622 2436 
Q 1619 2006 1619 1863 
Q 1619 1441 1641 1255 
Q 1663 1069 1716 984 
Q 1784 875 1895 815 
Q 2006 756 2150 756 
Q 2500 756 2700 1025 
Q 2900 1294 2900 1772 
L 2900 3500 
L 4019 3500 
L 4019 0 
L 2900 0 
L 2900 506 
Q 2647 200 2364 54 
Q 2081 -91 1741 -91 
Q 1134 -91 817 281 
Q 500 653 500 1363 
z
" transform="scale(0.015625)"/>
      <path id="DejaVuSans-Bold-64" d="M 2919 2988 
L 2919 4863 
L 4044 4863 
L 4044 0 
L 2919 0 
L 2919 506 
Q 2688 197 2409 53 
Q 2131 -91 1766 -91 
Q 1119 -91 703 423 
Q 288 938 288 1747 
Q 288 2556 703 3070 
Q 1119 3584 1766 3584 
Q 2128 3584 2408 3439 
Q 2688 3294 2919 2988 
z
M 2181 722 
Q 2541 722 2730 984 
Q 2919 1247 2919 1747 
Q 2919 2247 2730 2509 
Q 2541 2772 2181 2772 
Q 1825 2772 1636 2509 
Q 1447 2247 1447 1747 
Q 1447 1247 1636 984 
Q 1825 722 2181 722 
z
" transform="scale(0.015625)"/>
      <path id="DejaVuSans-Bold-77" d="M 225 3500 
L 1313 3500 
L 1900 1088 
L 2491 3500 
L 3425 3500 
L 4013 1113 
L 4603 3500 
L 5691 3500 
L 4769 0 
L 3547 0 
L 2956 2406 
L 2369 0 
L 1147 0 
L 225 3500 
z
" transform="scale(0.015625)"/>
      <path id="DejaVuSans-Bold-67" d="M 2919 594 
Q 2688 288 2409 144 
Q 2131 0 1766 0 
Q 1125 0 706 504 
Q 288 1009 288 1791 
Q 288 2575 706 3076 
Q 1125 3578 1766 3578 
Q 2131 3578 2409 3434 
Q 2688 3291 2919 2981 
L 2919 3500 
L 4044 3500 
L 4044 353 
Q 4044 -491 3511 -936 
Q 2978 -1381 1966 -1381 
Q 1638 -1381 1331 -1331 
Q 1025 -1281 716 -1178 
L 716 -306 
Q 1009 -475 1290 -558 
Q 1572 -641 1856 -641 
Q 2406 -641 2662 -400 
Q 2919 -159 2919 353 
L 2919 594 
z
M 2181 2772 
Q 1834 2772 1640 2515 
Q 1447 2259 1447 1791 
Q 1447 1309 1634 1061 
Q 1822 813 2181 813 
Q 2531 813 2725 1069 
Q 2919 1325 2919 1791 
Q 2919 2259 2725 2515 
Q 2531 2772 2181 2772 
z
" transform="scale(0.015625)"/>
      <path id="DejaVuSans-Bold-3b" d="M 716 1209 
L 1844 1209 
L 1844 256 
L 1069 -909 
L 403 -909 
L 716 256 
L 716 1209 
z
M 716 3500 
L 1844 3500 
L 1844 2291 
L 716 2291 
L 716 3500 
z
" transform="scale(0.015625)"/>
      <path id="DejaVuSans-Bold-76" d="M 97 3500 
L 1216 3500 
L 2088 1081 
L 2956 3500 
L 4078 3500 
L 2700 0 
L 1472 0 
L 97 3500 
z
" transform="scale(0.015625)"/>
      <path id="DejaVuSans-Bold-79" d="M 78 3500 
L 1197 3500 
L 2138 1125 
L 2938 3500 
L 4056 3500 
L 2584 -331 
Q 2363 -916 2067 -1148 
Q 1772 -1381 1288 -1381 
L 641 -1381 
L 641 -647 
L 991 -647 
Q 1275 -647 1404 -556 
Q 1534 -466 1606 -231 
L 1638 -134 
L 78 3500 
z
" transform="scale(0.015625)"/>
      <path id="DejaVuSans-Bold-66" d="M 2841 4863 
L 2841 4128 
L 2222 4128 
Q 1984 4128 1890 4042 
Q 1797 3956 1797 3744 
L 1797 3500 
L 2753 3500 
L 2753 2700 
L 1797 2700 
L 1797 0 
L 678 0 
L 678 2700 
L 122 2700 
L 122 3500 
L 678 3500 
L 678 3744 
Q 678 4316 997 4589 
Q 1316 4863 1984 4863 
L 2841 4863 
z
" transform="scale(0.015625)"/>
      <path id="DejaVuSans-Bold-6d" d="M 3781 2919 
Q 3994 3244 4286 3414 
Q 4578 3584 4928 3584 
Q 5531 3584 5847 3212 
Q 6163 2841 6163 2131 
L 6163 0 
L 5038 0 
L 5038 1825 
Q 5041 1866 5042 1909 
Q 5044 1953 5044 2034 
Q 5044 2406 4934 2573 
Q 4825 2741 4581 2741 
Q 4263 2741 4089 2478 
Q 3916 2216 3909 1719 
L 3909 0 
L 2784 0 
L 2784 1825 
Q 2784 2406 2684 2573 
Q 2584 2741 2328 2741 
Q 2006 2741 1831 2477 
Q 1656 2213 1656 1722 
L 1656 0 
L 531 0 
L 531 3500 
L 1656 3500 
L 1656 2988 
Q 1863 3284 2130 3434 
Q 2397 3584 2719 3584 
Q 3081 3584 3359 3409 
Q 3638 3234 3781 2919 
z
" transform="scale(0.015625)"/>
      <path id="DejaVuSans-Bold-6c" d="M 538 4863 
L 1656 4863 
L 1656 0 
L 538 0 
L 538 4863 
z
" transform="scale(0.015625)"/>
      <path id="DejaVuSans-Bold-63" d="M 3366 3391 
L 3366 2478 
Q 3138 2634 2908 2709 
Q 2678 2784 2431 2784 
Q 1963 2784 1702 2511 
Q 1441 2238 1441 1747 
Q 1441 1256 1702 982 
Q 1963 709 2431 709 
Q 2694 709 2930 787 
Q 3166 866 3366 1019 
L 3366 103 
Q 3103 6 2833 -42 
Q 2563 -91 2291 -91 
Q 1344 -91 809 395 
Q 275 881 275 1747 
Q 275 2613 809 3098 
Q 1344 3584 2291 3584 
Q 2566 3584 2833 3536 
Q 3100 3488 3366 3391 
z
" transform="scale(0.015625)"/>
      <path id="DejaVuSans-Bold-6e" d="M 4056 2131 
L 4056 0 
L 2931 0 
L 2931 347 
L 2931 1631 
Q 2931 2084 2911 2256 
Q 2891 2428 2841 2509 
Q 2775 2619 2662 2680 
Q 2550 2741 2406 2741 
Q 2056 2741 1856 2470 
Q 1656 2200 1656 1722 
L 1656 0 
L 538 0 
L 538 3500 
L 1656 3500 
L 1656 2988 
Q 1909 3294 2193 3439 
Q 2478 3584 2822 3584 
Q 3428 3584 3742 3212 
Q 4056 2841 4056 2131 
z
" transform="scale(0.015625)"/>
     </defs>
     <use xlink:href="#DejaVuSans-Bold-4d"/>
     <use xlink:href="#DejaVuSans-Bold-61" transform="translate(99.511719 0)"/>
     <use xlink:href="#DejaVuSans-Bold-72" transform="translate(166.992188 0)"/>
     <use xlink:href="#DejaVuSans-Bold-6b" transform="translate(216.308594 0)"/>
     <use xlink:href="#DejaVuSans-Bold-65" transform="translate(280.1875 0)"/>
     <use xlink:href="#DejaVuSans-Bold-72" transform="translate(348.009766 0)"/>
     <use xlink:href="#DejaVuSans-Bold-20" transform="translate(397.326172 0)"/>
     <use xlink:href="#DejaVuSans-Bold-61" transform="translate(432.140625 0)"/>
     <use xlink:href="#DejaVuSans-Bold-72" transform="translate(499.621094 0)"/>
     <use xlink:href="#DejaVuSans-Bold-65" transform="translate(548.9375 0)"/>
     <use xlink:href="#DejaVuSans-Bold-61" transform="translate(616.759766 0)"/>
     <use xlink:href="#DejaVuSans-Bold-20" transform="translate(684.240234 0)"/>
     <use xlink:href="#DejaVuSans-Bold-69" transform="translate(719.054688 0)"/>
     <use xlink:href="#DejaVuSans-Bold-73" transform="translate(753.332031 0)"/>
     <use xlink:href="#DejaVuSans-Bold-20" transform="translate(812.853516 0)"/>
     <use xlink:href="#DejaVuSans-Bold-74" transform="translate(847.667969 0)"/>
     <use xlink:href="#DejaVuSans-Bold-68" transform="translate(895.470703 0)"/>
     <use xlink:href="#DejaVuSans-Bold-65" transform="translate(966.662109 0)"/>
     <use xlink:href="#DejaVuSans-Bold-20" transform="translate(1034.484375 0)"/>
     <use xlink:href="#DejaVuSans-Bold-71" transform="translate(1069.298828 0)"/>
     <use xlink:href="#DejaVuSans-Bold-75" transform="translate(1140.880859 0)"/>
     <use xlink:href="#DejaVuSans-Bold-61" transform="translate(1212.072266 0)"/>
     <use xlink:href="#DejaVuSans-Bold-64" transform="translate(1279.552734 0)"/>
     <use xlink:href="#DejaVuSans-Bold-72" transform="translate(1351.134766 0)"/>
     <use xlink:href="#DejaVuSans-Bold-61" transform="translate(1400.451172 0)"/>
     <use xlink:href="#DejaVuSans-Bold-74" transform="translate(1467.931641 0)"/>
     <use xlink:href="#DejaVuSans-Bold-75" transform="translate(1515.734375 0)"/>
     <use xlink:href="#DejaVuSans-Bold-72" transform="translate(1586.925781 0)"/>
     <use xlink:href="#DejaVuSans-Bold-65" transform="translate(1636.242188 0)"/>
     <use xlink:href="#DejaVuSans-Bold-20" transform="translate(1704.064453 0)"/>
     <use xlink:href="#DejaVuSans-Bold-77" transform="translate(1738.878906 0)"/>
     <use xlink:href="#DejaVuSans-Bold-65" transform="translate(1831.261719 0)"/>
     <use xlink:href="#DejaVuSans-Bold-69" transform="translate(1899.083984 0)"/>
     <use xlink:href="#DejaVuSans-Bold-67" transform="translate(1933.361328 0)"/>
     <use xlink:href="#DejaVuSans-Bold-68" transform="translate(2004.943359 0)"/>
     <use xlink:href="#DejaVuSans-Bold-74" transform="translate(2076.134766 0)"/>
     <use xlink:href="#DejaVuSans-Bold-3b" transform="translate(2123.9375 0)"/>
     <use xlink:href="#DejaVuSans-Bold-20" transform="translate(2163.927734 0)"/>
     <use xlink:href="#DejaVuSans-Bold-65" transform="translate(2198.742188 0)"/>
     <use xlink:href="#DejaVuSans-Bold-76" transform="translate(2266.564453 0)"/>
     <use xlink:href="#DejaVuSans-Bold-65" transform="translate(2331.75 0)"/>
     <use xlink:href="#DejaVuSans-Bold-72" transform="translate(2399.572266 0)"/>
     <use xlink:href="#DejaVuSans-Bold-79" transform="translate(2448.888672 0)"/>
     <use xlink:href="#DejaVuSans-Bold-20" transform="translate(2514.074219 0)"/>
     <use xlink:href="#DejaVuSans-Bold-66" transform="translate(2548.888672 0)"/>
     <use xlink:href="#DejaVuSans-Bold-61" transform="translate(2592.394531 0)"/>
     <use xlink:href="#DejaVuSans-Bold-6d" transform="translate(2659.875 0)"/>
     <use xlink:href="#DejaVuSans-Bold-69" transform="translate(2764.074219 0)"/>
     <use xlink:href="#DejaVuSans-Bold-6c" transform="translate(2798.351562 0)"/>
     <use xlink:href="#DejaVuSans-Bold-79" transform="translate(2832.628906 0)"/>
     <use xlink:href="#DejaVuSans-Bold-20" transform="translate(2897.814453 0)"/>
     <use xlink:href="#DejaVuSans-Bold-63" transform="translate(2932.628906 0)"/>
     <use xlink:href="#DejaVuSans-Bold-6c" transform="translate(2991.90625 0)"/>
     <use xlink:href="#DejaVuSans-Bold-75" transform="translate(3026.183594 0)"/>
     <use xlink:href="#DejaVuSans-Bold-73" transform="translate(3097.375 0)"/>
     <use xlink:href="#DejaVuSans-Bold-74" transform="translate(3156.896484 0)"/>
     <use xlink:href="#DejaVuSans-Bold-65" transform="translate(3204.699219 0)"/>
     <use xlink:href="#DejaVuSans-Bold-72" transform="translate(3272.521484 0)"/>
     <use xlink:href="#DejaVuSans-Bold-73" transform="translate(3321.837891 0)"/>
     <use xlink:href="#DejaVuSans-Bold-20" transform="translate(3381.359375 0)"/>
     <use xlink:href="#DejaVuSans-Bold-61" transform="translate(3416.173828 0)"/>
     <use xlink:href="#DejaVuSans-Bold-74" transform="translate(3483.654297 0)"/>
     <use xlink:href="#DejaVuSans-Bold-20" transform="translate(3531.457031 0)"/>
     <use xlink:href="#DejaVuSans-Bold-74" transform="translate(3566.271484 0)"/>
     <use xlink:href="#DejaVuSans-Bold-68" transform="translate(3614.074219 0)"/>
     <use xlink:href="#DejaVuSans-Bold-65" transform="translate(3685.265625 0)"/>
     <use xlink:href="#DejaVuSans-Bold-20" transform="translate(3753.087891 0)"/>
     <use xlink:href="#DejaVuSans-Bold-65" transform="translate(3787.902344 0)"/>
     <use xlink:href="#DejaVuSans-Bold-6e" transform="translate(3855.724609 0)"/>
     <use xlink:href="#DejaVuSans-Bold-64" transform="translate(3926.916016 0)"/>
     <use xlink:href="#DejaVuSans-Bold-73" transform="translate(3998.498047 0)"/>
    </g>
   </g>
  </g>
 </g>
 <defs>
  <clipPath id="p480ff9623d">
   <rect x="4.32" y="19.918437" width="390.6" height="199.584"/>
  </clipPath>
 </defs>
</svg>
