<?xml version="1.0" encoding="utf-8" standalone="no"?>
<!DOCTYPE svg PUBLIC "-//W3C//DTD SVG 1.1//EN"
  "http://www.w3.org/Graphics/SVG/1.1/DTD/svg11.dtd">
<svg xmlns:xlink="http://www.w3.org/1999/xlink" width="491.746903pt" height="243.21925pt" viewBox="0 0 491.746903 243.21925" xmlns="http://www.w3.org/2000/svg" version="1.1">
 <metadata>
  <rdf:RDF xmlns:dc="http://purl.org/dc/elements/1.1/" xmlns:cc="http://creativecommons.org/ns#" xmlns:rdf="http://www.w3.org/1999/02/22-rdf-syntax-ns#">
   <cc:Work>
    <dc:creator>
     <cc:Agent>
      <dc:title>tools/gen_figures.py</dc:title>
     </cc:Agent>
    </dc:creator>
   </cc:Work>
  </rdf:RDF>
 </metadata>
 <defs>
  <style type="text/css">*{stroke-linejoin: round; stroke-linecap: butt}</style>
 </defs>
 <g id="figure_1">
  <g id="patch_1">
   <path d="M 0 243.21925 
L 491.746903 243.21925 
L 491.746903 0 
L 0 0 
L 0 243.21925 
z
" style="fill: none"/>
  </g>
  <g id="axes_1">
   <g id="patch_2">
    <path d="M 45.850313 211.946437 
L 244.470227 211.946437 
L 244.470227 19.918437 
L 45.850313 19.918437 
L 45.850313 211.946437 
z
" style="fill: none"/>
   </g>
   <g id="matplotlib.axis_1">
    <g id="xtick_1">
     <g id="line2d_1">
      <path d="M 45.850313 211.946437 
L 45.850313 19.918437 
" clip-path="url(#p5ca3ad9dd9)" style="fill: none; stroke: #e1e0d9; stroke-width: 0.7; stroke-linecap: round"/>
     </g>
     <g id="line2d_2">
      <defs>
       <path id="m0cade8e575" d="M 0 0 
L 0 3 
" style="stroke: #898781; stroke-width: 0.8"/>
      </defs>
      <g>
       <use xlink:href="#m0cade8e575" x="45.850313" y="211.946437" style="fill: #898781; stroke: #898781; stroke-width: 0.8"/>
      </g>
     </g>
     <g id="text_1">
      <!-- 0 -->
      <g style="fill: #898781" transform="translate(43.305312 224.525187) scale(0.08 -0.08)">
       <defs>
        <path id="DejaVuSans-30" d="M 2034 4250 
Q 1547 4250 1301 3770 
Q 1056 3291 1056 2328 
Q 1056 1369 1301 889 
Q 1547 409 2034 409 
Q 2525 409 2770 889 
Q 3016 1369 3016 2328 
Q 3016 3291 2770 3770 
Q 2525 4250 2034 4250 
z
M 2034 4750 
Q 2819 4750 3233 4129 
Q 3647 3509 3647 2328 
Q 3647 1150 3233 529 
Q 2819 -91 2034 -91 
Q 1250 -91 836 529 
Q 422 1150 422 2328 
Q 422 3509 836 4129 
Q 1250 4750 2034 4750 
z
" transform="scale(0.015625)"/>
       </defs>
       <use xlink:href="#DejaVuSans-30"/>
      </g>
     </g>
    </g>
    <g id="xtick_2">
     <g id="line2d_3">
      <path d="M 90.991202 211.946437 
L 90.991202 19.918437 
" clip-path="url(#p5ca3ad9dd9)" style="fill: none; stroke: #e1e0d9; stroke-width: 0.7; stroke-linecap: round"/>
     </g>
     <g id="line2d_4">
      <g>
       <use xlink:href="#m0cade8e575" x="90.991202" y="211.946437" style="fill: #898781; stroke: #898781; stroke-width: 0.8"/>
      </g>
     </g>
     <g id="text_2">
      <!-- 50 -->
      <g style="fill: #898781" transform="translate(85.901202 224.525187) scale(0.08 -0.08)">
       <defs>
        <path id="DejaVuSans-35" d="M 691 4666 
L 3169 4666 
L 3169 4134 
L 1269 4134 
L 1269 2991 
Q 1406 3038 1543 3061 
Q 1681 3084 1819 3084 
Q 2600 3084 3056 2656 
Q 3513 2228 3513 1497 
Q 3513 744 3044 326 
Q 2575 -91 1722 -91 
Q 1428 -91 1123 -41 
Q 819 9 494 109 
L 494 744 
Q 775 591 1075 516 
Q 1375 441 1709 441 
Q 2250 441 2565 725 
Q 2881 1009 2881 1497 
Q 2881 1984 2565 2268 
Q 2250 2553 1709 2553 
Q 1456 2553 1204 2497 
Q 953 2441 691 2322 
L 691 4666 
z
" transform="scale(0.015625)"/>
       </defs>
       <use xlink:href="#DejaVuSans-35"/>
       <use xlink:href="#DejaVuSans-30" transform="translate(63.623047 0)"/>
      </g>
     </g>
    </g>
    <g id="xtick_3">
     <g id="line2d_5">
      <path d="M 136.132092 211.946437 
L 136.132092 19.918437 
" clip-path="url(#p5ca3ad9dd9)" style="fill: none; stroke: #e1e0d9; stroke-width: 0.7; stroke-linecap: round"/>
     </g>
     <g id="line2d_6">
      <g>
       <use xlink:href="#m0cade8e575" x="136.132092" y="211.946437" style="fill: #898781; stroke: #898781; stroke-width: 0.8"/>
      </g>
     </g>
     <g id="text_3">
      <!-- 100 -->
      <g style="fill: #898781" transform="translate(128.497092 224.525187) scale(0.08 -0.08)">
       <defs>
        <path id="DejaVuSans-31" d="M 794 531 
L 1825 531 
L 1825 4091 
L 703 3866 
L 703 4441 
L 1819 4666 
L 2450 4666 
L 2450 531 
L 3481 531 
L 3481 0 
L 794 0 
L 794 531 
z
" transform="scale(0.015625)"/>
       </defs>
       <use xlink:href="#DejaVuSans-31"/>
       <use xlink:href="#DejaVuSans-30" transform="translate(63.623047 0)"/>
       <use xlink:href="#DejaVuSans-30" transform="translate(127.246094 0)"/>
      </g>
     </g>
    </g>
    <g id="xtick_4">
     <g id="line2d_7">
      <path d="M 181.272981 211.946437 
L 181.272981 19.918437 
" clip-path="url(#p5ca3ad9dd9)" style="fill: none; stroke: #e1e0d9; stroke-width: 0.7; stroke-linecap: round"/>
     </g>
     <g id="line2d_8">
      <g>
       <use xlink:href="#m0cade8e575" x="181.272981" y="211.946437" style="fill: #898781; stroke: #898781; stroke-width: 0.8"/>
      </g>
     </g>
     <g id="text_4">
      <!-- 150 -->
      <g style="fill: #898781" transform="translate(173.637981 224.525187) scale(0.08 -0.08)">
       <use xlink:href="#DejaVuSans-31"/>
       <use xlink:href="#DejaVuSans-35" transform="translate(63.623047 0)"/>
       <use xlink:href="#DejaVuSans-30" transform="translate(127.246094 0)"/>
      </g>
     </g>
    </g>
    <g id="xtick_5">
     <g id="line2d_9">
      <path d="M 226.413871 211.946437 
L 226.413871 19.918437 
" clip-path="url(#p5ca3ad9dd9)" style="fill: none; stroke: #e1e0d9; stroke-width: 0.7; stroke-linecap: round"/>
     </g>
     <g id="line2d_10">
      <g>
       <use xlink:href="#m0cade8e575" x="226.413871" y="211.946437" style="fill: #898781; stroke: #898781; stroke-width: 0.8"/>
      </g>
     </g>
     <g id="text_5">
      <!-- 200 -->
      <g style="fill: #898781" transform="translate(218.778871 224.525187) scale(0.08 -0.08)">
       <defs>
        <path id="DejaVuSans-32" d="M 1228 531 
L 3431 531 
L 3431 0 
L 469 0 
L 469 531 
Q 828 903 1448 1529 
Q 2069 2156 2228 2338 
Q 2531 2678 2651 2914 
Q 2772 3150 2772 3378 
Q 2772 3750 2511 3984 
Q 2250 4219 1831 4219 
Q 1534 4219 1204 4116 
Q 875 4013 500 3803 
L 500 4441 
Q 881 4594 1212 4672 
Q 1544 4750 1819 4750 
Q 2544 4750 2975 4387 
Q 3406 4025 3406 3419 
Q 3406 3131 3298 2873 
Q 3191 2616 2906 2266 
Q 2828 2175 2409 1742 
Q 1991 1309 1228 531 
z
" transform="scale(0.015625)"/>
       </defs>
       <use xlink:href="#DejaVuSans-32"/>
       <use xlink:href="#DejaVuSans-30" transform="translate(63.623047 0)"/>
       <use xlink:href="#DejaVuSans-30" transform="translate(127.246094 0)"/>
      </g>
     </g>
    </g>
    <g id="text_6">
     <!-- iteration (V-cycle for multigrid) -->
     <g style="fill: #52514e" transform="translate(75.778707 237.027531) scale(0.09 -0.09)">
      <defs>
       <path id="DejaVuSans-69" d="M 603 3500 
L 1178 3500 
L 1178 0 
L 603 0 
L 603 3500 
z
M 603 4863 
L 1178 4863 
L 1178 4134 
L 603 4134 
L 603 4863 
z
" transform="scale(0.015625)"/>
       <path id="DejaVuSans-74" d="M 1172 4494 
L 1172 3500 
L 2356 3500 
L 2356 3053 
L 1172 3053 
L 1172 1153 
Q 1172 725 1289 603 
Q 1406 481 1766 481 
L 2356 481 
L 2356 0 
L 1766 0 
Q 1100 0 847 248 
Q 594 497 594 1153 
L 594 3053 
L 172 3053 
L 172 3500 
L 594 3500 
L 594 4494 
L 1172 4494 
z
" transform="scale(0.015625)"/>
       <path id="DejaVuSans-65" d="M 3597 1894 
L 3597 1613 
L 953 1613 
Q 991 1019 1311 708 
Q 1631 397 2203 397 
Q 2534 397 2845 478 
Q 3156 559 3463 722 
L 3463 178 
Q 3153 47 2828 -22 
Q 2503 -91 2169 -91 
Q 1331 -91 842 396 
Q 353 884 353 1716 
Q 353 2575 817 3079 
Q 1281 3584 2069 3584 
Q 2775 3584 3186 3129 
Q 3597 2675 3597 1894 
z
M 3022 2063 
Q 3016 2534 2758 2815 
Q 2500 3097 2075 3097 
Q 1594 3097 1305 2825 
Q 1016 2553 972 2059 
L 3022 2063 
z
" transform="scale(0.015625)"/>
       <path id="DejaVuSans-72" d="M 2631 2963 
Q 2534 3019 2420 3045 
Q 2306 3072 2169 3072 
Q 1681 3072 1420 2755 
Q 1159 2438 1159 1844 
L 1159 0 
L 581 0 
L 581 3500 
L 1159 3500 
L 1159 2956 
Q 1341 3275 1631 3429 
Q 1922 3584 2338 3584 
Q 2397 3584 2469 3576 
Q 2541 3569 2628 3553 
L 2631 2963 
z
" transform="scale(0.015625)"/>
       <path id="DejaVuSans-61" d="M 2194 1759 
Q 1497 1759 1228 1600 
Q 959 1441 959 1056 
Q 959 750 1161 570 
Q 1363 391 1709 391 
Q 2188 391 2477 730 
Q 2766 1069 2766 1631 
L 2766 1759 
L 2194 1759 
z
M 3341 1997 
L 3341 0 
L 2766 0 
L 2766 531 
Q 2569 213 2275 61 
Q 1981 -91 1556 -91 
Q 1019 -91 701 211 
Q 384 513 384 1019 
Q 384 1609 779 1909 
Q 1175 2209 1959 2209 
L 2766 2209 
L 2766 2266 
Q 2766 2663 2505 2880 
Q 2244 3097 1772 3097 
Q 1472 3097 1187 3025 
Q 903 2953 641 2809 
L 641 3341 
Q 956 3463 1253 3523 
Q 1550 3584 1831 3584 
Q 2591 3584 2966 3190 
Q 3341 2797 3341 1997 
z
" transform="scale(0.015625)"/>
       <path id="DejaVuSans-6f" d="M 1959 3097 
Q 1497 3097 1228 2736 
Q 959 2375 959 1747 
Q 959 1119 1226 758 
Q 1494 397 1959 397 
Q 2419 397 2687 759 
Q 2956 1122 2956 1747 
Q 2956 2369 2687 2733 
Q 2419 3097 1959 3097 
z
M 1959 3584 
Q 2709 3584 3137 3096 
Q 3566 2609 3566 1747 
Q 3566 888 3137 398 
Q 2709 -91 1959 -91 
Q 1206 -91 779 398 
Q 353 888 353 1747 
Q 353 2609 779 3096 
Q 1206 3584 1959 3584 
z
" transform="scale(0.015625)"/>
       <path id="DejaVuSans-6e" d="M 3513 2113 
L 3513 0 
L 2938 0 
L 2938 2094 
Q 2938 2591 2744 2837 
Q 2550 3084 2163 3084 
Q 1697 3084 1428 2787 
Q 1159 2491 1159 1978 
L 1159 0 
L 581 0 
L 581 3500 
L 1159 3500 
L 1159 2956 
Q 1366 3272 1645 3428 
Q 1925 3584 2291 3584 
Q 2894 3584 3203 3211 
Q 3513 2838 3513 2113 
z
" transform="scale(0.015625)"/>
       <path id="DejaVuSans-20" transform="scale(0.015625)"/>
       <path id="DejaVuSans-28" d="M 1984 4856 
Q 1566 4138 1362 3434 
Q 1159 2731 1159 2009 
Q 1159 1288 1364 580 
Q 1569 -128 1984 -844 
L 1484 -844 
Q 1016 -109 783 600 
Q 550 1309 550 2009 
Q 550 2706 781 3412 
Q 1013 4119 1484 4856 
L 1984 4856 
z
" transform="scale(0.015625)"/>
       <path id="DejaVuSans-56" d="M 1831 0 
L 50 4666 
L 709 4666 
L 2188 738 
L 3669 4666 
L 4325 4666 
L 2547 0 
L 1831 0 
z
" transform="scale(0.015625)"/>
       <path id="DejaVuSans-2d" d="M 313 2009 
L 1997 2009 
L 1997 1497 
L 313 1497 
L 313 2009 
z
" transform="scale(0.015625)"/>
       <path id="DejaVuSans-63" d="M 3122 3366 
L 3122 2828 
Q 2878 2963 2633 3030 
Q 2388 3097 2138 3097 
Q 1578 3097 1268 2742 
Q 959 2388 959 1747 
Q 959 1106 1268 751 
Q 1578 397 2138 397 
Q 2388 397 2633 464 
Q 2878 531 3122 666 
L 3122 134 
Q 2881 22 2623 -34 
Q 2366 -91 2075 -91 
Q 1284 -91 818 406 
Q 353 903 353 1747 
Q 353 2603 823 3093 
Q 1294 3584 2113 3584 
Q 2378 3584 2631 3529 
Q 2884 3475 3122 3366 
z
" transform="scale(0.015625)"/>
       <path id="DejaVuSans-79" d="M 2059 -325 
Q 1816 -950 1584 -1140 
Q 1353 -1331 966 -1331 
L 506 -1331 
L 506 -850 
L 844 -850 
Q 1081 -850 1212 -737 
Q 1344 -625 1503 -206 
L 1606 56 
L 191 3500 
L 800 3500 
L 1894 763 
L 2988 3500 
L 3597 3500 
L 2059 -325 
z
" transform="scale(0.015625)"/>
       <path id="DejaVuSans-6c" d="M 603 4863 
L 1178 4863 
L 1178 0 
L 603 0 
L 603 4863 
z
" transform="scale(0.015625)"/>
       <path id="DejaVuSans-66" d="M 2375 4863 
L 2375 4384 
L 1825 4384 
Q 1516 4384 1395 4259 
Q 1275 4134 1275 3809 
L 1275 3500 
L 2222 3500 
L 2222 3053 
L 1275 3053 
L 1275 0 
L 697 0 
L 697 3053 
L 147 3053 
L 147 3500 
L 697 3500 
L 697 3744 
Q 697 4328 969 4595 
Q 1241 4863 1831 4863 
L 2375 4863 
z
" transform="scale(0.015625)"/>
       <path id="DejaVuSans-6d" d="M 3328 2828 
Q 3544 3216 3844 3400 
Q 4144 3584 4550 3584 
Q 5097 3584 5394 3201 
Q 5691 2819 5691 2113 
L 5691 0 
L 5113 0 
L 5113 2094 
Q 5113 2597 4934 2840 
Q 4756 3084 4391 3084 
Q 3944 3084 3684 2787 
Q 3425 2491 3425 1978 
L 3425 0 
L 2847 0 
L 2847 2094 
Q 2847 2600 2669 2842 
Q 2491 3084 2119 3084 
Q 1678 3084 1418 2786 
Q 1159 2488 1159 1978 
L 1159 0 
L 581 0 
L 581 3500 
L 1159 3500 
L 1159 2956 
Q 1356 3278 1631 3431 
Q 1906 3584 2284 3584 
Q 2666 3584 2933 3390 
Q 3200 3197 3328 2828 
z
" transform="scale(0.015625)"/>
       <path id="DejaVuSans-75" d="M 544 1381 
L 544 3500 
L 1119 3500 
L 1119 1403 
Q 1119 906 1312 657 
Q 1506 409 1894 409 
Q 2359 409 2629 706 
Q 2900 1003 2900 1516 
L 2900 3500 
L 3475 3500 
L 3475 0 
L 2900 0 
L 2900 538 
Q 2691 219 2414 64 
Q 2138 -91 1772 -91 
Q 1169 -91 856 284 
Q 544 659 544 1381 
z
M 1991 3584 
L 1991 3584 
z
" transform="scale(0.015625)"/>
       <path id="DejaVuSans-67" d="M 2906 1791 
Q 2906 2416 2648 2759 
Q 2391 3103 1925 3103 
Q 1463 3103 1205 2759 
Q 947 2416 947 1791 
Q 947 1169 1205 825 
Q 1463 481 1925 481 
Q 2391 481 2648 825 
Q 2906 1169 2906 1791 
z
M 3481 434 
Q 3481 -459 3084 -895 
Q 2688 -1331 1869 -1331 
Q 1566 -1331 1297 -1286 
Q 1028 -1241 775 -1147 
L 775 -588 
Q 1028 -725 1275 -790 
Q 1522 -856 1778 -856 
Q 2344 -856 2625 -561 
Q 2906 -266 2906 331 
L 2906 616 
Q 2728 306 2450 153 
Q 2172 0 1784 0 
Q 1141 0 747 490 
Q 353 981 353 1791 
Q 353 2603 747 3093 
Q 1141 3584 1784 3584 
Q 2172 3584 2450 3431 
Q 2728 3278 2906 2969 
L 2906 3500 
L 3481 3500 
L 3481 434 
z
" transform="scale(0.015625)"/>
       <path id="DejaVuSans-64" d="M 2906 2969 
L 2906 4863 
L 3481 4863 
L 3481 0 
L 2906 0 
L 2906 525 
Q 2725 213 2448 61 
Q 2172 -91 1784 -91 
Q 1150 -91 751 415 
Q 353 922 353 1747 
Q 353 2572 751 3078 
Q 1150 3584 1784 3584 
Q 2172 3584 2448 3432 
Q 2725 3281 2906 2969 
z
M 947 1747 
Q 947 1113 1208 752 
Q 1469 391 1925 391 
Q 2381 391 2643 752 
Q 2906 1113 2906 1747 
Q 2906 2381 2643 2742 
Q 2381 3103 1925 3103 
Q 1469 3103 1208 2742 
Q 947 2381 947 1747 
z
" transform="scale(0.015625)"/>
       <path id="DejaVuSans-29" d="M 513 4856 
L 1013 4856 
Q 1481 4119 1714 3412 
Q 1947 2706 1947 2009 
Q 1947 1309 1714 600 
Q 1481 -109 1013 -844 
L 513 -844 
Q 928 -128 1133 580 
Q 1338 1288 1338 2009 
Q 1338 2731 1133 3434 
Q 928 4138 513 4856 
z
" transform="scale(0.015625)"/>
      </defs>
      <use xlink:href="#DejaVuSans-69"/>
      <use xlink:href="#DejaVuSans-74" transform="translate(27.783203 0)"/>
      <use xlink:href="#DejaVuSans-65" transform="translate(66.992188 0)"/>
      <use xlink:href="#DejaVuSans-72" transform="translate(128.515625 0)"/>
      <use xlink:href="#DejaVuSans-61" transform="translate(169.628906 0)"/>
      <use xlink:href="#DejaVuSans-74" transform="translate(230.908203 0)"/>
      <use xlink:href="#DejaVuSans-69" transform="translate(270.117188 0)"/>
      <use xlink:href="#DejaVuSans-6f" transform="translate(297.900391 0)"/>
      <use xlink:href="#DejaVuSans-6e" transform="translate(359.082031 0)"/>
      <use xlink:href="#DejaVuSans-20" transform="translate(422.460938 0)"/>
      <use xlink:href="#DejaVuSans-28" transform="translate(454.248047 0)"/>
      <use xlink:href="#DejaVuSans-56" transform="translate(493.261719 0)"/>
      <use xlink:href="#DejaVuSans-2d" transform="translate(555.794922 0)"/>
      <use xlink:href="#DejaVuSans-63" transform="translate(591.878906 0)"/>
      <use xlink:href="#DejaVuSans-79" transform="translate(646.859375 0)"/>
      <use xlink:href="#DejaVuSans-63" transform="translate(706.039062 0)"/>
      <use xlink:href="#DejaVuSans-6c" transform="translate(761.019531 0)"/>
      <use xlink:href="#DejaVuSans-65" transform="translate(788.802734 0)"/>
      <use xlink:href="#DejaVuSans-20" transform="translate(850.326172 0)"/>
      <use xlink:href="#DejaVuSans-66" transform="translate(882.113281 0)"/>
      <use xlink:href="#DejaVuSans-6f" transform="translate(917.318359 0)"/>
      <use xlink:href="#DejaVuSans-72" transform="translate(978.5 0)"/>
      <use xlink:href="#DejaVuSans-20" transform="translate(1019.613281 0)"/>
      <use xlink:href="#DejaVuSans-6d" transform="translate(1051.400391 0)"/>
      <use xlink:href="#DejaVuSans-75" transform="translate(1148.8125 0)"/>
      <use xlink:href="#DejaVuSans-6c" transform="translate(1212.191406 0)"/>
      <use xlink:href="#DejaVuSans-74" transform="translate(1239.974609 0)"/>
      <use xlink:href="#DejaVuSans-69" transform="translate(1279.183594 0)"/>
      <use xlink:href="#DejaVuSans-67" transform="translate(1306.966797 0)"/>
      <use xlink:href="#DejaVuSans-72" transform="translate(1370.443359 0)"/>
      <use xlink:href="#DejaVuSans-69" transform="translate(1411.556641 0)"/>
      <use xlink:href="#DejaVuSans-64" transform="translate(1439.339844 0)"/>
      <use xlink:href="#DejaVuSans-29" transform="translate(1502.816406 0)"/>
     </g>
    </g>
   </g>
   <g id="matplotlib.axis_2">
    <g id="ytick_1">
     <g id="line2d_11">
      <path d="M 45.850313 189.28836 
L 244.470227 189.28836 
" clip-path="url(#p5ca3ad9dd9)" style="fill: none; stroke: #e1e0d9; stroke-width: 0.7; stroke-linecap: round"/>
     </g>
     <g id="line2d_12">
      <defs>
       <path id="mbeee703105" d="M 0 0 
L -3 0 
" style="stroke: #898781; stroke-width: 0.8"/>
      </defs>
      <g>
       <use xlink:href="#mbeee703105" x="45.850313" y="189.28836" style="fill: #898781; stroke: #898781; stroke-width: 0.8"/>
      </g>
     </g>
     <g id="text_7">
      <!-- $\mathdefault{10^{-10}}$ -->
      <g style="fill: #898781" transform="translate(17.030313 192.327735) scale(0.08 -0.08)">
       <defs>
        <path id="DejaVuSans-2212" d="M 678 2272 
L 4684 2272 
L 4684 1741 
L 678 1741 
L 678 2272 
z
" transform="scale(0.015625)"/>
       </defs>
       <use xlink:href="#DejaVuSans-31" transform="translate(0 0.765625)"/>
       <use xlink:href="#DejaVuSans-30" transform="translate(63.623047 0.765625)"/>
       <use xlink:href="#DejaVuSans-2212" transform="translate(128.203125 39.046875) scale(0.7)"/>
       <use xlink:href="#DejaVuSans-31" transform="translate(186.855469 39.046875) scale(0.7)"/>
       <use xlink:href="#DejaVuSans-30" transform="translate(231.391602 39.046875) scale(0.7)"/>
      </g>
     </g>
    </g>
    <g id="ytick_2">
     <g id="line2d_13">
      <path d="M 45.850313 153.340663 
L 244.470227 153.340663 
" clip-path="url(#p5ca3ad9dd9)" style="fill: none; stroke: #e1e0d9; stroke-width: 0.7; stroke-linecap: round"/>
     </g>
     <g id="line2d_14">
      <g>
       <use xlink:href="#mbeee703105" x="45.850313" y="153.340663" style="fill: #898781; stroke: #898781; stroke-width: 0.8"/>
      </g>
     </g>
     <g id="text_8">
      <!-- $\mathdefault{10^{-8}}$ -->
      <g style="fill: #898781" transform="translate(20.550313 156.380038) scale(0.08 -0.08)">
       <defs>
        <path id="DejaVuSans-38" d="M 2034 2216 
Q 1584 2216 1326 1975 
Q 1069 1734 1069 1313 
Q 1069 891 1326 650 
Q 1584 409 2034 409 
Q 2484 409 2743 651 
Q 3003 894 3003 1313 
Q 3003 1734 2745 1975 
Q 2488 2216 2034 2216 
z
M 1403 2484 
Q 997 2584 770 2862 
Q 544 3141 544 3541 
Q 544 4100 942 4425 
Q 1341 4750 2034 4750 
Q 2731 4750 3128 4425 
Q 3525 4100 3525 3541 
Q 3525 3141 3298 2862 
Q 3072 2584 2669 2484 
Q 3125 2378 3379 2068 
Q 3634 1759 3634 1313 
Q 3634 634 3220 271 
Q 2806 -91 2034 -91 
Q 1263 -91 848 271 
Q 434 634 434 1313 
Q 434 1759 690 2068 
Q 947 2378 1403 2484 
z
M 1172 3481 
Q 1172 3119 1398 2916 
Q 1625 2713 2034 2713 
Q 2441 2713 2670 2916 
Q 2900 3119 2900 3481 
Q 2900 3844 2670 4047 
Q 2441 4250 2034 4250 
Q 1625 4250 1398 4047 
Q 1172 3844 1172 3481 
z
" transform="scale(0.015625)"/>
       </defs>
       <use xlink:href="#DejaVuSans-31" transform="translate(0 0.765625)"/>
       <use xlink:href="#DejaVuSans-30" transform="translate(63.623047 0.765625)"/>
       <use xlink:href="#DejaVuSans-2212" transform="translate(128.203125 39.046875) scale(0.7)"/>
       <use xlink:href="#DejaVuSans-38" transform="translate(186.855469 39.046875) scale(0.7)"/>
      </g>
     </g>
    </g>
    <g id="ytick_3">
     <g id="line2d_15">
      <path d="M 45.850313 117.392966 
L 244.470227 117.392966 
" clip-path="url(#p5ca3ad9dd9)" style="fill: none; stroke: #e1e0d9; stroke-width: 0.7; stroke-linecap: round"/>
     </g>
     <g id="line2d_16">
      <g>
       <use xlink:href="#mbeee703105" x="45.850313" y="117.392966" style="fill: #898781; stroke: #898781; stroke-width: 0.8"/>
      </g>
     </g>
     <g id="text_9">
      <!-- $\mathdefault{10^{-6}}$ -->
      <g style="fill: #898781" transform="translate(20.550313 120.432341) scale(0.08 -0.08)">
       <defs>
        <path id="DejaVuSans-36" d="M 2113 2584 
Q 1688 2584 1439 2293 
Q 1191 2003 1191 1497 
Q 1191 994 1439 701 
Q 1688 409 2113 409 
Q 2538 409 2786 701 
Q 3034 994 3034 1497 
Q 3034 2003 2786 2293 
Q 2538 2584 2113 2584 
z
M 3366 4563 
L 3366 3988 
Q 3128 4100 2886 4159 
Q 2644 4219 2406 4219 
Q 1781 4219 1451 3797 
Q 1122 3375 1075 2522 
Q 1259 2794 1537 2939 
Q 1816 3084 2150 3084 
Q 2853 3084 3261 2657 
Q 3669 2231 3669 1497 
Q 3669 778 3244 343 
Q 2819 -91 2113 -91 
Q 1303 -91 875 529 
Q 447 1150 447 2328 
Q 447 3434 972 4092 
Q 1497 4750 2381 4750 
Q 2619 4750 2861 4703 
Q 3103 4656 3366 4563 
z
" transform="scale(0.015625)"/>
       </defs>
       <use xlink:href="#DejaVuSans-31" transform="translate(0 0.765625)"/>
       <use xlink:href="#DejaVuSans-30" transform="translate(63.623047 0.765625)"/>
       <use xlink:href="#DejaVuSans-2212" transform="translate(128.203125 39.046875) scale(0.7)"/>
       <use xlink:href="#DejaVuSans-36" transform="translate(186.855469 39.046875) scale(0.7)"/>
      </g>
     </g>
    </g>
    <g id="ytick_4">
     <g id="line2d_17">
      <path d="M 45.850313 81.445268 
L 244.470227 81.445268 
" clip-path="url(#p5ca3ad9dd9)" style="fill: none; stroke: #e1e0d9; stroke-width: 0.7; stroke-linecap: round"/>
     </g>
     <g id="line2d_18">
      <g>
       <use xlink:href="#mbeee703105" x="45.850313" y="81.445268" style="fill: #898781; stroke: #898781; stroke-width: 0.8"/>
      </g>
     </g>
     <g id="text_10">
      <!-- $\mathdefault{10^{-4}}$ -->
      <g style="fill: #898781" transform="translate(20.550313 84.484643) scale(0.08 -0.08)">
       <defs>
        <path id="DejaVuSans-34" d="M 2419 4116 
L 825 1625 
L 2419 1625 
L 2419 4116 
z
M 2253 4666 
L 3047 4666 
L 3047 1625 
L 3713 1625 
L 3713 1100 
L 3047 1100 
L 3047 0 
L 2419 0 
L 2419 1100 
L 313 1100 
L 313 1709 
L 2253 4666 
z
" transform="scale(0.015625)"/>
       </defs>
       <use xlink:href="#DejaVuSans-31" transform="translate(0 0.684375)"/>
       <use xlink:href="#DejaVuSans-30" transform="translate(63.623047 0.684375)"/>
       <use xlink:href="#DejaVuSans-2212" transform="translate(128.203125 38.965625) scale(0.7)"/>
       <use xlink:href="#DejaVuSans-34" transform="translate(186.855469 38.965625) scale(0.7)"/>
      </g>
     </g>
    </g>
    <g id="ytick_5">
     <g id="line2d_19">
      <path d="M 45.850313 45.497571 
L 244.470227 45.497571 
" clip-path="url(#p5ca3ad9dd9)" style="fill: none; stroke: #e1e0d9; stroke-width: 0.7; stroke-linecap: round"/>
     </g>
     <g id="line2d_20">
      <g>
       <use xlink:href="#mbeee703105" x="45.850313" y="45.497571" style="fill: #898781; stroke: #898781; stroke-width: 0.8"/>
      </g>
     </g>
     <g id="text_11">
      <!-- $\mathdefault{10^{-2}}$ -->
      <g style="fill: #898781" transform="translate(20.550313 48.536946) scale(0.08 -0.08)">
       <use xlink:href="#DejaVuSans-31" transform="translate(0 0.765625)"/>
       <use xlink:href="#DejaVuSans-30" transform="translate(63.623047 0.765625)"/>
       <use xlink:href="#DejaVuSans-2212" transform="translate(128.203125 39.046875) scale(0.7)"/>
       <use xlink:href="#DejaVuSans-32" transform="translate(186.855469 39.046875) scale(0.7)"/>
      </g>
     </g>
    </g>
    <g id="text_12">
     <!-- residual norm -->
     <g style="fill: #52514e" transform="translate(11.158594 146.950797) rotate(-90) scale(0.09 -0.09)">
      <defs>
       <path id="DejaVuSans-73" d="M 2834 3397 
L 2834 2853 
Q 2591 2978 2328 3040 
Q 2066 3103 1784 3103 
Q 1356 3103 1142 2972 
Q 928 2841 928 2578 
Q 928 2378 1081 2264 
Q 1234 2150 1697 2047 
L 1894 2003 
Q 2506 1872 2764 1633 
Q 3022 1394 3022 966 
Q 3022 478 2636 193 
Q 2250 -91 1575 -91 
Q 1294 -91 989 -36 
Q 684 19 347 128 
L 347 722 
Q 666 556 975 473 
Q 1284 391 1588 391 
Q 1994 391 2212 530 
Q 2431 669 2431 922 
Q 2431 1156 2273 1281 
Q 2116 1406 1581 1522 
L 1381 1569 
Q 847 1681 609 1914 
Q 372 2147 372 2553 
Q 372 3047 722 3315 
Q 1072 3584 1716 3584 
Q 2034 3584 2315 3537 
Q 2597 3491 2834 3397 
z
" transform="scale(0.015625)"/>
      </defs>
      <use xlink:href="#DejaVuSans-72"/>
      <use xlink:href="#DejaVuSans-65" transform="translate(38.863281 0)"/>
      <use xlink:href="#DejaVuSans-73" transform="translate(100.386719 0)"/>
      <use xlink:href="#DejaVuSans-69" transform="translate(152.486328 0)"/>
      <use xlink:href="#DejaVuSans-64" transform="translate(180.269531 0)"/>
      <use xlink:href="#DejaVuSans-75" transform="translate(243.746094 0)"/>
      <use xlink:href="#DejaVuSans-61" transform="translate(307.125 0)"/>
      <use xlink:href="#DejaVuSans-6c" transform="translate(368.404297 0)"/>
      <use xlink:href="#DejaVuSans-20" transform="translate(396.1875 0)"/>
      <use xlink:href="#DejaVuSans-6e" transform="translate(427.974609 0)"/>
      <use xlink:href="#DejaVuSans-6f" transform="translate(491.353516 0)"/>
      <use xlink:href="#DejaVuSans-72" transform="translate(552.535156 0)"/>
      <use xlink:href="#DejaVuSans-6d" transform="translate(591.898438 0)"/>
     </g>
    </g>
   </g>
   <g id="line2d_21">
    <path d="M 45.850313 51.195824 
L 245.373045 59.522781 
L 245.373045 59.522781 
" clip-path="url(#p5ca3ad9dd9)" style="fill: none; stroke: #2a78d6; stroke-width: 2; stroke-linecap: round"/>
   </g>
   <g id="line2d_22">
    <path d="M 45.850313 45.85953 
L 245.373045 62.433021 
L 245.373045 62.433021 
" clip-path="url(#p5ca3ad9dd9)" style="fill: none; stroke: #eb6834; stroke-width: 2; stroke-linecap: round"/>
   </g>
   <g id="line2d_23">
    <path d="M 45.850313 29.210298 
L 70.226393 45.286573 
L 78.351753 54.587995 
L 84.671478 64.966756 
L 90.088384 74.532788 
L 100.01938 84.276555 
L 115.367283 111.892432 
L 123.492643 124.187734 
L 132.520821 139.000991 
L 155.091265 175.343163 
L 160.508172 184.994849 
L 163.216626 188.61523 
L 164.119443 189.934809 
L 164.119443 189.934809 
" clip-path="url(#p5ca3ad9dd9)" style="fill: none; stroke: #1baf7a; stroke-width: 2; stroke-linecap: round"/>
   </g>
   <g id="line2d_24">
    <path d="M 45.850313 28.646983 
L 46.75313 50.468273 
L 47.655948 72.289553 
L 48.558766 94.110827 
L 49.461584 115.932098 
L 50.364401 137.753367 
L 51.267219 159.574637 
L 52.170037 181.395882 
L 53.072855 203.217892 
" clip-path="url(#p5ca3ad9dd9)" style="fill: none; stroke: #eda100; stroke-width: 2; stroke-linecap: round"/>
   </g>
   <g id="patch_3">
    <path d="M 45.850313 211.946437 
L 45.850313 19.918437 
" style="fill: none; stroke: #c3c2b7; stroke-width: 0.8; stroke-linejoin: miter; stroke-linecap: square"/>
   </g>
   <g id="patch_4">
    <path d="M 45.850313 211.946437 
L 244.470227 211.946437 
" style="fill: none; stroke: #c3c2b7; stroke-width: 0.8; stroke-linejoin: miter; stroke-linecap: square"/>
   </g>
   <g id="text_13">
    <!-- Residual on a 32x32 grid -->
    <g style="fill: #0b0b0b" transform="translate(45.850313 11.918437) scale(0.1 -0.1)">
     <defs>
      <path id="DejaVuSans-Bold-52" d="M 2297 2597 
Q 2675 2597 2839 2737 
Q 3003 2878 3003 3200 
Q 3003 3519 2839 3656 
Q 2675 3794 2297 3794 
L 1791 3794 
L 1791 2597 
L 2297 2597 
z
M 1791 1766 
L 1791 0 
L 588 0 
L 588 4666 
L 2425 4666 
Q 3347 4666 3776 4356 
Q 4206 4047 4206 3378 
Q 4206 2916 3982 2619 
Q 3759 2322 3309 2181 
Q 3556 2125 3751 1926 
Q 3947 1728 4147 1325 
L 4800 0 
L 3519 0 
L 2950 1159 
Q 2778 1509 2601 1637 
Q 2425 1766 2131 1766 
L 1791 1766 
z
" transform="scale(0.015625)"/>
      <path id="DejaVuSans-Bold-65" d="M 4031 1759 
L 4031 1441 
L 1416 1441 
Q 1456 1047 1700 850 
Q 1944 653 2381 653 
Q 2734 653 3104 758 
Q 3475 863 3866 1075 
L 3866 213 
Q 3469 63 3072 -14 
Q 2675 -91 2278 -91 
Q 1328 -91 801 392 
Q 275 875 275 1747 
Q 275 2603 792 3093 
Q 1309 3584 2216 3584 
Q 3041 3584 3536 3087 
Q 4031 2591 4031 1759 
z
M 2881 2131 
Q 2881 2450 2695 2645 
Q 2509 2841 2209 2841 
Q 1884 2841 1681 2658 
Q 1478 2475 1428 2131 
L 2881 2131 
z
" transform="scale(0.015625)"/>
      <path id="DejaVuSans-Bold-73" d="M 3272 3391 
L 3272 2541 
Q 2913 2691 2578 2766 
Q 2244 2841 1947 2841 
Q 1628 2841 1473 2761 
Q 1319 2681 1319 2516 
Q 1319 2381 1436 2309 
Q 1553 2238 1856 2203 
L 2053 2175 
Q 2913 2066 3209 1816 
Q 3506 1566 3506 1031 
Q 3506 472 3093 190 
Q 2681 -91 1863 -91 
Q 1516 -91 1145 -36 
Q 775 19 384 128 
L 384 978 
Q 719 816 1070 734 
Q 1422 653 1784 653 
Q 2113 653 2278 743 
Q 2444 834 2444 1013 
Q 2444 1163 2330 1236 
Q 2216 1309 1875 1350 
L 1678 1375 
Q 931 1469 631 1722 
Q 331 1975 331 2491 
Q 331 3047 712 3315 
Q 1094 3584 1881 3584 
Q 2191 3584 2531 3537 
Q 2872 3491 3272 3391 
z
" transform="scale(0.015625)"/>
      <path id="DejaVuSans-Bold-69" d="M 538 3500 
L 1656 3500 
L 1656 0 
L 538 0 
L 538 3500 
z
M 538 4863 
L 1656 4863 
L 1656 3950 
L 538 3950 
L 538 4863 
z
" transform="scale(0.015625)"/>
      <path id="DejaVuSans-Bold-64" d="M 2919 2988 
L 2919 4863 
L 4044 4863 
L 4044 0 
L 2919 0 
L 2919 506 
Q 2688 197 2409 53 
Q 2131 -91 1766 -91 
Q 1119 -91 703 423 
Q 288 938 288 1747 
Q 288 2556 703 3070 
Q 1119 3584 1766 3584 
Q 2128 3584 2408 3439 
Q 2688 3294 2919 2988 
z
M 2181 722 
Q 2541 722 2730 984 
Q 2919 1247 2919 1747 
Q 2919 2247 2730 2509 
Q 2541 2772 2181 2772 
Q 1825 2772 1636 2509 
Q 1447 2247 1447 1747 
Q 1447 1247 1636 984 
Q 1825 722 2181 722 
z
" transform="scale(0.015625)"/>
      <path id="DejaVuSans-Bold-75" d="M 500 1363 
L 500 3500 
L 1625 3500 
L 1625 3150 
Q 1625 2866 1622 2436 
Q 1619 2006 1619 1863 
Q 1619 1441 1641 1255 
Q 1663 1069 1716 984 
Q 1784 875 1895 815 
Q 2006 756 2150 756 
Q 2500 756 2700 1025 
Q 2900 1294 2900 1772 
L 2900 3500 
L 4019 3500 
L 4019 0 
L 2900 0 
L 2900 506 
Q 2647 200 2364 54 
Q 2081 -91 1741 -91 
Q 1134 -91 817 281 
Q 500 653 500 1363 
z
" transform="scale(0.015625)"/>
      <path id="DejaVuSans-Bold-61" d="M 2106 1575 
Q 1756 1575 1579 1456 
Q 1403 1338 1403 1106 
Q 1403 894 1545 773 
Q 1688 653 1941 653 
Q 2256 653 2472 879 
Q 2688 1106 2688 1447 
L 2688 1575 
L 2106 1575 
z
M 3816 1997 
L 3816 0 
L 2688 0 
L 2688 519 
Q 2463 200 2181 54 
Q 1900 -91 1497 -91 
Q 953 -91 614 226 
Q 275 544 275 1050 
Q 275 1666 698 1953 
Q 1122 2241 2028 2241 
L 2688 2241 
L 2688 2328 
Q 2688 2594 2478 2717 
Q 2269 2841 1825 2841 
Q 1466 2841 1156 2769 
Q 847 2697 581 2553 
L 581 3406 
Q 941 3494 1303 3539 
Q 1666 3584 2028 3584 
Q 2975 3584 3395 3211 
Q 3816 2838 3816 1997 
z
" transform="scale(0.015625)"/>
      <path id="DejaVuSans-Bold-6c" d="M 538 4863 
L 1656 4863 
L 1656 0 
L 538 0 
L 538 4863 
z
" transform="scale(0.015625)"/>
      <path id="DejaVuSans-Bold-20" transform="scale(0.015625)"/>
      <path id="DejaVuSans-Bold-6f" d="M 2203 2784 
Q 1831 2784 1636 2517 
Q 1441 2250 1441 1747 
Q 1441 1244 1636 976 
Q 1831 709 2203 709 
Q 2569 709 2762 976 
Q 2956 1244 2956 1747 
Q 2956 2250 2762 2517 
Q 2569 2784 2203 2784 
z
M 2203 3584 
Q 3106 3584 3614 3096 
Q 4122 2609 4122 1747 
Q 4122 884 3614 396 
Q 3106 -91 2203 -91 
Q 1297 -91 786 396 
Q 275 884 275 1747 
Q 275 2609 786 3096 
Q 1297 3584 2203 3584 
z
" transform="scale(0.015625)"/>
      <path id="DejaVuSans-Bold-6e" d="M 4056 2131 
L 4056 0 
L 2931 0 
L 2931 347 
L 2931 1631 
Q 2931 2084 2911 2256 
Q 2891 2428 2841 2509 
Q 2775 2619 2662 2680 
Q 2550 2741 2406 2741 
Q 2056 2741 1856 2470 
Q 1656 2200 1656 1722 
L 1656 0 
L 538 0 
L 538 3500 
L 1656 3500 
L 1656 2988 
Q 1909 3294 2193 3439 
Q 2478 3584 2822 3584 
Q 3428 3584 3742 3212 
Q 4056 2841 4056 2131 
z
" transform="scale(0.015625)"/>
      <path id="DejaVuSans-Bold-33" d="M 2981 2516 
Q 3453 2394 3698 2092 
Q 3944 1791 3944 1325 
Q 3944 631 3412 270 
Q 2881 -91 1863 -91 
Q 1503 -91 1142 -33 
Q 781 25 428 141 
L 428 1069 
Q 766 900 1098 814 
Q 1431 728 1753 728 
Q 2231 728 2486 893 
Q 2741 1059 2741 1369 
Q 2741 1688 2480 1852 
Q 2219 2016 1709 2016 
L 1228 2016 
L 1228 2791 
L 1734 2791 
Q 2188 2791 2409 2933 
Q 2631 3075 2631 3366 
Q 2631 3634 2415 3781 
Q 2200 3928 1806 3928 
Q 1516 3928 1219 3862 
Q 922 3797 628 3669 
L 628 4550 
Q 984 4650 1334 4700 
Q 1684 4750 2022 4750 
Q 2931 4750 3382 4451 
Q 3834 4153 3834 3553 
Q 3834 3144 3618 2883 
Q 3403 2622 2981 2516 
z
" transform="scale(0.015625)"/>
      <path id="DejaVuSans-Bold-32" d="M 1844 884 
L 3897 884 
L 3897 0 
L 506 0 
L 506 884 
L 2209 2388 
Q 2438 2594 2547 2791 
Q 2656 2988 2656 3200 
Q 2656 3528 2436 3728 
Q 2216 3928 1850 3928 
Q 1569 3928 1234 3808 
Q 900 3688 519 3450 
L 519 4475 
Q 925 4609 1322 4679 
Q 1719 4750 2100 4750 
Q 2938 4750 3402 4381 
Q 3866 4013 3866 3353 
Q 3866 2972 3669 2642 
Q 3472 2313 2841 1759 
L 1844 884 
z
" transform="scale(0.015625)"/>
      <path id="DejaVuSans-Bold-78" d="M 1422 1791 
L 159 3500 
L 1344 3500 
L 2059 2463 
L 2784 3500 
L 3969 3500 
L 2706 1797 
L 4031 0 
L 2847 0 
L 2059 1106 
L 1281 0 
L 97 0 
L 1422 1791 
z
" transform="scale(0.015625)"/>
      <path id="DejaVuSans-Bold-67" d="M 2919 594 
Q 2688 288 2409 144 
Q 2131 0 1766 0 
Q 1125 0 706 504 
Q 288 1009 288 1791 
Q 288 2575 706 3076 
Q 1125 3578 1766 3578 
Q 2131 3578 2409 3434 
Q 2688 3291 2919 2981 
L 2919 3500 
L 4044 3500 
L 4044 353 
Q 4044 -491 3511 -936 
Q 2978 -1381 1966 -1381 
Q 1638 -1381 1331 -1331 
Q 1025 -1281 716 -1178 
L 716 -306 
Q 1009 -475 1290 -558 
Q 1572 -641 1856 -641 
Q 2406 -641 2662 -400 
Q 2919 -159 2919 353 
L 2919 594 
z
M 2181 2772 
Q 1834 2772 1640 2515 
Q 1447 2259 1447 1791 
Q 1447 1309 1634 1061 
Q 1822 813 2181 813 
Q 2531 813 2725 1069 
Q 2919 1325 2919 1791 
Q 2919 2259 2725 2515 
Q 2531 2772 2181 2772 
z
" transform="scale(0.015625)"/>
      <path id="DejaVuSans-Bold-72" d="M 3138 2547 
Q 2991 2616 2845 2648 
Q 2700 2681 2553 2681 
Q 2122 2681 1889 2404 
Q 1656 2128 1656 1613 
L 1656 0 
L 538 0 
L 538 3500 
L 1656 3500 
L 1656 2925 
Q 1872 3269 2151 3426 
Q 2431 3584 2822 3584 
Q 2878 3584 2943 3579 
Q 3009 3575 3134 3559 
L 3138 2547 
z
" transform="scale(0.015625)"/>
     </defs>
     <use xlink:href="#DejaVuSans-Bold-52"/>
     <use xlink:href="#DejaVuSans-Bold-65" transform="translate(77.001953 0)"/>
     <use xlink:href="#DejaVuSans-Bold-73" transform="translate(144.824219 0)"/>
     <use xlink:href="#DejaVuSans-Bold-69" transform="translate(204.345703 0)"/>
     <use xlink:href="#DejaVuSans-Bold-64" transform="translate(238.623047 0)"/>
     <use xlink:href="#DejaVuSans-Bold-75" transform="translate(310.205078 0)"/>
     <use xlink:href="#DejaVuSans-Bold-61" transform="translate(381.396484 0)"/>
     <use xlink:href="#DejaVuSans-Bold-6c" transform="translate(448.876953 0)"/>
     <use xlink:href="#DejaVuSans-Bold-20" transform="translate(483.154297 0)"/>
     <use xlink:href="#DejaVuSans-Bold-6f" transform="translate(517.96875 0)"/>
     <use xlink:href="#DejaVuSans-Bold-6e" transform="translate(586.669922 0)"/>
     <use xlink:href="#DejaVuSans-Bold-20" transform="translate(657.861328 0)"/>
     <use xlink:href="#DejaVuSans-Bold-61" transform="translate(692.675781 0)"/>
     <use xlink:href="#DejaVuSans-Bold-20" transform="translate(760.15625 0)"/>
     <use xlink:href="#DejaVuSans-Bold-33" transform="translate(794.970703 0)"/>
     <use xlink:href="#DejaVuSans-Bold-32" transform="translate(864.550781 0)"/>
     <use xlink:href="#DejaVuSans-Bold-78" transform="translate(934.130859 0)"/>
     <use xlink:href="#DejaVuSans-Bold-33" transform="translate(998.632812 0)"/>
     <use xlink:href="#DejaVuSans-Bold-32" transform="translate(1068.212891 0)"/>
     <use xlink:href="#DejaVuSans-Bold-20" transform="translate(1137.792969 0)"/>
     <use xlink:href="#DejaVuSans-Bold-67" transform="translate(1172.607422 0)"/>
     <use xlink:href="#DejaVuSans-Bold-72" transform="translate(1244.189453 0)"/>
     <use xlink:href="#DejaVuSans-Bold-69" transform="translate(1293.505859 0)"/>
     <use xlink:href="#DejaVuSans-Bold-64" transform="translate(1327.783203 0)"/>
    </g>
   </g>
   <g id="legend_1">
    <g id="line2d_25">
     <path d="M 109.711477 29.597187 
L 116.111477 29.597187 
L 122.511477 29.597187 
" style="fill: none; stroke: #2a78d6; stroke-width: 2; stroke-linecap: round"/>
    </g>
    <g id="text_14">
     <!-- Jacobi — 3,667 -->
     <g style="fill: #52514e" transform="translate(127.311477 32.397187) scale(0.08 -0.08)">
      <defs>
       <path id="DejaVuSans-4a" d="M 628 4666 
L 1259 4666 
L 1259 325 
Q 1259 -519 939 -900 
Q 619 -1281 -91 -1281 
L -331 -1281 
L -331 -750 
L -134 -750 
Q 284 -750 456 -515 
Q 628 -281 628 325 
L 628 4666 
z
" transform="scale(0.015625)"/>
       <path id="DejaVuSans-62" d="M 3116 1747 
Q 3116 2381 2855 2742 
Q 2594 3103 2138 3103 
Q 1681 3103 1420 2742 
Q 1159 2381 1159 1747 
Q 1159 1113 1420 752 
Q 1681 391 2138 391 
Q 2594 391 2855 752 
Q 3116 1113 3116 1747 
z
M 1159 2969 
Q 1341 3281 1617 3432 
Q 1894 3584 2278 3584 
Q 2916 3584 3314 3078 
Q 3713 2572 3713 1747 
Q 3713 922 3314 415 
Q 2916 -91 2278 -91 
Q 1894 -91 1617 61 
Q 1341 213 1159 525 
L 1159 0 
L 581 0 
L 581 4863 
L 1159 4863 
L 1159 2969 
z
" transform="scale(0.015625)"/>
       <path id="DejaVuSans-2014" d="M 313 1978 
L 6088 1978 
L 6088 1528 
L 313 1528 
L 313 1978 
z
" transform="scale(0.015625)"/>
       <path id="DejaVuSans-33" d="M 2597 2516 
Q 3050 2419 3304 2112 
Q 3559 1806 3559 1356 
Q 3559 666 3084 287 
Q 2609 -91 1734 -91 
Q 1441 -91 1130 -33 
Q 819 25 488 141 
L 488 750 
Q 750 597 1062 519 
Q 1375 441 1716 441 
Q 2309 441 2620 675 
Q 2931 909 2931 1356 
Q 2931 1769 2642 2001 
Q 2353 2234 1838 2234 
L 1294 2234 
L 1294 2753 
L 1863 2753 
Q 2328 2753 2575 2939 
Q 2822 3125 2822 3475 
Q 2822 3834 2567 4026 
Q 2313 4219 1838 4219 
Q 1578 4219 1281 4162 
Q 984 4106 628 3988 
L 628 4550 
Q 988 4650 1302 4700 
Q 1616 4750 1894 4750 
Q 2613 4750 3031 4423 
Q 3450 4097 3450 3541 
Q 3450 3153 3228 2886 
Q 3006 2619 2597 2516 
z
" transform="scale(0.015625)"/>
       <path id="DejaVuSans-2c" d="M 750 794 
L 1409 794 
L 1409 256 
L 897 -744 
L 494 -744 
L 750 256 
L 750 794 
z
" transform="scale(0.015625)"/>
       <path id="DejaVuSans-37" d="M 525 4666 
L 3525 4666 
L 3525 4397 
L 1831 0 
L 1172 0 
L 2766 4134 
L 525 4134 
L 525 4666 
z
" transform="scale(0.015625)"/>
      </defs>
      <use xlink:href="#DejaVuSans-4a"/>
      <use xlink:href="#DejaVuSans-61" transform="translate(29.492188 0)"/>
      <use xlink:href="#DejaVuSans-63" transform="translate(90.771484 0)"/>
      <use xlink:href="#DejaVuSans-6f" transform="translate(145.751953 0)"/>
      <use xlink:href="#DejaVuSans-62" transform="translate(206.933594 0)"/>
      <use xlink:href="#DejaVuSans-69" transform="translate(270.410156 0)"/>
      <use xlink:href="#DejaVuSans-20" transform="translate(298.193359 0)"/>
      <use xlink:href="#DejaVuSans-2014" transform="translate(329.980469 0)"/>
      <use xlink:href="#DejaVuSans-20" transform="translate(429.980469 0)"/>
      <use xlink:href="#DejaVuSans-33" transform="translate(461.767578 0)"/>
      <use xlink:href="#DejaVuSans-2c" transform="translate(525.390625 0)"/>
      <use xlink:href="#DejaVuSans-36" transform="translate(557.177734 0)"/>
      <use xlink:href="#DejaVuSans-36" transform="translate(620.800781 0)"/>
      <use xlink:href="#DejaVuSans-37" transform="translate(684.423828 0)"/>
     </g>
    </g>
    <g id="line2d_26">
     <path d="M 109.711477 41.339687 
L 116.111477 41.339687 
L 122.511477 41.339687 
" style="fill: none; stroke: #eb6834; stroke-width: 2; stroke-linecap: round"/>
    </g>
    <g id="text_15">
     <!-- Gauss-Seidel — 1,906 -->
     <g style="fill: #52514e" transform="translate(127.311477 44.139687) scale(0.08 -0.08)">
      <defs>
       <path id="DejaVuSans-47" d="M 3809 666 
L 3809 1919 
L 2778 1919 
L 2778 2438 
L 4434 2438 
L 4434 434 
Q 4069 175 3628 42 
Q 3188 -91 2688 -91 
Q 1594 -91 976 548 
Q 359 1188 359 2328 
Q 359 3472 976 4111 
Q 1594 4750 2688 4750 
Q 3144 4750 3555 4637 
Q 3966 4525 4313 4306 
L 4313 3634 
Q 3963 3931 3569 4081 
Q 3175 4231 2741 4231 
Q 1884 4231 1454 3753 
Q 1025 3275 1025 2328 
Q 1025 1384 1454 906 
Q 1884 428 2741 428 
Q 3075 428 3337 486 
Q 3600 544 3809 666 
z
" transform="scale(0.015625)"/>
       <path id="DejaVuSans-53" d="M 3425 4513 
L 3425 3897 
Q 3066 4069 2747 4153 
Q 2428 4238 2131 4238 
Q 1616 4238 1336 4038 
Q 1056 3838 1056 3469 
Q 1056 3159 1242 3001 
Q 1428 2844 1947 2747 
L 2328 2669 
Q 3034 2534 3370 2195 
Q 3706 1856 3706 1288 
Q 3706 609 3251 259 
Q 2797 -91 1919 -91 
Q 1588 -91 1214 -16 
Q 841 59 441 206 
L 441 856 
Q 825 641 1194 531 
Q 1563 422 1919 422 
Q 2459 422 2753 634 
Q 3047 847 3047 1241 
Q 3047 1584 2836 1778 
Q 2625 1972 2144 2069 
L 1759 2144 
Q 1053 2284 737 2584 
Q 422 2884 422 3419 
Q 422 4038 858 4394 
Q 1294 4750 2059 4750 
Q 2388 4750 2728 4690 
Q 3069 4631 3425 4513 
z
" transform="scale(0.015625)"/>
       <path id="DejaVuSans-39" d="M 703 97 
L 703 672 
Q 941 559 1184 500 
Q 1428 441 1663 441 
Q 2288 441 2617 861 
Q 2947 1281 2994 2138 
Q 2813 1869 2534 1725 
Q 2256 1581 1919 1581 
Q 1219 1581 811 2004 
Q 403 2428 403 3163 
Q 403 3881 828 4315 
Q 1253 4750 1959 4750 
Q 2769 4750 3195 4129 
Q 3622 3509 3622 2328 
Q 3622 1225 3098 567 
Q 2575 -91 1691 -91 
Q 1453 -91 1209 -44 
Q 966 3 703 97 
z
M 1959 2075 
Q 2384 2075 2632 2365 
Q 2881 2656 2881 3163 
Q 2881 3666 2632 3958 
Q 2384 4250 1959 4250 
Q 1534 4250 1286 3958 
Q 1038 3666 1038 3163 
Q 1038 2656 1286 2365 
Q 1534 2075 1959 2075 
z
" transform="scale(0.015625)"/>
      </defs>
      <use xlink:href="#DejaVuSans-47"/>
      <use xlink:href="#DejaVuSans-61" transform="translate(77.490234 0)"/>
      <use xlink:href="#DejaVuSans-75" transform="translate(138.769531 0)"/>
      <use xlink:href="#DejaVuSans-73" transform="translate(202.148438 0)"/>
      <use xlink:href="#DejaVuSans-73" transform="translate(254.248047 0)"/>
      <use xlink:href="#DejaVuSans-2d" transform="translate(306.347656 0)"/>
      <use xlink:href="#DejaVuSans-53" transform="translate(342.431641 0)"/>
      <use xlink:href="#DejaVuSans-65" transform="translate(405.908203 0)"/>
      <use xlink:href="#DejaVuSans-69" transform="translate(467.431641 0)"/>
      <use xlink:href="#DejaVuSans-64" transform="translate(495.214844 0)"/>
      <use xlink:href="#DejaVuSans-65" transform="translate(558.691406 0)"/>
      <use xlink:href="#DejaVuSans-6c" transform="translate(620.214844 0)"/>
      <use xlink:href="#DejaVuSans-20" transform="translate(647.998047 0)"/>
      <use xlink:href="#DejaVuSans-2014" transform="translate(679.785156 0)"/>
      <use xlink:href="#DejaVuSans-20" transform="translate(779.785156 0)"/>
      <use xlink:href="#DejaVuSans-31" transform="translate(811.572266 0)"/>
      <use xlink:href="#DejaVuSans-2c" transform="translate(875.195312 0)"/>
      <use xlink:href="#DejaVuSans-39" transform="translate(906.982422 0)"/>
      <use xlink:href="#DejaVuSans-30" transform="translate(970.605469 0)"/>
      <use xlink:href="#DejaVuSans-36" transform="translate(1034.228516 0)"/>
     </g>
    </g>
    <g id="line2d_27">
     <path d="M 109.711477 53.082187 
L 116.111477 53.082187 
L 122.511477 53.082187 
" style="fill: none; stroke: #1baf7a; stroke-width: 2; stroke-linecap: round"/>
    </g>
    <g id="text_16">
     <!-- SOR, optimal omega — 132 -->
     <g style="fill: #52514e" transform="translate(127.311477 55.882187) scale(0.08 -0.08)">
      <defs>
       <path id="DejaVuSans-4f" d="M 2522 4238 
Q 1834 4238 1429 3725 
Q 1025 3213 1025 2328 
Q 1025 1447 1429 934 
Q 1834 422 2522 422 
Q 3209 422 3611 934 
Q 4013 1447 4013 2328 
Q 4013 3213 3611 3725 
Q 3209 4238 2522 4238 
z
M 2522 4750 
Q 3503 4750 4090 4092 
Q 4678 3434 4678 2328 
Q 4678 1225 4090 567 
Q 3503 -91 2522 -91 
Q 1538 -91 948 565 
Q 359 1222 359 2328 
Q 359 3434 948 4092 
Q 1538 4750 2522 4750 
z
" transform="scale(0.015625)"/>
       <path id="DejaVuSans-52" d="M 2841 2188 
Q 3044 2119 3236 1894 
Q 3428 1669 3622 1275 
L 4263 0 
L 3584 0 
L 2988 1197 
Q 2756 1666 2539 1819 
Q 2322 1972 1947 1972 
L 1259 1972 
L 1259 0 
L 628 0 
L 628 4666 
L 2053 4666 
Q 2853 4666 3247 4331 
Q 3641 3997 3641 3322 
Q 3641 2881 3436 2590 
Q 3231 2300 2841 2188 
z
M 1259 4147 
L 1259 2491 
L 2053 2491 
Q 2509 2491 2742 2702 
Q 2975 2913 2975 3322 
Q 2975 3731 2742 3939 
Q 2509 4147 2053 4147 
L 1259 4147 
z
" transform="scale(0.015625)"/>
       <path id="DejaVuSans-70" d="M 1159 525 
L 1159 -1331 
L 581 -1331 
L 581 3500 
L 1159 3500 
L 1159 2969 
Q 1341 3281 1617 3432 
Q 1894 3584 2278 3584 
Q 2916 3584 3314 3078 
Q 3713 2572 3713 1747 
Q 3713 922 3314 415 
Q 2916 -91 2278 -91 
Q 1894 -91 1617 61 
Q 1341 213 1159 525 
z
M 3116 1747 
Q 3116 2381 2855 2742 
Q 2594 3103 2138 3103 
Q 1681 3103 1420 2742 
Q 1159 2381 1159 1747 
Q 1159 1113 1420 752 
Q 1681 391 2138 391 
Q 2594 391 2855 752 
Q 3116 1113 3116 1747 
z
" transform="scale(0.015625)"/>
      </defs>
      <use xlink:href="#DejaVuSans-53"/>
      <use xlink:href="#DejaVuSans-4f" transform="translate(63.476562 0)"/>
      <use xlink:href="#DejaVuSans-52" transform="translate(142.1875 0)"/>
      <use xlink:href="#DejaVuSans-2c" transform="translate(211.669922 0)"/>
      <use xlink:href="#DejaVuSans-20" transform="translate(243.457031 0)"/>
      <use xlink:href="#DejaVuSans-6f" transform="translate(275.244141 0)"/>
      <use xlink:href="#DejaVuSans-70" transform="translate(336.425781 0)"/>
      <use xlink:href="#DejaVuSans-74" transform="translate(399.902344 0)"/>
      <use xlink:href="#DejaVuSans-69" transform="translate(439.111328 0)"/>
      <use xlink:href="#DejaVuSans-6d" transform="translate(466.894531 0)"/>
      <use xlink:href="#DejaVuSans-61" transform="translate(564.306641 0)"/>
      <use xlink:href="#DejaVuSans-6c" transform="translate(625.585938 0)"/>
      <use xlink:href="#DejaVuSans-20" transform="translate(653.369141 0)"/>
      <use xlink:href="#DejaVuSans-6f" transform="translate(685.15625 0)"/>
      <use xlink:href="#DejaVuSans-6d" transform="translate(746.337891 0)"/>
      <use xlink:href="#DejaVuSans-65" transform="translate(843.75 0)"/>
      <use xlink:href="#DejaVuSans-67" transform="translate(905.273438 0)"/>
      <use xlink:href="#DejaVuSans-61" transform="translate(968.75 0)"/>
      <use xlink:href="#DejaVuSans-20" transform="translate(1030.029297 0)"/>
      <use xlink:href="#DejaVuSans-2014" transform="translate(1061.816406 0)"/>
      <use xlink:href="#DejaVuSans-20" transform="translate(1161.816406 0)"/>
      <use xlink:href="#DejaVuSans-31" transform="translate(1193.603516 0)"/>
      <use xlink:href="#DejaVuSans-33" transform="translate(1257.226562 0)"/>
      <use xlink:href="#DejaVuSans-32" transform="translate(1320.849609 0)"/>
     </g>
    </g>
    <g id="line2d_28">
     <path d="M 109.711477 64.824687 
L 116.111477 64.824687 
L 122.511477 64.824687 
" style="fill: none; stroke: #eda100; stroke-width: 2; stroke-linecap: round"/>
    </g>
    <g id="text_17">
     <!-- multigrid V-cycles — 9 -->
     <g style="fill: #52514e" transform="translate(127.311477 67.624687) scale(0.08 -0.08)">
      <use xlink:href="#DejaVuSans-6d"/>
      <use xlink:href="#DejaVuSans-75" transform="translate(97.412109 0)"/>
      <use xlink:href="#DejaVuSans-6c" transform="translate(160.791016 0)"/>
      <use xlink:href="#DejaVuSans-74" transform="translate(188.574219 0)"/>
      <use xlink:href="#DejaVuSans-69" transform="translate(227.783203 0)"/>
      <use xlink:href="#DejaVuSans-67" transform="translate(255.566406 0)"/>
      <use xlink:href="#DejaVuSans-72" transform="translate(319.042969 0)"/>
      <use xlink:href="#DejaVuSans-69" transform="translate(360.15625 0)"/>
      <use xlink:href="#DejaVuSans-64" transform="translate(387.939453 0)"/>
      <use xlink:href="#DejaVuSans-20" transform="translate(451.416016 0)"/>
      <use xlink:href="#DejaVuSans-56" transform="translate(483.203125 0)"/>
      <use xlink:href="#DejaVuSans-2d" transform="translate(545.736328 0)"/>
      <use xlink:href="#DejaVuSans-63" transform="translate(581.820312 0)"/>
      <use xlink:href="#DejaVuSans-79" transform="translate(636.800781 0)"/>
      <use xlink:href="#DejaVuSans-63" transform="translate(695.980469 0)"/>
      <use xlink:href="#DejaVuSans-6c" transform="translate(750.960938 0)"/>
      <use xlink:href="#DejaVuSans-65" transform="translate(778.744141 0)"/>
      <use xlink:href="#DejaVuSans-73" transform="translate(840.267578 0)"/>
      <use xlink:href="#DejaVuSans-20" transform="translate(892.367188 0)"/>
      <use xlink:href="#DejaVuSans-2014" transform="translate(924.154297 0)"/>
      <use xlink:href="#DejaVuSans-20" transform="translate(1024.154297 0)"/>
      <use xlink:href="#DejaVuSans-39" transform="translate(1055.941406 0)"/>
     </g>
    </g>
   </g>
  </g>
  <g id="axes_2">
   <g id="patch_5">
    <path d="M 288.806989 211.946437 
L 487.426903 211.946437 
L 487.426903 19.918437 
L 288.806989 19.918437 
L 288.806989 211.946437 
z
" style="fill: none"/>
   </g>
   <g id="matplotlib.axis_3">
    <g id="xtick_6">
     <g id="line2d_29">
      <path d="M 456.963194 211.946437 
L 456.963194 19.918437 
" clip-path="url(#pe6dc41f2ce)" style="fill: none; stroke: #e1e0d9; stroke-width: 0.7; stroke-linecap: round"/>
     </g>
     <g id="line2d_30">
      <g>
       <use xlink:href="#m0cade8e575" x="456.963194" y="211.946437" style="fill: #898781; stroke: #898781; stroke-width: 0.8"/>
      </g>
     </g>
     <g id="text_18">
      <!-- $\mathdefault{10^{2}}$ -->
      <g style="fill: #898781" transform="translate(449.923194 224.525187) scale(0.08 -0.08)">
       <use xlink:href="#DejaVuSans-31" transform="translate(0 0.765625)"/>
       <use xlink:href="#DejaVuSans-30" transform="translate(63.623047 0.765625)"/>
       <use xlink:href="#DejaVuSans-32" transform="translate(128.203125 39.046875) scale(0.7)"/>
      </g>
     </g>
    </g>
    <g id="xtick_7">
     <g id="line2d_31">
      <defs>
       <path id="m8dc8e8d526" d="M 0 0 
L 0 2 
" style="stroke: #898781; stroke-width: 0.6"/>
      </defs>
      <g>
       <use xlink:href="#m8dc8e8d526" x="317.211328" y="211.946437" style="fill: #898781; stroke: #898781; stroke-width: 0.6"/>
      </g>
     </g>
     <g id="text_19">
      <!-- $\mathdefault{2\times10^{1}}$ -->
      <g style="fill: #898781" transform="translate(302.731328 223.425187) scale(0.08 -0.08)">
       <defs>
        <path id="DejaVuSans-d7" d="M 4488 3438 
L 3059 2003 
L 4488 575 
L 4116 197 
L 2681 1631 
L 1247 197 
L 878 575 
L 2303 2003 
L 878 3438 
L 1247 3816 
L 2681 2381 
L 4116 3816 
L 4488 3438 
z
" transform="scale(0.015625)"/>
       </defs>
       <use xlink:href="#DejaVuSans-32" transform="translate(0 0.684375)"/>
       <use xlink:href="#DejaVuSans-d7" transform="translate(83.105469 0.684375)"/>
       <use xlink:href="#DejaVuSans-31" transform="translate(186.376953 0.684375)"/>
       <use xlink:href="#DejaVuSans-30" transform="translate(250 0.684375)"/>
       <use xlink:href="#DejaVuSans-31" transform="translate(314.580078 38.965625) scale(0.7)"/>
      </g>
     </g>
    </g>
    <g id="xtick_8">
     <g id="line2d_32">
      <g>
       <use xlink:href="#m8dc8e8d526" x="352.418965" y="211.946437" style="fill: #898781; stroke: #898781; stroke-width: 0.6"/>
      </g>
     </g>
     <g id="text_20">
      <!-- $\mathdefault{3\times10^{1}}$ -->
      <g style="fill: #898781" transform="translate(337.938965 223.425187) scale(0.08 -0.08)">
       <use xlink:href="#DejaVuSans-33" transform="translate(0 0.684375)"/>
       <use xlink:href="#DejaVuSans-d7" transform="translate(83.105469 0.684375)"/>
       <use xlink:href="#DejaVuSans-31" transform="translate(186.376953 0.684375)"/>
       <use xlink:href="#DejaVuSans-30" transform="translate(250 0.684375)"/>
       <use xlink:href="#DejaVuSans-31" transform="translate(314.580078 38.965625) scale(0.7)"/>
      </g>
     </g>
    </g>
    <g id="xtick_9">
     <g id="line2d_33">
      <g>
       <use xlink:href="#m8dc8e8d526" x="377.399181" y="211.946437" style="fill: #898781; stroke: #898781; stroke-width: 0.6"/>
      </g>
     </g>
     <g id="text_21">
      <!-- $\mathdefault{4\times10^{1}}$ -->
      <g style="fill: #898781" transform="translate(362.919181 223.425187) scale(0.08 -0.08)">
       <use xlink:href="#DejaVuSans-34" transform="translate(0 0.684375)"/>
       <use xlink:href="#DejaVuSans-d7" transform="translate(83.105469 0.684375)"/>
       <use xlink:href="#DejaVuSans-31" transform="translate(186.376953 0.684375)"/>
       <use xlink:href="#DejaVuSans-30" transform="translate(250 0.684375)"/>
       <use xlink:href="#DejaVuSans-31" transform="translate(314.580078 38.965625) scale(0.7)"/>
      </g>
     </g>
    </g>
    <g id="xtick_10">
     <g id="line2d_34">
      <g>
       <use xlink:href="#m8dc8e8d526" x="396.775341" y="211.946437" style="fill: #898781; stroke: #898781; stroke-width: 0.6"/>
      </g>
     </g>
    </g>
    <g id="xtick_11">
     <g id="line2d_35">
      <g>
       <use xlink:href="#m8dc8e8d526" x="412.606818" y="211.946437" style="fill: #898781; stroke: #898781; stroke-width: 0.6"/>
      </g>
     </g>
     <g id="text_22">
      <!-- $\mathdefault{6\times10^{1}}$ -->
      <g style="fill: #898781" transform="translate(398.126818 223.425187) scale(0.08 -0.08)">
       <use xlink:href="#DejaVuSans-36" transform="translate(0 0.684375)"/>
       <use xlink:href="#DejaVuSans-d7" transform="translate(83.105469 0.684375)"/>
       <use xlink:href="#DejaVuSans-31" transform="translate(186.376953 0.684375)"/>
       <use xlink:href="#DejaVuSans-30" transform="translate(250 0.684375)"/>
       <use xlink:href="#DejaVuSans-31" transform="translate(314.580078 38.965625) scale(0.7)"/>
      </g>
     </g>
    </g>
    <g id="xtick_12">
     <g id="line2d_36">
      <g>
       <use xlink:href="#m8dc8e8d526" x="425.99214" y="211.946437" style="fill: #898781; stroke: #898781; stroke-width: 0.6"/>
      </g>
     </g>
    </g>
    <g id="xtick_13">
     <g id="line2d_37">
      <g>
       <use xlink:href="#m8dc8e8d526" x="437.587033" y="211.946437" style="fill: #898781; stroke: #898781; stroke-width: 0.6"/>
      </g>
     </g>
    </g>
    <g id="xtick_14">
     <g id="line2d_38">
      <g>
       <use xlink:href="#m8dc8e8d526" x="447.814454" y="211.946437" style="fill: #898781; stroke: #898781; stroke-width: 0.6"/>
      </g>
     </g>
    </g>
    <g id="text_23">
     <!-- grid points per side -->
     <g style="fill: #52514e" transform="translate(344.496477 237.027531) scale(0.09 -0.09)">
      <use xlink:href="#DejaVuSans-67"/>
      <use xlink:href="#DejaVuSans-72" transform="translate(63.476562 0)"/>
      <use xlink:href="#DejaVuSans-69" transform="translate(104.589844 0)"/>
      <use xlink:href="#DejaVuSans-64" transform="translate(132.373047 0)"/>
      <use xlink:href="#DejaVuSans-20" transform="translate(195.849609 0)"/>
      <use xlink:href="#DejaVuSans-70" transform="translate(227.636719 0)"/>
      <use xlink:href="#DejaVuSans-6f" transform="translate(291.113281 0)"/>
      <use xlink:href="#DejaVuSans-69" transform="translate(352.294922 0)"/>
      <use xlink:href="#DejaVuSans-6e" transform="translate(380.078125 0)"/>
      <use xlink:href="#DejaVuSans-74" transform="translate(443.457031 0)"/>
      <use xlink:href="#DejaVuSans-73" transform="translate(482.666016 0)"/>
      <use xlink:href="#DejaVuSans-20" transform="translate(534.765625 0)"/>
      <use xlink:href="#DejaVuSans-70" transform="translate(566.552734 0)"/>
      <use xlink:href="#DejaVuSans-65" transform="translate(630.029297 0)"/>
      <use xlink:href="#DejaVuSans-72" transform="translate(691.552734 0)"/>
      <use xlink:href="#DejaVuSans-20" transform="translate(732.666016 0)"/>
      <use xlink:href="#DejaVuSans-73" transform="translate(764.453125 0)"/>
      <use xlink:href="#DejaVuSans-69" transform="translate(816.552734 0)"/>
      <use xlink:href="#DejaVuSans-64" transform="translate(844.335938 0)"/>
      <use xlink:href="#DejaVuSans-65" transform="translate(907.8125 0)"/>
     </g>
    </g>
   </g>
   <g id="matplotlib.axis_4">
    <g id="ytick_6">
     <g id="line2d_39">
      <path d="M 288.806989 198.6327 
L 487.426903 198.6327 
" clip-path="url(#pe6dc41f2ce)" style="fill: none; stroke: #e1e0d9; stroke-width: 0.7; stroke-linecap: round"/>
     </g>
     <g id="line2d_40">
      <g>
       <use xlink:href="#mbeee703105" x="288.806989" y="198.6327" style="fill: #898781; stroke: #898781; stroke-width: 0.8"/>
      </g>
     </g>
     <g id="text_24">
      <!-- $\mathdefault{10^{1}}$ -->
      <g style="fill: #898781" transform="translate(268.226989 201.672075) scale(0.08 -0.08)">
       <use xlink:href="#DejaVuSans-31" transform="translate(0 0.684375)"/>
       <use xlink:href="#DejaVuSans-30" transform="translate(63.623047 0.684375)"/>
       <use xlink:href="#DejaVuSans-31" transform="translate(128.203125 38.965625) scale(0.7)"/>
      </g>
     </g>
    </g>
    <g id="ytick_7">
     <g id="line2d_41">
      <path d="M 288.806989 98.426329 
L 487.426903 98.426329 
" clip-path="url(#pe6dc41f2ce)" style="fill: none; stroke: #e1e0d9; stroke-width: 0.7; stroke-linecap: round"/>
     </g>
     <g id="line2d_42">
      <g>
       <use xlink:href="#mbeee703105" x="288.806989" y="98.426329" style="fill: #898781; stroke: #898781; stroke-width: 0.8"/>
      </g>
     </g>
     <g id="text_25">
      <!-- $\mathdefault{10^{2}}$ -->
      <g style="fill: #898781" transform="translate(268.226989 101.465704) scale(0.08 -0.08)">
       <use xlink:href="#DejaVuSans-31" transform="translate(0 0.765625)"/>
       <use xlink:href="#DejaVuSans-30" transform="translate(63.623047 0.765625)"/>
       <use xlink:href="#DejaVuSans-32" transform="translate(128.203125 39.046875) scale(0.7)"/>
      </g>
     </g>
    </g>
    <g id="ytick_8">
     <g id="line2d_43">
      <defs>
       <path id="m2ab747a8bd" d="M 0 0 
L -2 0 
" style="stroke: #898781; stroke-width: 0.6"/>
      </defs>
      <g>
       <use xlink:href="#m2ab747a8bd" x="288.806989" y="208.343701" style="fill: #898781; stroke: #898781; stroke-width: 0.6"/>
      </g>
     </g>
    </g>
    <g id="ytick_9">
     <g id="line2d_44">
      <g>
       <use xlink:href="#m2ab747a8bd" x="288.806989" y="203.217892" style="fill: #898781; stroke: #898781; stroke-width: 0.6"/>
      </g>
     </g>
    </g>
    <g id="ytick_10">
     <g id="line2d_45">
      <g>
       <use xlink:href="#m2ab747a8bd" x="288.806989" y="168.467577" style="fill: #898781; stroke: #898781; stroke-width: 0.6"/>
      </g>
     </g>
    </g>
    <g id="ytick_11">
     <g id="line2d_46">
      <g>
       <use xlink:href="#m2ab747a8bd" x="288.806989" y="150.822111" style="fill: #898781; stroke: #898781; stroke-width: 0.6"/>
      </g>
     </g>
    </g>
    <g id="ytick_12">
     <g id="line2d_47">
      <g>
       <use xlink:href="#m2ab747a8bd" x="288.806989" y="138.302453" style="fill: #898781; stroke: #898781; stroke-width: 0.6"/>
      </g>
     </g>
    </g>
    <g id="ytick_13">
     <g id="line2d_48">
      <g>
       <use xlink:href="#m2ab747a8bd" x="288.806989" y="128.591453" style="fill: #898781; stroke: #898781; stroke-width: 0.6"/>
      </g>
     </g>
    </g>
    <g id="ytick_14">
     <g id="line2d_49">
      <g>
       <use xlink:href="#m2ab747a8bd" x="288.806989" y="120.656987" style="fill: #898781; stroke: #898781; stroke-width: 0.6"/>
      </g>
     </g>
    </g>
    <g id="ytick_15">
     <g id="line2d_50">
      <g>
       <use xlink:href="#m2ab747a8bd" x="288.806989" y="113.948493" style="fill: #898781; stroke: #898781; stroke-width: 0.6"/>
      </g>
     </g>
    </g>
    <g id="ytick_16">
     <g id="line2d_51">
      <g>
       <use xlink:href="#m2ab747a8bd" x="288.806989" y="108.13733" style="fill: #898781; stroke: #898781; stroke-width: 0.6"/>
      </g>
     </g>
    </g>
    <g id="ytick_17">
     <g id="line2d_52">
      <g>
       <use xlink:href="#m2ab747a8bd" x="288.806989" y="103.011521" style="fill: #898781; stroke: #898781; stroke-width: 0.6"/>
      </g>
     </g>
    </g>
    <g id="ytick_18">
     <g id="line2d_53">
      <g>
       <use xlink:href="#m2ab747a8bd" x="288.806989" y="68.261206" style="fill: #898781; stroke: #898781; stroke-width: 0.6"/>
      </g>
     </g>
    </g>
    <g id="ytick_19">
     <g id="line2d_54">
      <g>
       <use xlink:href="#m2ab747a8bd" x="288.806989" y="50.61574" style="fill: #898781; stroke: #898781; stroke-width: 0.6"/>
      </g>
     </g>
    </g>
    <g id="ytick_20">
     <g id="line2d_55">
      <g>
       <use xlink:href="#m2ab747a8bd" x="288.806989" y="38.096083" style="fill: #898781; stroke: #898781; stroke-width: 0.6"/>
      </g>
     </g>
    </g>
    <g id="ytick_21">
     <g id="line2d_56">
      <g>
       <use xlink:href="#m2ab747a8bd" x="288.806989" y="28.385082" style="fill: #898781; stroke: #898781; stroke-width: 0.6"/>
      </g>
     </g>
    </g>
    <g id="ytick_22">
     <g id="line2d_57">
      <g>
       <use xlink:href="#m2ab747a8bd" x="288.806989" y="20.450617" style="fill: #898781; stroke: #898781; stroke-width: 0.6"/>
      </g>
     </g>
    </g>
    <g id="text_26">
     <!-- iterations -->
     <g style="fill: #52514e" transform="translate(262.35527 137.287047) rotate(-90) scale(0.09 -0.09)">
      <use xlink:href="#DejaVuSans-69"/>
      <use xlink:href="#DejaVuSans-74" transform="translate(27.783203 0)"/>
      <use xlink:href="#DejaVuSans-65" transform="translate(66.992188 0)"/>
      <use xlink:href="#DejaVuSans-72" transform="translate(128.515625 0)"/>
      <use xlink:href="#DejaVuSans-61" transform="translate(169.628906 0)"/>
      <use xlink:href="#DejaVuSans-74" transform="translate(230.908203 0)"/>
      <use xlink:href="#DejaVuSans-69" transform="translate(270.117188 0)"/>
      <use xlink:href="#DejaVuSans-6f" transform="translate(297.900391 0)"/>
      <use xlink:href="#DejaVuSans-6e" transform="translate(359.082031 0)"/>
      <use xlink:href="#DejaVuSans-73" transform="translate(422.460938 0)"/>
     </g>
    </g>
   </g>
   <g id="line2d_58">
    <path d="M 297.835167 115.210003 
L 358.02302 86.344053 
L 418.210873 57.688413 
L 478.398725 28.646983 
" clip-path="url(#pe6dc41f2ce)" style="fill: none; stroke: #1baf7a; stroke-width: 2; stroke-linecap: round"/>
    <defs>
     <path id="m14a4ecbf2a" d="M 0 2 
C 0.530406 2 1.03916 1.789267 1.414214 1.414214 
C 1.789267 1.03916 2 0.530406 2 0 
C 2 -0.530406 1.789267 -1.03916 1.414214 -1.414214 
C 1.03916 -1.789267 0.530406 -2 0 -2 
C -0.530406 -2 -1.03916 -1.789267 -1.414214 -1.414214 
C -1.789267 -1.03916 -2 -0.530406 -2 0 
C -2 0.530406 -1.789267 1.03916 -1.414214 1.414214 
C -1.03916 1.789267 -0.530406 2 0 2 
z
" style="stroke: #1baf7a"/>
    </defs>
    <g clip-path="url(#pe6dc41f2ce)">
     <use xlink:href="#m14a4ecbf2a" x="297.835167" y="115.210003" style="fill: #1baf7a; stroke: #1baf7a"/>
     <use xlink:href="#m14a4ecbf2a" x="358.02302" y="86.344053" style="fill: #1baf7a; stroke: #1baf7a"/>
     <use xlink:href="#m14a4ecbf2a" x="418.210873" y="57.688413" style="fill: #1baf7a; stroke: #1baf7a"/>
     <use xlink:href="#m14a4ecbf2a" x="478.398725" y="28.646983" style="fill: #1baf7a; stroke: #1baf7a"/>
    </g>
   </g>
   <g id="line2d_59">
    <path d="M 297.835167 203.217892 
L 358.02302 203.217892 
L 418.210873 203.217892 
L 478.398725 203.217892 
" clip-path="url(#pe6dc41f2ce)" style="fill: none; stroke: #eda100; stroke-width: 2; stroke-linecap: round"/>
    <defs>
     <path id="m8ce98fe6a5" d="M -2 2 
L 2 2 
L 2 -2 
L -2 -2 
z
" style="stroke: #eda100; stroke-linejoin: miter"/>
    </defs>
    <g clip-path="url(#pe6dc41f2ce)">
     <use xlink:href="#m8ce98fe6a5" x="297.835167" y="203.217892" style="fill: #eda100; stroke: #eda100; stroke-linejoin: miter"/>
     <use xlink:href="#m8ce98fe6a5" x="358.02302" y="203.217892" style="fill: #eda100; stroke: #eda100; stroke-linejoin: miter"/>
     <use xlink:href="#m8ce98fe6a5" x="418.210873" y="203.217892" style="fill: #eda100; stroke: #eda100; stroke-linejoin: miter"/>
     <use xlink:href="#m8ce98fe6a5" x="478.398725" y="203.217892" style="fill: #eda100; stroke: #eda100; stroke-linejoin: miter"/>
    </g>
   </g>
   <g id="patch_6">
    <path d="M 288.806989 211.946437 
L 288.806989 19.918437 
" style="fill: none; stroke: #c3c2b7; stroke-width: 0.8; stroke-linejoin: miter; stroke-linecap: square"/>
   </g>
   <g id="patch_7">
    <path d="M 288.806989 211.946437 
L 487.426903 211.946437 
" style="fill: none; stroke: #c3c2b7; stroke-width: 0.8; stroke-linejoin: miter; stroke-linecap: square"/>
   </g>
   <g id="patch_8">
    <path d="M 381.285692 170.118152 
Q 398.631557 185.666989 415.977422 201.215826 
" style="fill: none; stroke: #898781; stroke-width: 0.8; stroke-linecap: round"/>
   </g>
   <g id="text_27">
    <!-- flat: the work per unknown -->
    <g style="fill: #52514e" transform="translate(309.971076 156.160053) scale(0.08 -0.08)">
     <defs>
      <path id="DejaVuSans-3a" d="M 750 794 
L 1409 794 
L 1409 0 
L 750 0 
L 750 794 
z
M 750 3309 
L 1409 3309 
L 1409 2516 
L 750 2516 
L 750 3309 
z
" transform="scale(0.015625)"/>
      <path id="DejaVuSans-68" d="M 3513 2113 
L 3513 0 
L 2938 0 
L 2938 2094 
Q 2938 2591 2744 2837 
Q 2550 3084 2163 3084 
Q 1697 3084 1428 2787 
Q 1159 2491 1159 1978 
L 1159 0 
L 581 0 
L 581 4863 
L 1159 4863 
L 1159 2956 
Q 1366 3272 1645 3428 
Q 1925 3584 2291 3584 
Q 2894 3584 3203 3211 
Q 3513 2838 3513 2113 
z
" transform="scale(0.015625)"/>
      <path id="DejaVuSans-77" d="M 269 3500 
L 844 3500 
L 1563 769 
L 2278 3500 
L 2956 3500 
L 3675 769 
L 4391 3500 
L 4966 3500 
L 4050 0 
L 3372 0 
L 2619 2869 
L 1863 0 
L 1184 0 
L 269 3500 
z
" transform="scale(0.015625)"/>
      <path id="DejaVuSans-6b" d="M 581 4863 
L 1159 4863 
L 1159 1991 
L 2875 3500 
L 3609 3500 
L 1753 1863 
L 3688 0 
L 2938 0 
L 1159 1709 
L 1159 0 
L 581 0 
L 581 4863 
z
" transform="scale(0.015625)"/>
     </defs>
     <use xlink:href="#DejaVuSans-66"/>
     <use xlink:href="#DejaVuSans-6c" transform="translate(35.205078 0)"/>
     <use xlink:href="#DejaVuSans-61" transform="translate(62.988281 0)"/>
     <use xlink:href="#DejaVuSans-74" transform="translate(124.267578 0)"/>
     <use xlink:href="#DejaVuSans-3a" transform="translate(163.476562 0)"/>
     <use xlink:href="#DejaVuSans-20" transform="translate(197.167969 0)"/>
     <use xlink:href="#DejaVuSans-74" transform="translate(228.955078 0)"/>
     <use xlink:href="#DejaVuSans-68" transform="translate(268.164062 0)"/>
     <use xlink:href="#DejaVuSans-65" transform="translate(331.542969 0)"/>
     <use xlink:href="#DejaVuSans-20" transform="translate(393.066406 0)"/>
     <use xlink:href="#DejaVuSans-77" transform="translate(424.853516 0)"/>
     <use xlink:href="#DejaVuSans-6f" transform="translate(506.640625 0)"/>
     <use xlink:href="#DejaVuSans-72" transform="translate(567.822266 0)"/>
     <use xlink:href="#DejaVuSans-6b" transform="translate(608.935547 0)"/>
     <use xlink:href="#DejaVuSans-20" transform="translate(666.845703 0)"/>
     <use xlink:href="#DejaVuSans-70" transform="translate(698.632812 0)"/>
     <use xlink:href="#DejaVuSans-65" transform="translate(762.109375 0)"/>
     <use xlink:href="#DejaVuSans-72" transform="translate(823.632812 0)"/>
     <use xlink:href="#DejaVuSans-20" transform="translate(864.746094 0)"/>
     <use xlink:href="#DejaVuSans-75" transform="translate(896.533203 0)"/>
     <use xlink:href="#DejaVuSans-6e" transform="translate(959.912109 0)"/>
     <use xlink:href="#DejaVuSans-6b" transform="translate(1023.291016 0)"/>
     <use xlink:href="#DejaVuSans-6e" transform="translate(1081.201172 0)"/>
     <use xlink:href="#DejaVuSans-6f" transform="translate(1144.580078 0)"/>
     <use xlink:href="#DejaVuSans-77" transform="translate(1205.761719 0)"/>
     <use xlink:href="#DejaVuSans-6e" transform="translate(1287.548828 0)"/>
    </g>
    <!-- does not grow with the mesh -->
    <g style="fill: #52514e" transform="translate(309.971076 165.118303) scale(0.08 -0.08)">
     <use xlink:href="#DejaVuSans-64"/>
     <use xlink:href="#DejaVuSans-6f" transform="translate(63.476562 0)"/>
     <use xlink:href="#DejaVuSans-65" transform="translate(124.658203 0)"/>
     <use xlink:href="#DejaVuSans-73" transform="translate(186.181641 0)"/>
     <use xlink:href="#DejaVuSans-20" transform="translate(238.28125 0)"/>
     <use xlink:href="#DejaVuSans-6e" transform="translate(270.068359 0)"/>
     <use xlink:href="#DejaVuSans-6f" transform="translate(333.447266 0)"/>
     <use xlink:href="#DejaVuSans-74" transform="translate(394.628906 0)"/>
     <use xlink:href="#DejaVuSans-20" transform="translate(433.837891 0)"/>
     <use xlink:href="#DejaVuSans-67" transform="translate(465.625 0)"/>
     <use xlink:href="#DejaVuSans-72" transform="translate(529.101562 0)"/>
     <use xlink:href="#DejaVuSans-6f" transform="translate(567.964844 0)"/>
     <use xlink:href="#DejaVuSans-77" transform="translate(629.146484 0)"/>
     <use xlink:href="#DejaVuSans-20" transform="translate(710.933594 0)"/>
     <use xlink:href="#DejaVuSans-77" transform="translate(742.720703 0)"/>
     <use xlink:href="#DejaVuSans-69" transform="translate(824.507812 0)"/>
     <use xlink:href="#DejaVuSans-74" transform="translate(852.291016 0)"/>
     <use xlink:href="#DejaVuSans-68" transform="translate(891.5 0)"/>
     <use xlink:href="#DejaVuSans-20" transform="translate(954.878906 0)"/>
     <use xlink:href="#DejaVuSans-74" transform="translate(986.666016 0)"/>
     <use xlink:href="#DejaVuSans-68" transform="translate(1025.875 0)"/>
     <use xlink:href="#DejaVuSans-65" transform="translate(1089.253906 0)"/>
     <use xlink:href="#DejaVuSans-20" transform="translate(1150.777344 0)"/>
     <use xlink:href="#DejaVuSans-6d" transform="translate(1182.564453 0)"/>
     <use xlink:href="#DejaVuSans-65" transform="translate(1279.976562 0)"/>
     <use xlink:href="#DejaVuSans-73" transform="translate(1341.5 0)"/>
     <use xlink:href="#DejaVuSans-68" transform="translate(1393.599609 0)"/>
    </g>
   </g>
   <g id="text_28">
    <!-- Iterations to the same tolerance -->
    <g style="fill: #0b0b0b" transform="translate(288.806989 11.918437) scale(0.1 -0.1)">
     <defs>
      <path id="DejaVuSans-Bold-49" d="M 588 4666 
L 1791 4666 
L 1791 0 
L 588 0 
L 588 4666 
z
" transform="scale(0.015625)"/>
      <path id="DejaVuSans-Bold-74" d="M 1759 4494 
L 1759 3500 
L 2913 3500 
L 2913 2700 
L 1759 2700 
L 1759 1216 
Q 1759 972 1856 886 
Q 1953 800 2241 800 
L 2816 800 
L 2816 0 
L 1856 0 
Q 1194 0 917 276 
Q 641 553 641 1216 
L 641 2700 
L 84 2700 
L 84 3500 
L 641 3500 
L 641 4494 
L 1759 4494 
z
" transform="scale(0.015625)"/>
      <path id="DejaVuSans-Bold-68" d="M 4056 2131 
L 4056 0 
L 2931 0 
L 2931 347 
L 2931 1625 
Q 2931 2084 2911 2256 
Q 2891 2428 2841 2509 
Q 2775 2619 2662 2680 
Q 2550 2741 2406 2741 
Q 2056 2741 1856 2470 
Q 1656 2200 1656 1722 
L 1656 0 
L 538 0 
L 538 4863 
L 1656 4863 
L 1656 2988 
Q 1909 3294 2193 3439 
Q 2478 3584 2822 3584 
Q 3428 3584 3742 3212 
Q 4056 2841 4056 2131 
z
" transform="scale(0.015625)"/>
      <path id="DejaVuSans-Bold-6d" d="M 3781 2919 
Q 3994 3244 4286 3414 
Q 4578 3584 4928 3584 
Q 5531 3584 5847 3212 
Q 6163 2841 6163 2131 
L 6163 0 
L 5038 0 
L 5038 1825 
Q 5041 1866 5042 1909 
Q 5044 1953 5044 2034 
Q 5044 2406 4934 2573 
Q 4825 2741 4581 2741 
Q 4263 2741 4089 2478 
Q 3916 2216 3909 1719 
L 3909 0 
L 2784 0 
L 2784 1825 
Q 2784 2406 2684 2573 
Q 2584 2741 2328 2741 
Q 2006 2741 1831 2477 
Q 1656 2213 1656 1722 
L 1656 0 
L 531 0 
L 531 3500 
L 1656 3500 
L 1656 2988 
Q 1863 3284 2130 3434 
Q 2397 3584 2719 3584 
Q 3081 3584 3359 3409 
Q 3638 3234 3781 2919 
z
" transform="scale(0.015625)"/>
      <path id="DejaVuSans-Bold-63" d="M 3366 3391 
L 3366 2478 
Q 3138 2634 2908 2709 
Q 2678 2784 2431 2784 
Q 1963 2784 1702 2511 
Q 1441 2238 1441 1747 
Q 1441 1256 1702 982 
Q 1963 709 2431 709 
Q 2694 709 2930 787 
Q 3166 866 3366 1019 
L 3366 103 
Q 3103 6 2833 -42 
Q 2563 -91 2291 -91 
Q 1344 -91 809 395 
Q 275 881 275 1747 
Q 275 2613 809 3098 
Q 1344 3584 2291 3584 
Q 2566 3584 2833 3536 
Q 3100 3488 3366 3391 
z
" transform="scale(0.015625)"/>
     </defs>
     <use xlink:href="#DejaVuSans-Bold-49"/>
     <use xlink:href="#DejaVuSans-Bold-74" transform="translate(37.207031 0)"/>
     <use xlink:href="#DejaVuSans-Bold-65" transform="translate(85.009766 0)"/>
     <use xlink:href="#DejaVuSans-Bold-72" transform="translate(152.832031 0)"/>
     <use xlink:href="#DejaVuSans-Bold-61" transform="translate(202.148438 0)"/>
     <use xlink:href="#DejaVuSans-Bold-74" transform="translate(269.628906 0)"/>
     <use xlink:href="#DejaVuSans-Bold-69" transform="translate(317.431641 0)"/>
     <use xlink:href="#DejaVuSans-Bold-6f" transform="translate(351.708984 0)"/>
     <use xlink:href="#DejaVuSans-Bold-6e" transform="translate(420.410156 0)"/>
     <use xlink:href="#DejaVuSans-Bold-73" transform="translate(491.601562 0)"/>
     <use xlink:href="#DejaVuSans-Bold-20" transform="translate(551.123047 0)"/>
     <use xlink:href="#DejaVuSans-Bold-74" transform="translate(585.9375 0)"/>
     <use xlink:href="#DejaVuSans-Bold-6f" transform="translate(633.740234 0)"/>
     <use xlink:href="#DejaVuSans-Bold-20" transform="translate(702.441406 0)"/>
     <use xlink:href="#DejaVuSans-Bold-74" transform="translate(737.255859 0)"/>
     <use xlink:href="#DejaVuSans-Bold-68" transform="translate(785.058594 0)"/>
     <use xlink:href="#DejaVuSans-Bold-65" transform="translate(856.25 0)"/>
     <use xlink:href="#DejaVuSans-Bold-20" transform="translate(924.072266 0)"/>
     <use xlink:href="#DejaVuSans-Bold-73" transform="translate(958.886719 0)"/>
     <use xlink:href="#DejaVuSans-Bold-61" transform="translate(1018.408203 0)"/>
     <use xlink:href="#DejaVuSans-Bold-6d" transform="translate(1085.888672 0)"/>
     <use xlink:href="#DejaVuSans-Bold-65" transform="translate(1190.087891 0)"/>
     <use xlink:href="#DejaVuSans-Bold-20" transform="translate(1257.910156 0)"/>
     <use xlink:href="#DejaVuSans-Bold-74" transform="translate(1292.724609 0)"/>
     <use xlink:href="#DejaVuSans-Bold-6f" transform="translate(1340.527344 0)"/>
     <use xlink:href="#DejaVuSans-Bold-6c" transform="translate(1409.228516 0)"/>
     <use xlink:href="#DejaVuSans-Bold-65" transform="translate(1443.505859 0)"/>
     <use xlink:href="#DejaVuSans-Bold-72" transform="translate(1511.328125 0)"/>
     <use xlink:href="#DejaVuSans-Bold-61" transform="translate(1560.644531 0)"/>
     <use xlink:href="#DejaVuSans-Bold-6e" transform="translate(1628.125 0)"/>
     <use xlink:href="#DejaVuSans-Bold-63" transform="translate(1699.316406 0)"/>
     <use xlink:href="#DejaVuSans-Bold-65" transform="translate(1758.59375 0)"/>
    </g>
   </g>
   <g id="legend_2">
    <g id="line2d_60">
     <path d="M 295.206989 29.597187 
L 301.606989 29.597187 
L 308.006989 29.597187 
" style="fill: none; stroke: #1baf7a; stroke-width: 2; stroke-linecap: round"/>
     <g>
      <use xlink:href="#m14a4ecbf2a" x="301.606989" y="29.597187" style="fill: #1baf7a; stroke: #1baf7a"/>
     </g>
    </g>
    <g id="text_29">
     <!-- SOR sweeps -->
     <g style="fill: #52514e" transform="translate(312.806989 32.397187) scale(0.08 -0.08)">
      <use xlink:href="#DejaVuSans-53"/>
      <use xlink:href="#DejaVuSans-4f" transform="translate(63.476562 0)"/>
      <use xlink:href="#DejaVuSans-52" transform="translate(142.1875 0)"/>
      <use xlink:href="#DejaVuSans-20" transform="translate(211.669922 0)"/>
      <use xlink:href="#DejaVuSans-73" transform="translate(243.457031 0)"/>
      <use xlink:href="#DejaVuSans-77" transform="translate(295.556641 0)"/>
      <use xlink:href="#DejaVuSans-65" transform="translate(377.34375 0)"/>
      <use xlink:href="#DejaVuSans-65" transform="translate(438.867188 0)"/>
      <use xlink:href="#DejaVuSans-70" transform="translate(500.390625 0)"/>
      <use xlink:href="#DejaVuSans-73" transform="translate(563.867188 0)"/>
     </g>
    </g>
    <g id="line2d_61">
     <path d="M 295.206989 41.339687 
L 301.606989 41.339687 
L 308.006989 41.339687 
" style="fill: none; stroke: #eda100; stroke-width: 2; stroke-linecap: round"/>
     <g>
      <use xlink:href="#m8ce98fe6a5" x="301.606989" y="41.339687" style="fill: #eda100; stroke: #eda100; stroke-linejoin: miter"/>
     </g>
    </g>
    <g id="text_30">
     <!-- multigrid V-cycles -->
     <g style="fill: #52514e" transform="translate(312.806989 44.139687) scale(0.08 -0.08)">
      <use xlink:href="#DejaVuSans-6d"/>
      <use xlink:href="#DejaVuSans-75" transform="translate(97.412109 0)"/>
      <use xlink:href="#DejaVuSans-6c" transform="translate(160.791016 0)"/>
      <use xlink:href="#DejaVuSans-74" transform="translate(188.574219 0)"/>
      <use xlink:href="#DejaVuSans-69" transform="translate(227.783203 0)"/>
      <use xlink:href="#DejaVuSans-67" transform="translate(255.566406 0)"/>
      <use xlink:href="#DejaVuSans-72" transform="translate(319.042969 0)"/>
      <use xlink:href="#DejaVuSans-69" transform="translate(360.15625 0)"/>
      <use xlink:href="#DejaVuSans-64" transform="translate(387.939453 0)"/>
      <use xlink:href="#DejaVuSans-20" transform="translate(451.416016 0)"/>
      <use xlink:href="#DejaVuSans-56" transform="translate(483.203125 0)"/>
      <use xlink:href="#DejaVuSans-2d" transform="translate(545.736328 0)"/>
      <use xlink:href="#DejaVuSans-63" transform="translate(581.820312 0)"/>
      <use xlink:href="#DejaVuSans-79" transform="translate(636.800781 0)"/>
      <use xlink:href="#DejaVuSans-63" transform="translate(695.980469 0)"/>
      <use xlink:href="#DejaVuSans-6c" transform="translate(750.960938 0)"/>
      <use xlink:href="#DejaVuSans-65" transform="translate(778.744141 0)"/>
      <use xlink:href="#DejaVuSans-73" transform="translate(840.267578 0)"/>
     </g>
    </g>
   </g>
  </g>
 </g>
 <defs>
  <clipPath id="p5ca3ad9dd9">
   <rect x="45.850313" y="19.918437" width="198.619914" height="192.028"/>
  </clipPath>
  <clipPath id="pe6dc41f2ce">
   <rect x="288.806989" y="19.918437" width="198.619914" height="192.028"/>
  </clipPath>
 </defs>
</svg>
